FiraSans-SemiLight.ufo
<glyph name="E" format="2">
  <advance width="493"/>
  <unicode hex="0045"/>
  <anchor x="283" y="0" name="bottom"/>
  <anchor x="438" y="0" name="ogonek"/>
  <anchor x="288" y="682" name="top"/>
  <anchor x="90" y="682" name="topleft"/>
  <outline>
    <contour>
      <point x="447" y="682" type="line"/>
      <point x="120" y="682" type="line"/>
      <point x="120" y="0" type="line"/>
      <point x="453" y="0" type="line"/>
      <point x="453" y="29" type="line"/>
      <point x="151" y="29" type="line"/>
      <point x="151" y="345" type="line"/>
      <point x="403" y="345" type="line"/>
      <point x="403" y="373" type="line"/>
      <point x="151" y="373" type="line"/>
      <point x="151" y="653" type="line"/>
      <point x="443" y="653" type="line"/>
    </contour>
  </outline>
</glyph>
<glyph name="H" format="2">
  <advance width="662"/>
  <unicode hex="0048"/>
  <anchor x="331" y="0" name="bottom"/>
  <anchor x="552" y="0" name="bottomright"/>
  <anchor x="329" y="341" name="center"/>
  <anchor x="329" y="682" name="top"/>
  <anchor x="90" y="682" name="topleft"/>
  <outline>
    <contour>
      <point x="511" y="0" type="line"/>
      <point x="542" y="0" type="line"/>
      <point x="542" y="682" type="line"/>
      <point x="511" y="682" type="line"/>
      <point x="511" y="374" type="line"/>
      <point x="151" y="374" type="line"/>
      <point x="151" y="682" type="line"/>
      <point x="120" y="682" type="line"/>
      <point x="120" y="0" type="line"/>
      <point x="151" y="0" type="line"/>
      <point x="151" y="345" type="line"/>
      <point x="511" y="345" type="line"/>
    </contour>
  </outline>
</glyph>
<glyph name="I" format="2">
  <advance width="271"/>
  <unicode hex="0049"/>
  <anchor x="136" y="0" name="bottom"/>
  <anchor x="161" y="0" name="ogonek"/>
  <anchor x="135" y="682" name="top"/>
  <anchor x="90" y="682" name="topleft"/>
  <outline>
    <contour>
      <point x="151" y="682" type="line"/>
      <point x="120" y="682" type="line"/>
      <point x="120" y="0" type="line"/>
      <point x="151" y="0" type="line"/>
    </contour>
  </outline>
</glyph>
<glyph name="L" format="2">
  <advance width="460"/>
  <unicode hex="004C"/>
  <anchor x="281" y="0" name="bottom"/>
  <anchor x="352" y="354" name="center"/>
  <anchor x="136" y="682" name="top"/>
  <anchor x="181" y="682" name="topright"/>
  <outline>
    <contour>
      <point x="151" y="682" type="line"/>
      <point x="120" y="682" type="line"/>
      <point x="120" y="0" type="line"/>
      <point x="434" y="0" type="line"/>
      <point x="440" y="30" type="line"/>
      <point x="151" y="30" type="line"/>
    </contour>
  </outline>
</glyph>
<glyph name="N" format="2">
  <advance width="664"/>
  <unicode hex="004E"/>
  <anchor x="332" y="0" name="bottom"/>
  <anchor x="339" y="682" name="top"/>
  <outline>
    <contour>
      <point x="544" y="682" type="line"/>
      <point x="514" y="682" type="line"/>
      <point x="514" y="232" type="line"/>
      <point x="514" y="140"/>
      <point x="516" y="75"/>
      <point x="518" y="35" type="curve"/>
      <point x="159" y="682" type="line"/>
      <point x="120" y="682" type="line"/>
      <point x="120" y="0" type="line"/>
      <point x="150" y="0" type="line"/>
      <point x="150" y="438" type="line"/>
      <point x="150" y="557"/>
      <point x="149" y="608"/>
      <point x="146" y="647" type="curve"/>
      <point x="506" y="0" type="line"/>
      <point x="544" y="0" type="line"/>
    </contour>
  </outline>
</glyph>
<glyph name="P" format="2">
  <advance width="561"/>
  <unicode hex="0050"/>
  <anchor x="136" y="0" name="bottom"/>
  <anchor x="281" y="682" name="top"/>
  <anchor x="90" y="682" name="topleft"/>
  <outline>
    <contour>
      <point x="151" y="0" type="line"/>
      <point x="151" y="653" type="line"/>
      <point x="264" y="653" type="line" smooth="yes"/>
      <point x="399" y="653"/>
      <point x="474" y="609"/>
      <point x="474" y="482" type="curve" smooth="yes"/>
      <point x="474" y="348"/>
      <point x="385" y="307"/>
      <point x="262" y="307" type="curve" smooth="yes"/>
      <point x="144" y="307" type="line"/>
      <point x="144" y="278" type="line"/>
      <point x="259" y="278" type="line" smooth="yes"/>
      <point x="404" y="278"/>
      <point x="506" y="333"/>
      <point x="506" y="483" type="curve" smooth="yes"/>
      <point x="506" y="623"/>
      <point x="418" y="682"/>
      <point x="264" y="682" type="curve" smooth="yes"/>
      <point x="120" y="682" type="line"/>
      <point x="120" y="0" type="line"/>
    </contour>
  </outline>
</glyph>
<glyph name="T" format="2">
  <advance width="477"/>
  <unicode hex="0054"/>
  <anchor x="239" y="0" name="bottom"/>
  <anchor x="264" y="0" name="bottomright"/>
  <anchor x="239" y="348" name="center"/>
  <anchor x="239" y="682" name="top"/>
  <outline>
    <contour>
      <point x="467" y="682" type="line"/>
      <point x="15" y="682" type="line"/>
      <point x="15" y="652" type="line"/>
      <point x="223" y="652" type="line"/>
      <point x="223" y="0" type="line"/>
      <point x="254" y="0" type="line"/>
      <point x="254" y="652" type="line"/>
      <point x="462" y="652" type="line"/>
    </contour>
  </outline>
</glyph>
<glyph name="V" format="2">
  <advance width="538"/>
  <unicode hex="0056"/>
  <anchor x="269" y="0" name="bottom"/>
  <anchor x="269" y="682" name="top"/>
  <outline>
    <contour>
      <point x="513" y="682" type="line"/>
      <point x="480" y="682" type="line"/>
      <point x="269" y="29" type="line"/>
      <point x="58" y="682" type="line"/>
      <point x="25" y="682" type="line"/>
      <point x="249" y="0" type="line"/>
      <point x="288" y="0" type="line"/>
    </contour>
  </outline>
</glyph>
<glyph name="X" format="2">
  <advance width="493"/>
  <unicode hex="0058"/>
  <anchor x="244.5" y="0" name="bottom"/>
  <anchor x="453" y="0" name="bottomright"/>
  <anchor x="244.5" y="682" name="top"/>
  <outline>
    <contour>
      <point x="72" y="682" type="line"/>
      <point x="37" y="682" type="line"/>
      <point x="225" y="369" type="line"/>
      <point x="243" y="350" type="line"/>
      <point x="443" y="0" type="line"/>
      <point x="478" y="0" type="line"/>
      <point x="261" y="370" type="line"/>
      <point x="243" y="388" type="line"/>
    </contour>
    <contour>
      <point x="446" y="682" type="line"/>
      <point x="412" y="682" type="line"/>
      <point x="243" y="388" type="line"/>
      <point x="225" y="369" type="line"/>
      <point x="15" y="0" type="line"/>
      <point x="49" y="0" type="line"/>
      <point x="243" y="350" type="line"/>
      <point x="261" y="370" type="line"/>
    </contour>
  </outline>
</glyph>
<glyph name="o" format="2">
  <advance width="561"/>
  <unicode hex="006F"/>
  <anchor x="281" y="0" name="bottom"/>
  <anchor x="355" y="0" name="ogonek"/>
  <anchor x="281" y="520" name="top"/>
  <anchor x="453" y="520" name="topright"/>
  <outline>
    <contour>
      <point x="281" y="530" type="curve" smooth="yes"/>
      <point x="154" y="530"/>
      <point x="70" y="431"/>
      <point x="70" y="259" type="curve" smooth="yes"/>
      <point x="70" y="91"/>
      <point x="150" y="-10"/>
      <point x="280" y="-10" type="curve" smooth="yes"/>
      <point x="408" y="-10"/>
      <point x="491" y="89"/>
      <point x="491" y="262" type="curve" smooth="yes"/>
      <point x="491" y="436"/>
      <point x="410" y="530"/>
    </contour>
    <contour>
      <point x="281" y="502" type="curve" smooth="yes"/>
      <point x="393" y="502"/>
      <point x="460" y="418"/>
      <point x="460" y="262" type="curve" smooth="yes"/>
      <point x="460" y="103"/>
      <point x="390" y="18"/>
      <point x="280" y="18" type="curve" smooth="yes"/>
      <point x="169" y="18"/>
      <point x="101" y="105"/>
      <point x="101" y="259" type="curve" smooth="yes"/>
      <point x="101" y="419"/>
      <point x="172" y="502"/>
    </contour>
  </outline>
</glyph>
<glyph name="q" format="2">
  <advance width="575"/>
  <unicode hex="0071"/>
  <anchor x="290" y="-193" name="bottom"/>
  <anchor x="290" y="520" name="top"/>
  <outline>
    <contour>
      <point x="430" y="418" type="line"/>
      <point x="430" y="-193" type="line"/>
      <point x="460" y="-199" type="line"/>
      <point x="460" y="520" type="line"/>
      <point x="434" y="520" type="line"/>
      <point x="431" y="445" type="line"/>
    </contour>
    <contour>
      <point x="280" y="530" type="curve" smooth="yes"/>
      <point x="151" y="530"/>
      <point x="75" y="419"/>
      <point x="75" y="258" type="curve" smooth="yes"/>
      <point x="75" y="90"/>
      <point x="152" y="-10"/>
      <point x="269" y="-10" type="curve" smooth="yes"/>
      <point x="358" y="-10"/>
      <point x="407" y="39"/>
      <point x="434" y="91" type="curve"/>
      <point x="436" y="141" type="line"/>
      <point x="399" y="63"/>
      <point x="353" y="18"/>
      <point x="270" y="18" type="curve" smooth="yes"/>
      <point x="170" y="18"/>
      <point x="107" y="106"/>
      <point x="106" y="258" type="curve" smooth="yes"/>
      <point x="105" y="412"/>
      <point x="178" y="502"/>
      <point x="281" y="502" type="curve" smooth="yes"/>
      <point x="361" y="502"/>
      <point x="408" y="454"/>
      <point x="438" y="403" type="curve"/>
      <point x="437" y="445" type="line"/>
      <point x="411" y="484"/>
      <point x="366" y="530"/>
    </contour>
  </outline>
</glyph>
<glyph name="v" format="2">
  <advance width="452"/>
  <unicode hex="0076"/>
  <anchor x="231" y="0" name="bottom"/>
  <anchor x="227" y="520" name="top"/>
  <outline>
    <contour>
      <point x="432" y="520" type="line"/>
      <point x="399" y="520" type="line"/>
      <point x="230" y="26" type="line"/>
      <point x="54" y="520" type="line"/>
      <point x="20" y="520" type="line"/>
      <point x="211" y="0" type="line"/>
      <point x="251" y="0" type="line"/>
    </contour>
  </outline>
</glyph>
<glyph name="z" format="2">
  <advance width="410"/>
  <unicode hex="007A"/>
  <anchor x="207" y="0" name="bottom"/>
  <anchor x="214" y="520" name="top"/>
  <outline>
    <contour>
      <point x="375" y="520" type="line"/>
      <point x="55" y="520" type="line"/>
      <point x="55" y="492" type="line"/>
      <point x="338" y="492" type="line"/>
      <point x="30" y="25" type="line"/>
      <point x="30" y="0" type="line"/>
      <point x="366" y="0" type="line"/>
      <point x="369" y="28" type="line"/>
      <point x="68" y="28" type="line"/>
      <point x="375" y="495" type="line"/>
    </contour>
  </outline>
</glyph>
<glyph name="cent" format="2">
  <advance width="462"/>
  <unicode hex="00A2"/>
  <anchor x="283" y="0" name="bottom"/>
  <anchor x="282" y="520" name="top"/>
  <outline>
    <contour>
      <point x="296" y="677" type="line"/>
      <point x="270" y="677" type="line"/>
      <point x="270" y="527" type="line"/>
      <point x="296" y="527" type="line"/>
    </contour>
    <contour>
      <point x="269" y="-7" type="line"/>
      <point x="269" y="-147" type="line"/>
      <point x="296" y="-147" type="line"/>
      <point x="296" y="-6" type="line"/>
    </contour>
    <component base="c"/>
  </outline>
</glyph>
<glyph name="Eth" format="2">
  <advance width="621"/>
  <unicode hex="00D0"/>
  <anchor x="299" y="0" name="bottom"/>
  <anchor x="316" y="341" name="center"/>
  <anchor x="296" y="682" name="top"/>
  <outline>
    <contour>
      <point x="340" y="367" type="line"/>
      <point x="119" y="367" type="line"/>
      <point x="25" y="367" type="line"/>
      <point x="25" y="337" type="line"/>
      <point x="340" y="337" type="line"/>
    </contour>
    <component base="D" xOffset="-1"/>
  </outline>
</glyph>
<glyph name="multiply" format="2">
  <advance width="488"/>
  <unicode hex="00D7"/>
  <outline>
    <contour>
      <point x="371" y="459" type="line"/>
      <point x="242" y="326" type="line"/>
      <point x="117" y="459" type="line"/>
      <point x="95" y="439" type="line"/>
      <point x="222" y="306" type="line"/>
      <point x="95" y="176" type="line"/>
      <point x="117" y="156" type="line"/>
      <point x="244" y="288" type="line"/>
      <point x="371" y="156" type="line"/>
      <point x="393" y="176" type="line"/>
      <point x="264" y="308" type="line"/>
      <point x="393" y="439" type="line"/>
    </contour>
  </outline>
</glyph>
<glyph name="dcroat" format="2">
  <advance width="580"/>
  <unicode hex="0111"/>
  <anchor x="298" y="0" name="bottom"/>
  <anchor x="293" y="260" name="center"/>
  <anchor x="279" y="734" name="top"/>
  <anchor x="490" y="734" name="topright"/>
  <outline>
    <contour>
      <point x="535" y="652" type="line"/>
      <point x="260" y="652" type="line"/>
      <point x="260" y="625" type="line"/>
      <point x="460" y="625" type="line"/>
      <point x="535" y="625" type="line"/>
    </contour>
    <component base="d"/>
  </outline>
</glyph>
<glyph name="Hbar" format="2">
  <advance width="662"/>
  <unicode hex="0126"/>
  <anchor x="331" y="0" name="bottom"/>
  <anchor x="552" y="0" name="bottomright"/>
  <anchor x="329" y="341" name="center"/>
  <anchor x="329" y="682" name="top"/>
  <anchor x="90" y="682" name="topleft"/>
  <outline>
    <contour>
      <point x="605" y="542" type="line"/>
      <point x="542" y="542" type="line"/>
      <point x="57" y="542" type="line"/>
      <point x="57" y="518" type="line"/>
      <point x="120" y="518" type="line"/>
      <point x="605" y="518" type="line"/>
    </contour>
    <component base="H"/>
  </outline>
</glyph>
<glyph name="hbar" format="2">
  <advance width="587"/>
  <unicode hex="0127"/>
  <anchor x="299" y="0" name="bottom"/>
  <anchor x="301" y="260" name="center"/>
  <anchor x="301" y="734" name="top"/>
  <outline>
    <contour>
      <point x="329" y="652" type="line"/>
      <point x="45" y="652" type="line"/>
      <point x="45" y="625" type="line"/>
      <point x="120" y="625" type="line"/>
      <point x="329" y="625" type="line"/>
    </contour>
    <component base="h" xOffset="5"/>
  </outline>
</glyph>
<glyph name="dotlessi" format="2">
  <advance width="260"/>
  <unicode hex="0131"/>
  <anchor x="130" y="0" name="bottom"/>
  <anchor x="155" y="0" name="ogonek"/>
  <anchor x="130" y="520" name="top"/>
  <outline>
    <contour>
      <point x="145" y="520" type="line"/>
      <point x="115" y="520" type="line"/>
      <point x="115" y="0" type="line"/>
      <point x="145" y="0" type="line"/>
    </contour>
  </outline>
</glyph>
<glyph name="kgreenlandic" format="2">
  <advance width="469"/>
  <unicode hex="0138"/>
  <anchor x="234.5" y="0" name="bottom"/>
  <anchor x="234.5" y="520" name="top"/>
  <outline>
    <contour>
      <point x="430" y="520" type="line"/>
      <point x="392" y="520" type="line"/>
      <point x="151" y="274" type="line"/>
      <point x="417" y="0" type="line"/>
      <point x="454" y="0" type="line"/>
      <point x="189" y="275" type="line"/>
    </contour>
    <contour>
      <point x="145" y="520" type="line"/>
      <point x="115" y="520" type="line"/>
      <point x="115" y="0" type="line"/>
      <point x="145" y="0" type="line"/>
    </contour>
  </outline>
</glyph>
<glyph name="Lslash" format="2">
  <advance width="466"/>
  <unicode hex="0141"/>
  <anchor x="287" y="0" name="bottom"/>
  <anchor x="358" y="354" name="center"/>
  <anchor x="142" y="682" name="top"/>
  <anchor x="187" y="682" name="topright"/>
  <outline>
    <contour>
      <point x="355" y="475" type="line"/>
      <point x="126" y="331" type="line"/>
      <point x="42" y="279" type="line"/>
      <point x="55" y="257" type="line"/>
      <point x="368" y="453" type="line"/>
    </contour>
    <component base="L" xOffset="6"/>
  </outline>
</glyph>
<glyph name="lslash" format="2">
  <advance width="289"/>
  <unicode hex="0142"/>
  <anchor x="186" y="0" name="bottom"/>
  <anchor x="269" y="375" name="center"/>
  <anchor x="132" y="734" name="top"/>
  <anchor x="177" y="734" name="topright"/>
  <outline>
    <contour>
      <point x="54" y="301" type="line"/>
      <point x="264" y="430" type="line"/>
      <point x="251" y="452" type="line"/>
      <point x="118" y="370" type="line"/>
      <point x="41" y="322" type="line"/>
    </contour>
    <component base="l" xOffset="7"/>
  </outline>
</glyph>
<glyph name="napostrophe" format="2">
  <advance width="644"/>
  <unicode hex="0149"/>
  <anchor x="351" y="0" name="bottom"/>
  <anchor x="359" y="520" name="top"/>
  <anchor x="167" y="520" name="topleft"/>
  <outline>
    <contour>
      <point x="94" y="738" type="curve" smooth="yes"/>
      <point x="74" y="738"/>
      <point x="62" y="724"/>
      <point x="62" y="707" type="curve" smooth="yes"/>
      <point x="62" y="691"/>
      <point x="66" y="682"/>
      <point x="82" y="677" type="curve"/>
      <point x="55" y="558" type="line"/>
      <point x="76" y="558" type="line"/>
      <point x="108" y="650" type="line" smooth="yes"/>
      <point x="120" y="683"/>
      <point x="127" y="691"/>
      <point x="127" y="707" type="curve" smooth="yes"/>
      <point x="127" y="724"/>
      <point x="116" y="738"/>
    </contour>
    <component base="n" xOffset="62"/>
  </outline>
</glyph>
<glyph name="tbar" format="2">
  <advance width="325"/>
  <unicode hex="0167"/>
  <anchor x="222" y="0" name="bottom"/>
  <anchor x="157" y="260" name="center"/>
  <anchor x="125" y="650" name="top"/>
  <anchor x="156" y="735" name="topright"/>
  <outline>
    <contour>
      <point x="275" y="344" type="line"/>
      <point x="110" y="344" type="line"/>
      <point x="25" y="344" type="line"/>
      <point x="25" y="317" type="line"/>
      <point x="275" y="317" type="line"/>
    </contour>
    <component base="t"/>
  </outline>
</glyph>
<glyph name="bstroke" format="2">
  <advance width="575"/>
  <unicode hex="0180"/>
  <anchor x="303" y="0" name="bottom"/>
  <anchor x="299" y="734" name="top"/>
  <outline>
    <contour>
      <point x="329" y="652" type="line"/>
      <point x="45" y="652" type="line"/>
      <point x="45" y="625" type="line"/>
      <point x="120" y="625" type="line"/>
      <point x="329" y="625" type="line"/>
    </contour>
    <component base="b" xOffset="5"/>
  </outline>
</glyph>
<glyph name="tonesix" format="2">
  <advance width="491"/>
  <unicode hex="0185"/>
  <anchor x="245.5" y="0" name="bottom"/>
  <anchor x="245.5" y="520" name="top"/>
  <outline>
    <contour>
      <point x="115" y="0" type="line"/>
      <point x="262" y="0" type="line"/>
      <point x="373" y="0"/>
      <point x="451" y="54"/>
      <point x="451" y="175" type="curve" smooth="yes"/>
      <point x="451" y="276"/>
      <point x="394" y="338"/>
      <point x="256" y="338" type="curve" smooth="yes"/>
      <point x="138" y="338" type="line"/>
      <point x="138" y="310" type="line"/>
      <point x="257" y="310" type="line" smooth="yes"/>
      <point x="377" y="310"/>
      <point x="420" y="260"/>
      <point x="420" y="175" type="curve" smooth="yes"/>
      <point x="420" y="69"/>
      <point x="359" y="28"/>
      <point x="259" y="28" type="curve" smooth="yes"/>
      <point x="145" y="28" type="line"/>
      <point x="145" y="520" type="line"/>
      <point x="120" y="520" type="line"/>
      <point x="115" y="489" type="line"/>
    </contour>
    <contour>
      <point x="115" y="418" type="line"/>
      <point x="120" y="520" type="line"/>
      <point x="108" y="485"/>
      <point x="95" y="466"/>
      <point x="76" y="447" type="curve"/>
    </contour>
  </outline>
</glyph>
<glyph name="Oopen" format="2">
  <advance width="542"/>
  <unicode hex="0186"/>
  <anchor x="216" y="0" name="bottom"/>
  <anchor x="214" y="344" name="center"/>
  <anchor x="216" y="682" name="top"/>
  <outline>
    <contour>
      <point x="215" y="692" type="curve" smooth="yes"/>
      <point x="138" y="692"/>
      <point x="80" y="668"/>
      <point x="33" y="633" type="curve"/>
      <point x="50" y="611" type="line"/>
      <point x="100" y="646"/>
      <point x="149" y="663"/>
      <point x="213" y="663" type="curve" smooth="yes"/>
      <point x="341" y="663"/>
      <point x="435" y="568"/>
      <point x="435" y="341" type="curve" smooth="yes"/>
      <point x="435" y="126"/>
      <point x="330" y="20"/>
      <point x="203" y="20" type="curve" smooth="yes"/>
      <point x="131" y="20"/>
      <point x="89" y="44"/>
      <point x="44" y="77" type="curve"/>
      <point x="25" y="55" type="line"/>
      <point x="68" y="19"/>
      <point x="122" y="-10"/>
      <point x="203" y="-10" type="curve" smooth="yes"/>
      <point x="352" y="-10"/>
      <point x="467" y="112"/>
      <point x="467" y="341" type="curve" smooth="yes"/>
      <point x="467" y="577"/>
      <point x="361" y="692"/>
    </contour>
  </outline>
</glyph>
<glyph name="Dtopbar" format="2">
  <advance width="561"/>
  <unicode hex="018B"/>
  <anchor x="280.5" y="0" name="bottom"/>
  <anchor x="280.5" y="682" name="top"/>
  <outline>
    <contour>
      <point x="121" y="682" type="line"/>
      <point x="121" y="653" type="line"/>
      <point x="421" y="653" type="line"/>
      <point x="441" y="682" type="line"/>
    </contour>
    <component base="Komide-cy" xOffset="10"/>
  </outline>
</glyph>
<glyph name="Iotaafrican" format="2">
  <advance width="325"/>
  <unicode hex="0196"/>
  <anchor x="193" y="0" name="bottom"/>
  <anchor x="126" y="682" name="top"/>
  <outline>
    <contour>
      <point x="141" y="682" type="line"/>
      <point x="110" y="682" type="line"/>
      <point x="110" y="189" type="line"/>
      <point x="141" y="189" type="line"/>
    </contour>
    <component base="hookHELPER.case" xScale="-1" xOffset="344" yOffset="189"/>
  </outline>
</glyph>
<glyph name="Nhookleft" format="2">
  <advance width="664"/>
  <unicode hex="019D"/>
  <anchor x="332" y="0" name="bottom"/>
  <anchor x="339" y="682" name="top"/>
  <outline>
    <contour>
      <point x="46" y="-199" type="curve" smooth="yes"/>
      <point x="106" y="-199"/>
      <point x="150" y="-161"/>
      <point x="150" y="-82" type="curve" smooth="yes"/>
      <point x="150" y="1" type="line"/>
      <point x="120" y="1" type="line"/>
      <point x="120" y="-81" type="line" smooth="yes"/>
      <point x="120" y="-150"/>
      <point x="86" y="-172"/>
      <point x="46" y="-172" type="curve" smooth="yes"/>
      <point x="11" y="-172"/>
      <point x="-11" y="-161"/>
      <point x="-30" y="-148" type="curve"/>
      <point x="-45" y="-168" type="line"/>
      <point x="-25" y="-183"/>
      <point x="5" y="-199"/>
    </contour>
    <component base="N"/>
  </outline>
</glyph>
<glyph name="nlegrightlong" format="2">
  <advance width="582"/>
  <unicode hex="019E"/>
  <anchor x="289" y="0" name="bottom"/>
  <anchor x="297" y="520" name="top"/>
  <anchor x="105" y="520" name="topleft"/>
  <outline>
    <contour>
      <point x="472" y="1" type="line"/>
      <point x="442" y="1" type="line"/>
      <point x="442" y="-193" type="line"/>
      <point x="472" y="-199" type="line"/>
    </contour>
    <component base="n"/>
  </outline>
</glyph>
<glyph name="zstroke" format="2">
  <advance width="410"/>
  <unicode hex="01B6"/>
  <anchor x="205" y="0" name="bottom"/>
  <anchor x="205" y="520" name="top"/>
  <outline>
    <contour>
      <point x="375" y="520" type="line"/>
      <point x="55" y="520" type="line"/>
      <point x="55" y="492" type="line"/>
      <point x="338" y="492" type="line"/>
      <point x="30" y="25" type="line"/>
      <point x="30" y="0" type="line"/>
      <point x="366" y="0" type="line"/>
      <point x="369" y="28" type="line"/>
      <point x="68" y="28" type="line"/>
      <point x="375" y="495" type="line"/>
    </contour>
    <component base="hyphen" xOffset="9" yOffset="-43"/>
  </outline>
</glyph>
<glyph name="ezhtail" format="2">
  <advance width="443"/>
  <unicode hex="01BA"/>
  <anchor x="221.5" y="-193" name="bottom"/>
  <anchor x="207" y="520" name="top"/>
  <outline>
    <contour>
      <point x="137" y="-199" type="curve"/>
      <point x="147" y="-176" type="line"/>
      <point x="91" y="-148"/>
      <point x="67" y="-127"/>
      <point x="67" y="-86" type="curve" smooth="yes"/>
      <point x="67" y="-36"/>
      <point x="118" y="-18"/>
      <point x="216" y="-5" type="curve" smooth="yes"/>
      <point x="342" y="12"/>
      <point x="408" y="45"/>
      <point x="408" y="146" type="curve" smooth="yes"/>
      <point x="408" y="223"/>
      <point x="355" y="269"/>
      <point x="263" y="269" type="curve" smooth="yes"/>
      <point x="152" y="269" type="line"/>
      <point x="378" y="495" type="line"/>
      <point x="378" y="520" type="line"/>
      <point x="35" y="520" type="line"/>
      <point x="35" y="492" type="line"/>
      <point x="335" y="492" type="line"/>
      <point x="116" y="269" type="line"/>
      <point x="116" y="241" type="line"/>
      <point x="261" y="241" type="line" smooth="yes"/>
      <point x="333" y="241"/>
      <point x="377" y="213"/>
      <point x="377" y="146" type="curve" smooth="yes"/>
      <point x="377" y="61"/>
      <point x="328" y="36"/>
      <point x="210" y="22" type="curve" smooth="yes"/>
      <point x="93" y="8"/>
      <point x="35" y="-25"/>
      <point x="35" y="-86" type="curve" smooth="yes"/>
      <point x="35" y="-140"/>
      <point x="75" y="-171"/>
    </contour>
  </outline>
</glyph>
<glyph name="clickdental" format="2">
  <advance width="269"/>
  <unicode hex="01C0"/>
  <outline>
    <contour>
      <point x="149" y="738" type="line"/>
      <point x="120" y="734" type="line"/>
      <point x="120" y="0" type="line"/>
      <point x="149" y="0" type="line"/>
    </contour>
  </outline>
</glyph>
<glyph name="dotlessj" format="2">
  <advance width="261"/>
  <unicode hex="0237"/>
  <anchor x="131" y="-193" name="bottom"/>
  <anchor x="130" y="520" name="top"/>
  <outline>
    <contour>
      <point x="146" y="520" type="line"/>
      <point x="116" y="520" type="line"/>
      <point x="116" y="9" type="line" smooth="yes"/>
      <point x="116" y="-108"/>
      <point x="88" y="-138"/>
      <point x="19" y="-174" type="curve"/>
      <point x="28" y="-196" type="line"/>
      <point x="108" y="-156"/>
      <point x="146" y="-124"/>
      <point x="146" y="8" type="curve" smooth="yes"/>
    </contour>
  </outline>
</glyph>
<glyph name="Astroke" format="2">
  <advance width="558"/>
  <unicode hex="023A"/>
  <anchor x="279" y="0" name="bottom"/>
  <anchor x="279" y="682" name="top"/>
  <outline>
    <contour>
      <point x="383" y="740" type="line"/>
      <point x="172" y="-64" type="line"/>
      <point x="195" y="-70" type="line"/>
      <point x="405" y="734" type="line"/>
    </contour>
    <contour>
      <point x="298" y="682" type="line"/>
      <point x="260" y="682" type="line"/>
      <point x="25" y="0" type="line"/>
      <point x="56" y="0" type="line"/>
      <point x="279" y="657" type="line"/>
      <point x="500" y="0" type="line"/>
      <point x="533" y="0" type="line"/>
    </contour>
    <contour>
      <point x="434" y="228" type="line"/>
      <point x="123" y="228" type="line"/>
      <point x="112" y="199" type="line"/>
      <point x="444" y="199" type="line"/>
    </contour>
  </outline>
</glyph>
<glyph name="Cstroke" format="2">
  <advance width="542"/>
  <unicode hex="023B"/>
  <anchor x="271" y="0" name="bottom"/>
  <anchor x="328" y="344" name="center"/>
  <anchor x="271" y="682" name="top"/>
  <outline>
    <contour>
      <point x="413" y="740" type="line"/>
      <point x="202" y="-64" type="line"/>
      <point x="225" y="-70" type="line"/>
      <point x="435" y="734" type="line"/>
    </contour>
    <component base="C"/>
  </outline>
</glyph>
<glyph name="cstroke" format="2">
  <advance width="462"/>
  <unicode hex="023C"/>
  <anchor x="283" y="0" name="bottom"/>
  <anchor x="282" y="520" name="top"/>
  <outline>
    <contour>
      <point x="346" y="589" type="line"/>
      <point x="166" y="-64" type="line"/>
      <point x="189" y="-70" type="line"/>
      <point x="368" y="583" type="line"/>
    </contour>
    <component base="c"/>
  </outline>
</glyph>
<glyph name="Tdiagonalstroke" format="2">
  <advance width="477"/>
  <unicode hex="023E"/>
  <anchor x="238.5" y="0" name="bottom"/>
  <anchor x="238.5" y="682" name="top"/>
  <outline>
    <contour>
      <point x="223" y="0" type="line"/>
      <point x="254" y="0" type="line"/>
      <point x="254" y="652" type="line"/>
      <point x="462" y="652" type="line"/>
      <point x="467" y="682" type="line"/>
      <point x="15" y="682" type="line"/>
      <point x="15" y="652" type="line"/>
      <point x="223" y="652" type="line"/>
    </contour>
    <contour>
      <point x="135" y="-70" type="line"/>
      <point x="365" y="734" type="line"/>
      <point x="343" y="740" type="line"/>
      <point x="112" y="-64" type="line"/>
    </contour>
  </outline>
</glyph>
<glyph name="Bstroke" format="2">
  <advance width="585"/>
  <unicode hex="0243"/>
  <anchor x="306" y="0" name="bottom"/>
  <anchor x="287" y="682" name="top"/>
  <outline>
    <contour>
      <point x="337" y="208" type="line"/>
      <point x="116" y="208" type="line"/>
      <point x="25" y="208" type="line"/>
      <point x="25" y="180" type="line"/>
      <point x="337" y="180" type="line"/>
    </contour>
    <component base="B" xOffset="-4"/>
  </outline>
</glyph>
<glyph name="Ubar" format="2">
  <advance width="652"/>
  <unicode hex="0244"/>
  <anchor x="327" y="0" name="bottom"/>
  <anchor x="412" y="0" name="ogonek"/>
  <anchor x="327" y="682" name="top"/>
  <anchor x="548" y="682" name="topright"/>
  <outline>
    <contour>
      <point x="600" y="542" type="line"/>
      <point x="537" y="542" type="line"/>
      <point x="52" y="542" type="line"/>
      <point x="52" y="518" type="line"/>
      <point x="115" y="518" type="line"/>
      <point x="600" y="518" type="line"/>
    </contour>
    <component base="U" xOffset="5"/>
  </outline>
</glyph>
<glyph name="Estroke" format="2">
  <advance width="493"/>
  <unicode hex="0246"/>
  <anchor x="246.5" y="0" name="bottom"/>
  <anchor x="438" y="0" name="ogonek"/>
  <anchor x="246.5" y="682" name="top"/>
  <anchor x="90" y="682" name="topleft"/>
  <outline>
    <contour>
      <point x="383" y="740" type="line"/>
      <point x="172" y="-64" type="line"/>
      <point x="195" y="-70" type="line"/>
      <point x="405" y="734" type="line"/>
    </contour>
    <component base="E"/>
  </outline>
</glyph>
<glyph name="Rstroke" format="2">
  <advance width="573"/>
  <unicode hex="024C"/>
  <anchor x="301" y="0" name="bottom"/>
  <anchor x="286" y="682" name="top"/>
  <outline>
    <contour>
      <point x="312" y="320" type="line"/>
      <point x="276" y="349" type="line"/>
      <point x="116" y="349" type="line"/>
      <point x="25" y="349" type="line"/>
      <point x="25" y="320" type="line"/>
    </contour>
    <component base="R" xOffset="-4"/>
  </outline>
</glyph>
<glyph name="ystroke" format="2">
  <advance width="448"/>
  <unicode hex="024F"/>
  <anchor x="226" y="-193" name="bottom"/>
  <anchor x="224" y="520" name="top"/>
  <outline>
    <contour>
      <point x="20" y="357" type="line"/>
      <point x="428" y="357" type="line"/>
      <point x="428" y="382" type="line"/>
      <point x="378" y="382" type="line"/>
      <point x="70" y="382" type="line"/>
      <point x="20" y="382" type="line"/>
    </contour>
    <component base="y"/>
  </outline>
</glyph>
<glyph name="jdotlessstroke" format="2">
  <advance width="289"/>
  <unicode hex="025F"/>
  <anchor x="148" y="-193" name="bottom"/>
  <anchor x="147" y="520" name="top"/>
  <outline>
    <contour>
      <point x="20" y="229" type="line"/>
      <point x="269" y="229" type="line"/>
      <point x="269" y="257" type="line"/>
      <point x="20" y="257" type="line"/>
    </contour>
    <component base="dotlessj" xOffset="17"/>
  </outline>
</glyph>
<glyph name="Ismall" format="2">
  <advance width="309"/>
  <unicode hex="026A"/>
  <anchor x="155" y="0" name="bottom"/>
  <anchor x="155" y="520" name="top"/>
  <outline>
    <contour>
      <point x="139" y="0" type="line"/>
      <point x="169" y="0" type="line"/>
      <point x="169" y="520" type="line"/>
      <point x="139" y="520" type="line"/>
    </contour>
    <contour>
      <point x="30" y="0" type="line"/>
      <point x="279" y="0" type="line"/>
      <point x="279" y="28" type="line"/>
      <point x="30" y="28" type="line"/>
    </contour>
    <contour>
      <point x="30" y="493" type="line"/>
      <point x="279" y="493" type="line"/>
      <point x="279" y="520" type="line"/>
      <point x="30" y="520" type="line"/>
    </contour>
  </outline>
</glyph>
<glyph name="lhookretroflex" format="2">
  <advance width="260"/>
  <unicode hex="026D"/>
  <anchor x="209" y="-193" name="bottom"/>
  <anchor x="130" y="734" name="top"/>
  <outline>
    <contour>
      <point x="115" y="0" type="line"/>
      <point x="145" y="0" type="line"/>
      <point x="145" y="738" type="line"/>
      <point x="115" y="734" type="line"/>
    </contour>
    <component base="hookHELPER" xScale="-1" xOffset="349"/>
  </outline>
</glyph>
<glyph name="lezh" format="2">
  <advance width="602"/>
  <unicode hex="026E"/>
  <anchor x="362" y="-193" name="bottom"/>
  <anchor x="262" y="375" name="center"/>
  <anchor x="332" y="734" name="top"/>
  <anchor x="170" y="734" name="topright"/>
  <outline>
    <contour>
      <point x="362" y="-199" type="curve" smooth="yes"/>
      <point x="491" y="-199"/>
      <point x="567" y="-116"/>
      <point x="567" y="1" type="curve" smooth="yes"/>
      <point x="567" y="125"/>
      <point x="500" y="195"/>
      <point x="333" y="195" type="curve" smooth="yes"/>
      <point x="319" y="195" type="line"/>
      <point x="285" y="167" type="line"/>
      <point x="336" y="167" type="line" smooth="yes"/>
      <point x="472" y="167"/>
      <point x="537" y="119"/>
      <point x="537" y="1" type="curve" smooth="yes"/>
      <point x="537" y="-101"/>
      <point x="477" y="-171"/>
      <point x="361" y="-171" type="curve" smooth="yes"/>
      <point x="302" y="-171"/>
      <point x="254" y="-154"/>
      <point x="207" y="-111" type="curve"/>
      <point x="189" y="-130" type="line"/>
      <point x="237" y="-174"/>
      <point x="289" y="-199"/>
    </contour>
    <contour>
      <point x="285" y="167" type="line"/>
      <point x="319" y="195" type="line"/>
      <point x="542" y="495" type="line"/>
      <point x="542" y="520" type="line"/>
      <point x="139" y="520" type="line"/>
      <point x="139" y="492" type="line"/>
      <point x="505" y="492" type="line"/>
      <point x="285" y="195" type="line"/>
    </contour>
    <component base="l"/>
  </outline>
</glyph>
<glyph name="Nsmall" format="2">
  <advance width="585"/>
  <unicode hex="0274"/>
  <anchor x="293" y="0" name="bottom"/>
  <anchor x="293" y="520" name="top"/>
  <outline>
    <contour>
      <point x="470" y="520" type="line"/>
      <point x="441" y="520" type="line"/>
      <point x="441" y="205" type="line" smooth="yes"/>
      <point x="441" y="122"/>
      <point x="443" y="65"/>
      <point x="444" y="29" type="curve"/>
      <point x="153" y="520" type="line"/>
      <point x="115" y="520" type="line"/>
      <point x="115" y="0" type="line"/>
      <point x="144" y="0" type="line"/>
      <point x="144" y="298" type="line" smooth="yes"/>
      <point x="144" y="407"/>
      <point x="143" y="451"/>
      <point x="141" y="491" type="curve"/>
      <point x="432" y="0" type="line"/>
      <point x="470" y="0" type="line"/>
    </contour>
  </outline>
</glyph>
<glyph name="rlonglegturned" format="2">
  <advance width="363"/>
  <unicode hex="027A"/>
  <anchor x="233" y="734" name="top"/>
  <anchor x="157" y="0" name="bottom"/>
  <outline>
    <contour>
      <point x="218" y="519" type="line"/>
      <point x="248" y="519" type="line"/>
      <point x="248" y="734" type="line"/>
      <point x="218" y="738" type="line"/>
    </contour>
    <component base="rturned"/>
  </outline>
</glyph>
<glyph name="rhookturned" format="2">
  <advance width="363"/>
  <unicode hex="027B"/>
  <anchor x="217" y="-193" name="bottom"/>
  <anchor x="233" y="520" name="top"/>
  <outline>
    <contour>
      <point x="67" y="-10" type="curve" smooth="yes"/>
      <point x="151" y="-10"/>
      <point x="198" y="40"/>
      <point x="226" y="142" type="curve"/>
      <point x="224" y="209" type="line"/>
      <point x="191" y="81"/>
      <point x="150" y="17"/>
      <point x="67" y="17" type="curve" smooth="yes"/>
      <point x="50" y="17"/>
      <point x="34" y="19"/>
      <point x="21" y="23" type="curve"/>
      <point x="15" y="-4" type="line"/>
      <point x="26" y="-7"/>
      <point x="43" y="-10"/>
    </contour>
    <contour>
      <point x="218" y="0" type="line"/>
      <point x="248" y="0" type="line"/>
      <point x="248" y="520" type="line"/>
      <point x="218" y="520" type="line"/>
      <point x="218" y="174" type="line"/>
      <point x="218" y="136" type="line"/>
    </contour>
    <component base="hookHELPER" xScale="-1" xOffset="452"/>
  </outline>
</glyph>
<glyph name="rfishhook" format="2">
  <advance width="323"/>
  <unicode hex="027E"/>
  <anchor x="125" y="0" name="bottom"/>
  <anchor x="214" y="520" name="top"/>
  <outline>
    <contour>
      <point x="140" y="328" type="line"/>
      <point x="110" y="328" type="line"/>
      <point x="110" y="0" type="line"/>
      <point x="140" y="0" type="line"/>
    </contour>
    <component base="hookHELPER" xScale="-1" yScale="-1" xOffset="344" yOffset="328"/>
  </outline>
</glyph>
<glyph name="esh" format="2">
  <advance width="266"/>
  <unicode hex="0283"/>
  <anchor x="44" y="-193" name="bottom"/>
  <anchor x="221" y="734" name="top"/>
  <outline>
    <contour>
      <point x="148" y="520" type="line"/>
      <point x="118" y="520" type="line"/>
      <point x="118" y="0" type="line"/>
      <point x="148" y="0" type="line"/>
    </contour>
    <component base="hookaboveHELPER2" xOffset="79"/>
    <component base="hookHELPER" xOffset="-86"/>
  </outline>
</glyph>
<glyph name="jdotlessstrokehook" format="2">
  <advance width="289"/>
  <unicode hex="0284"/>
  <anchor x="148" y="-193" name="bottom"/>
  <anchor x="221" y="734" name="top"/>
  <outline>
    <contour>
      <point x="45" y="-196" type="line"/>
      <point x="125" y="-156"/>
      <point x="163" y="-124"/>
      <point x="163" y="8" type="curve" smooth="yes"/>
      <point x="163" y="520" type="line"/>
      <point x="133" y="520" type="line"/>
      <point x="133" y="9" type="line" smooth="yes"/>
      <point x="133" y="-108"/>
      <point x="105" y="-138"/>
      <point x="36" y="-174" type="curve"/>
    </contour>
    <contour>
      <point x="24" y="0" type="line"/>
      <point x="273" y="0" type="line"/>
      <point x="273" y="25" type="line"/>
      <point x="24" y="25" type="line"/>
    </contour>
    <component base="hookaboveHELPER2" xOffset="94"/>
  </outline>
</glyph>
<glyph name="tretroflexhook" format="2">
  <advance width="325"/>
  <unicode hex="0288"/>
  <anchor x="214" y="-193" name="bottom"/>
  <anchor x="124" y="650" name="top"/>
  <outline>
    <contour>
      <point x="110" y="0" type="line"/>
      <point x="140" y="0" type="line"/>
      <point x="140" y="653" type="line"/>
      <point x="110" y="650" type="line"/>
    </contour>
    <contour>
      <point x="25" y="493" type="line"/>
      <point x="278" y="493" type="line"/>
      <point x="283" y="520" type="line"/>
      <point x="25" y="520" type="line"/>
    </contour>
    <component base="hookHELPER" xScale="-1" xOffset="344"/>
  </outline>
</glyph>
<glyph name="ubar" format="2">
  <advance width="599"/>
  <unicode hex="0289"/>
  <anchor x="300" y="0" name="bottom"/>
  <anchor x="480" y="0" name="ogonek"/>
  <anchor x="300" y="520" name="top"/>
  <anchor x="480" y="520" name="topright"/>
  <outline>
    <contour>
      <point x="30" y="357" type="line"/>
      <point x="118" y="357" type="line"/>
      <point x="559" y="357" type="line"/>
      <point x="559" y="382" type="line"/>
      <point x="471" y="382" type="line"/>
      <point x="30" y="382" type="line"/>
    </contour>
    <component base="u" xOffset="8"/>
  </outline>
</glyph>
<glyph name="Ysmall" format="2">
  <advance width="401"/>
  <unicode hex="028F"/>
  <anchor x="201" y="0" name="bottom"/>
  <anchor x="201" y="520" name="top"/>
  <outline>
    <contour>
      <point x="391" y="520" type="line"/>
      <point x="357" y="520" type="line"/>
      <point x="203" y="238" type="line"/>
      <point x="43" y="520" type="line"/>
      <point x="10" y="520" type="line"/>
      <point x="187" y="211" type="line"/>
      <point x="187" y="0" type="line"/>
      <point x="217" y="0" type="line"/>
      <point x="217" y="212" type="line"/>
    </contour>
  </outline>
</glyph>
<glyph name="bilabialclick" format="2">
  <advance width="790"/>
  <unicode hex="0298"/>
  <anchor x="395" y="340" name="_center"/>
  <anchor x="395" y="682" name="top"/>
  <anchor x="395" y="0" name="bottom"/>
  <outline>
    <contour>
      <point x="395" y="692" type="curve" smooth="yes"/>
      <point x="206" y="692"/>
      <point x="75" y="561"/>
      <point x="75" y="339" type="curve" smooth="yes"/>
      <point x="75" y="118"/>
      <point x="205" y="-10"/>
      <point x="395" y="-10" type="curve" smooth="yes"/>
      <point x="591" y="-10"/>
      <point x="715" y="122"/>
      <point x="715" y="340" type="curve" smooth="yes"/>
      <point x="715" y="567"/>
      <point x="586" y="692"/>
    </contour>
    <contour>
      <point x="395" y="664" type="curve"/>
      <point x="569" y="664"/>
      <point x="684" y="553"/>
      <point x="684" y="340" type="curve" smooth="yes"/>
      <point x="684" y="132"/>
      <point x="574" y="18"/>
      <point x="395" y="18" type="curve" smooth="yes"/>
      <point x="224" y="18"/>
      <point x="106" y="132"/>
      <point x="106" y="339" type="curve" smooth="yes"/>
      <point x="106" y="551"/>
      <point x="223" y="664"/>
    </contour>
    <component base="dotaccentcomb" xOffset="339" yOffset="-366"/>
  </outline>
</glyph>
<glyph name="kturned" format="2">
  <advance width="469"/>
  <unicode hex="029E"/>
  <anchor x="204" y="-193" name="bottom"/>
  <anchor x="193" y="520" name="top"/>
  <outline>
    <contour>
      <point x="39" y="0" type="line"/>
      <point x="77" y="0" type="line"/>
      <point x="318" y="236" type="line"/>
      <point x="52" y="520" type="line"/>
      <point x="15" y="520" type="line"/>
      <point x="280" y="235" type="line"/>
    </contour>
    <contour>
      <point x="324" y="-193" type="line"/>
      <point x="354" y="-199" type="line"/>
      <point x="354" y="520" type="line"/>
      <point x="324" y="520" type="line"/>
    </contour>
  </outline>
</glyph>
<glyph name="Lsmall" format="2">
  <advance width="400"/>
  <unicode hex="029F"/>
  <anchor x="250" y="0" name="bottom"/>
  <anchor x="130" y="520" name="top"/>
  <outline>
    <contour>
      <point x="145" y="520" type="line"/>
      <point x="115" y="520" type="line"/>
      <point x="115" y="0" type="line"/>
      <point x="384" y="0" type="line"/>
      <point x="390" y="28" type="line"/>
      <point x="145" y="28" type="line"/>
    </contour>
  </outline>
</glyph>
<glyph name="glottalstopstroke" format="2">
  <advance width="427"/>
  <unicode hex="02A1"/>
  <anchor x="149" y="0" name="bottom"/>
  <anchor x="185" y="734" name="top"/>
  <outline>
    <contour>
      <point x="65" y="205" type="line"/>
      <point x="65" y="178" type="line"/>
      <point x="133" y="178" type="line"/>
      <point x="283" y="178" type="line"/>
      <point x="283" y="205" type="line"/>
    </contour>
    <component base="glottalstop"/>
  </outline>
</glyph>
<glyph name="glottalstopstrokereversed" format="2">
  <advance width="427"/>
  <unicode hex="02A2"/>
  <anchor x="279" y="0" name="bottom"/>
  <anchor x="248" y="734" name="top"/>
  <outline>
    <contour>
      <point x="367" y="205" type="line"/>
      <point x="149" y="205" type="line"/>
      <point x="149" y="178" type="line"/>
      <point x="299" y="178" type="line"/>
      <point x="367" y="178" type="line"/>
    </contour>
    <component base="glottalstopreversed"/>
  </outline>
</glyph>
<glyph name="dzaltone" format="2">
  <advance width="849"/>
  <unicode hex="02A3"/>
  <anchor x="424.5" y="0" name="bottom"/>
  <anchor x="293" y="260" name="center"/>
  <anchor x="424.5" y="734" name="top"/>
  <anchor x="490" y="734" name="topright"/>
  <outline>
    <contour>
      <point x="814" y="520" type="line"/>
      <point x="454" y="520" type="line"/>
      <point x="454" y="492" type="line"/>
      <point x="777" y="492" type="line"/>
      <point x="459" y="25" type="line"/>
      <point x="459" y="0" type="line"/>
      <point x="805" y="0" type="line"/>
      <point x="808" y="28" type="line"/>
      <point x="497" y="28" type="line"/>
      <point x="814" y="495" type="line"/>
    </contour>
    <component base="d"/>
  </outline>
</glyph>
<glyph name="tesh" format="2">
  <advance width="549"/>
  <unicode hex="02A7"/>
  <anchor x="265" y="-193" name="bottom"/>
  <anchor x="261" y="734" name="top"/>
  <outline>
    <contour>
      <point x="140" y="653" type="line"/>
      <point x="110" y="650" type="line"/>
      <point x="110" y="138" type="line" smooth="yes"/>
      <point x="110" y="37"/>
      <point x="164" y="-10"/>
      <point x="256" y="-10" type="curve" smooth="yes"/>
      <point x="319" y="-10"/>
      <point x="364" y="5"/>
      <point x="420" y="30" type="curve"/>
      <point x="407" y="52" type="line"/>
      <point x="353" y="30"/>
      <point x="315" y="18"/>
      <point x="256" y="18" type="curve" smooth="yes"/>
      <point x="178" y="18"/>
      <point x="140" y="58"/>
      <point x="140" y="140" type="curve" smooth="yes"/>
    </contour>
    <contour>
      <point x="413" y="520" type="line"/>
      <point x="25" y="520" type="line"/>
      <point x="25" y="493" type="line"/>
      <point x="408" y="493" type="line"/>
    </contour>
    <component base="esh" xOffset="283"/>
  </outline>
</glyph>
<glyph name="fengdigraph" format="2">
  <advance width="862"/>
  <unicode hex="02A9"/>
  <anchor x="411" y="-193" name="bottom"/>
  <anchor x="410" y="734" name="top"/>
  <anchor x="385" y="520" name="topleft"/>
  <outline>
    <contour>
      <point x="247" y="738" type="curve" smooth="yes"/>
      <point x="170" y="738"/>
      <point x="118" y="695"/>
      <point x="118" y="617" type="curve" smooth="yes"/>
      <point x="118" y="0" type="line"/>
      <point x="148" y="0" type="line"/>
      <point x="148" y="613" type="line" smooth="yes"/>
      <point x="148" y="683"/>
      <point x="188" y="710"/>
      <point x="249" y="710" type="curve" smooth="yes"/>
      <point x="286" y="710"/>
      <point x="319" y="701"/>
      <point x="353" y="685" type="curve"/>
      <point x="365" y="709" type="line"/>
      <point x="330" y="727"/>
      <point x="288" y="738"/>
    </contour>
    <contour>
      <point x="412" y="520" type="line"/>
      <point x="30" y="520" type="line"/>
      <point x="30" y="493" type="line"/>
      <point x="407" y="493" type="line"/>
    </contour>
    <component base="eng" xOffset="280"/>
  </outline>
</glyph>
<glyph name="turnedhfishhookandtail" format="2">
  <advance width="655"/>
  <unicode hex="02AF"/>
  <anchor x="350" y="-193" name="bottom"/>
  <anchor x="350" y="520" name="top"/>
  <outline>
    <contour>
      <point x="323" y="-10" type="curve" smooth="yes"/>
      <point x="409" y="-10"/>
      <point x="471" y="40"/>
      <point x="519" y="112" type="curve"/>
      <point x="510" y="137" type="line"/>
      <point x="461" y="67"/>
      <point x="406" y="17"/>
      <point x="324" y="17" type="curve" smooth="yes"/>
      <point x="250" y="17"/>
      <point x="213" y="63"/>
      <point x="213" y="154" type="curve" smooth="yes"/>
      <point x="213" y="328" type="line"/>
      <point x="183" y="328" type="line"/>
      <point x="183" y="150" type="line" smooth="yes"/>
      <point x="183" y="50"/>
      <point x="230" y="-10"/>
    </contour>
    <contour>
      <point x="510" y="0" type="line"/>
      <point x="540" y="0" type="line"/>
      <point x="540" y="520" type="line"/>
      <point x="510" y="520" type="line"/>
    </contour>
    <component base="hookHELPER" yScale="-1" xOffset="-21" yOffset="328"/>
    <component base="hookHELPER" xScale="-1" xOffset="744"/>
  </outline>
</glyph>
<glyph name="colontriangularhalfmod" format="2">
  <advance width="196"/>
  <unicode hex="02D1"/>
  <outline>
    <contour>
      <point x="90" y="373" type="line"/>
      <point x="105" y="373" type="line"/>
      <point x="136" y="457" type="line"/>
      <point x="60" y="457" type="line"/>
    </contour>
  </outline>
</glyph>
<glyph name="gravecomb" format="2">
  <unicode hex="0300"/>
  <anchor x="127" y="520" name="_top"/>
  <anchor x="129" y="767" name="top"/>
  <outline>
    <contour>
      <point x="44" y="767" type="line"/>
      <point x="30" y="735" type="line"/>
      <point x="212" y="651" type="line"/>
      <point x="223" y="672" type="line"/>
    </contour>
  </outline>
</glyph>
<glyph name="acutecomb" format="2">
  <unicode hex="0301"/>
  <anchor x="137" y="520" name="_top"/>
  <anchor x="137" y="767" name="top"/>
  <outline>
    <contour>
      <point x="209" y="767" type="line"/>
      <point x="30" y="672" type="line"/>
      <point x="41" y="651" type="line"/>
      <point x="223" y="735" type="line"/>
    </contour>
  </outline>
</glyph>
<glyph name="circumflexcomb" format="2">
  <unicode hex="0302"/>
  <anchor x="163" y="520" name="_top"/>
  <anchor x="165" y="769" name="top"/>
  <outline>
    <contour>
      <point x="45" y="651" type="line"/>
      <point x="162" y="736" type="line"/>
      <point x="280" y="651" type="line"/>
      <point x="295" y="669" type="line"/>
      <point x="170" y="769" type="line"/>
      <point x="154" y="769" type="line"/>
      <point x="30" y="669" type="line"/>
    </contour>
  </outline>
</glyph>
<glyph name="macroncomb" format="2">
  <unicode hex="0304"/>
  <anchor x="137" y="520" name="_top"/>
  <anchor x="139" y="712" name="top"/>
  <outline>
    <contour>
      <point x="244" y="683" type="line"/>
      <point x="244" y="712" type="line"/>
      <point x="30" y="712" type="line"/>
      <point x="30" y="683" type="line"/>
    </contour>
  </outline>
</glyph>
<glyph name="dotaccentcomb" format="2">
  <unicode hex="0307"/>
  <anchor x="56" y="706" name="_center"/>
  <anchor x="56" y="520" name="_top"/>
  <anchor x="56" y="645" name="top"/>
  <outline>
    <contour>
      <point x="56" y="731" type="curve" smooth="yes"/>
      <point x="40" y="731"/>
      <point x="30" y="719"/>
      <point x="30" y="706" type="curve" smooth="yes"/>
      <point x="30" y="693"/>
      <point x="40" y="681"/>
      <point x="56" y="681" type="curve" smooth="yes"/>
      <point x="73" y="681"/>
      <point x="82" y="693"/>
      <point x="82" y="706" type="curve" smooth="yes"/>
      <point x="82" y="719"/>
      <point x="73" y="731"/>
    </contour>
  </outline>
</glyph>
<glyph name="hungarumlautcomb" format="2">
  <unicode hex="030B"/>
  <anchor x="99" y="520" name="_top"/>
  <outline>
    <contour>
      <point x="207" y="794" type="line"/>
      <point x="134" y="660" type="line"/>
      <point x="156" y="649" type="line"/>
      <point x="238" y="778" type="line"/>
    </contour>
    <contour>
      <point x="96" y="793" type="line"/>
      <point x="30" y="664" type="line"/>
      <point x="52" y="653" type="line"/>
      <point x="127" y="777" type="line"/>
    </contour>
  </outline>
</glyph>
<glyph name="caroncomb" format="2">
  <unicode hex="030C"/>
  <anchor x="163" y="520" name="_top"/>
  <anchor x="165" y="756" name="top"/>
  <outline>
    <contour>
      <point x="280" y="756" type="line"/>
      <point x="163" y="671" type="line"/>
      <point x="45" y="756" type="line"/>
      <point x="30" y="738" type="line"/>
      <point x="155" y="638" type="line"/>
      <point x="171" y="638" type="line"/>
      <point x="295" y="738" type="line"/>
    </contour>
  </outline>
</glyph>
<glyph name="verticallineabovecomb" format="2">
  <unicode hex="030D"/>
  <anchor x="46" y="520" name="_top"/>
  <anchor x="48" y="842" name="top"/>
  <outline>
    <contour>
      <point x="30" y="639" type="line"/>
      <point x="62" y="639" type="line"/>
      <point x="62" y="842" type="line"/>
      <point x="30" y="842" type="line"/>
    </contour>
  </outline>
</glyph>
<glyph name="leftangleabovecomb" format="2">
  <unicode hex="031A"/>
  <anchor x="106" y="520" name="_top"/>
  <anchor x="108" y="750" name="top"/>
  <outline>
    <contour>
      <point x="30" y="750" type="line"/>
      <point x="30" y="722" type="line"/>
      <point x="152" y="722" type="line"/>
      <point x="152" y="591" type="line"/>
      <point x="182" y="591" type="line"/>
      <point x="182" y="750" type="line"/>
    </contour>
  </outline>
</glyph>
<glyph name="commaaccentcomb" format="2">
  <unicode hex="0326"/>
  <anchor x="77" y="0" name="_bottom"/>
  <outline>
    <contour>
      <point x="76" y="-91" type="curve" smooth="yes"/>
      <point x="57" y="-91"/>
      <point x="44" y="-105"/>
      <point x="44" y="-122" type="curve" smooth="yes"/>
      <point x="44" y="-138"/>
      <point x="51" y="-147"/>
      <point x="64" y="-152" type="curve"/>
      <point x="30" y="-265" type="line"/>
      <point x="51" y="-265" type="line"/>
      <point x="90" y="-179" type="line" smooth="yes"/>
      <point x="104" y="-148"/>
      <point x="109" y="-138"/>
      <point x="109" y="-122" type="curve" smooth="yes"/>
      <point x="109" y="-105"/>
      <point x="98" y="-91"/>
    </contour>
  </outline>
</glyph>
<glyph name="ogonekcomb" format="2">
  <unicode hex="0328"/>
  <anchor x="194" y="0" name="_ogonek"/>
  <outline>
    <contour>
      <point x="173" y="18" type="line"/>
      <point x="80" y="-21"/>
      <point x="30" y="-61"/>
      <point x="30" y="-122" type="curve" smooth="yes"/>
      <point x="30" y="-169"/>
      <point x="60" y="-206"/>
      <point x="130" y="-206" type="curve" smooth="yes"/>
      <point x="149" y="-206"/>
      <point x="164" y="-204"/>
      <point x="184" y="-200" type="curve"/>
      <point x="187" y="-170" type="line"/>
      <point x="166" y="-174"/>
      <point x="149" y="-176"/>
      <point x="131" y="-176" type="curve" smooth="yes"/>
      <point x="84" y="-176"/>
      <point x="63" y="-154"/>
      <point x="63" y="-121" type="curve" smooth="yes"/>
      <point x="63" y="-65"/>
      <point x="107" y="-36"/>
      <point x="184" y="0" type="curve"/>
    </contour>
  </outline>
</glyph>
<glyph name="bridgebelowcomb" format="2">
  <unicode hex="032A"/>
  <anchor x="156" y="0" name="_bottom"/>
  <anchor x="158" y="-220" name="bottom"/>
  <outline>
    <contour>
      <point x="30" y="-220" type="line"/>
      <point x="60" y="-220" type="line"/>
      <point x="60" y="-130" type="line"/>
      <point x="252" y="-130" type="line"/>
      <point x="252" y="-220" type="line"/>
      <point x="282" y="-220" type="line"/>
      <point x="282" y="-102" type="line"/>
      <point x="30" y="-102" type="line"/>
    </contour>
  </outline>
</glyph>
<glyph name="circumflexbelowcomb" format="2">
  <unicode hex="032D"/>
  <anchor x="163" y="0" name="_bottom"/>
  <anchor x="165" y="-189" name="bottom"/>
  <outline>
    <contour>
      <point x="45" y="-189" type="line"/>
      <point x="162" y="-104" type="line"/>
      <point x="280" y="-189" type="line"/>
      <point x="295" y="-171" type="line"/>
      <point x="170" y="-71" type="line"/>
      <point x="154" y="-71" type="line"/>
      <point x="30" y="-171" type="line"/>
    </contour>
  </outline>
</glyph>
<glyph name="squarebelowcomb" format="2">
  <unicode hex="033B"/>
  <anchor x="151" y="0" name="_bottom"/>
  <anchor x="153" y="-219" name="bottom"/>
  <outline>
    <contour>
      <point x="30" y="-219" type="line"/>
      <point x="272" y="-219" type="line"/>
      <point x="272" y="-81" type="line"/>
      <point x="30" y="-81" type="line"/>
    </contour>
    <contour>
      <point x="59" y="-192" type="line"/>
      <point x="59" y="-108" type="line"/>
      <point x="243" y="-108" type="line"/>
      <point x="243" y="-192" type="line"/>
    </contour>
  </outline>
</glyph>
<glyph name="heta" format="2">
  <advance width="467"/>
  <unicode hex="0371"/>
  <anchor x="233.5" y="0" name="bottom"/>
  <anchor x="233.5" y="520" name="top"/>
  <outline>
    <contour>
      <point x="427" y="258" type="line"/>
      <point x="427" y="287" type="line"/>
      <point x="137" y="287" type="line"/>
      <point x="137" y="258" type="line"/>
    </contour>
    <contour>
      <point x="124" y="525" type="curve"/>
      <point x="95" y="521" type="line"/>
      <point x="107" y="481"/>
      <point x="117" y="432"/>
      <point x="117" y="354" type="curve" smooth="yes"/>
      <point x="117" y="0" type="line"/>
      <point x="147" y="0" type="line"/>
      <point x="147" y="349" type="line"/>
      <point x="147" y="450"/>
      <point x="135" y="486"/>
    </contour>
  </outline>
</glyph>
<glyph name="tonos" format="2">
  <advance width="127"/>
  <unicode hex="0384"/>
  <anchor x="40" y="520" name="_top"/>
  <outline>
    <contour>
      <point x="62" y="743" type="line"/>
      <point x="30" y="608" type="line"/>
      <point x="51" y="604" type="line"/>
      <point x="97" y="735" type="line"/>
    </contour>
  </outline>
</glyph>
<glyph name="Lambda" format="2">
  <advance width="558"/>
  <unicode hex="039B"/>
  <anchor x="287" y="0" name="bottom"/>
  <anchor x="279" y="682" name="top"/>
  <outline>
    <contour>
      <point x="298" y="682" type="line"/>
      <point x="260" y="682" type="line"/>
      <point x="25" y="0" type="line"/>
      <point x="56" y="0" type="line"/>
      <point x="279" y="657" type="line"/>
      <point x="500" y="0" type="line"/>
      <point x="533" y="0" type="line"/>
    </contour>
  </outline>
</glyph>
<glyph name="gamma" format="2">
  <advance width="445"/>
  <unicode hex="03B3"/>
  <anchor x="222.5" y="-193" name="bottom"/>
  <anchor x="222.5" y="520" name="top"/>
  <outline>
    <contour>
      <point x="44" y="525" type="curve"/>
      <point x="15" y="516" type="line"/>
      <point x="74.95" y="436.067"/>
      <point x="132.903" y="298.23"/>
      <point x="207" y="11" type="curve"/>
      <point x="179" y="-71"/>
      <point x="179" y="-125"/>
      <point x="204" y="-198" type="curve"/>
      <point x="229" y="-195" type="line"/>
      <point x="208" y="-116"/>
      <point x="212" y="-61"/>
      <point x="241" y="17" type="curve" smooth="yes"/>
      <point x="425" y="518" type="line"/>
      <point x="393" y="526" type="line"/>
      <point x="224" y="47" type="line"/>
      <point x="157" y="330"/>
      <point x="97" y="456"/>
    </contour>
  </outline>
</glyph>
<glyph name="iota" format="2">
  <advance width="258"/>
  <unicode hex="03B9"/>
  <anchor x="129" y="0" name="bottom"/>
  <anchor x="125" y="520" name="top"/>
  <outline>
    <contour>
      <point x="140" y="520" type="line"/>
      <point x="110" y="520" type="line"/>
      <point x="110" y="110" type="line" smooth="yes"/>
      <point x="110" y="43"/>
      <point x="128" y="13"/>
      <point x="179" y="-5" type="curve"/>
      <point x="188" y="21" type="line"/>
      <point x="154" y="34"/>
      <point x="140" y="54"/>
      <point x="140" y="110" type="curve" smooth="yes"/>
    </contour>
  </outline>
</glyph>
<glyph name="nu" format="2">
  <advance width="445"/>
  <unicode hex="03BD"/>
  <anchor x="222.5" y="0" name="bottom"/>
  <anchor x="222.5" y="520" name="top"/>
  <outline>
    <contour>
      <point x="44" y="525" type="curve"/>
      <point x="15" y="516" type="line"/>
      <point x="75" y="436"/>
      <point x="132" y="292"/>
      <point x="200" y="0" type="curve"/>
      <point x="236" y="0" type="line"/>
      <point x="425" y="518" type="line"/>
      <point x="395" y="525" type="line"/>
      <point x="219" y="26" type="line"/>
      <point x="156" y="314"/>
      <point x="98" y="455"/>
    </contour>
  </outline>
</glyph>
<glyph name="KaiSymbol" format="2">
  <advance width="547"/>
  <unicode hex="03CF"/>
  <anchor x="273.5" y="-193" name="bottom"/>
  <anchor x="290" y="682" name="top"/>
  <outline>
    <contour>
      <point x="484" y="29" type="line"/>
      <point x="484" y="0" type="line"/>
      <point x="537" y="0" type="line"/>
      <point x="537" y="29" type="line"/>
    </contour>
    <component base="Kappa"/>
    <component base="hookHELPER.case" xOffset="303"/>
  </outline>
</glyph>
<glyph name="KoppaArchaic" format="2">
  <advance width="690"/>
  <unicode hex="03D8"/>
  <anchor x="345" y="-193" name="bottom"/>
  <anchor x="430" y="0" name="ogonek"/>
  <anchor x="345" y="682" name="top"/>
  <anchor x="103" y="682" name="topleft"/>
  <anchor x="536" y="682" name="topright"/>
  <outline>
    <contour>
      <point x="329" y="-193" type="line"/>
      <point x="361" y="-193" type="line"/>
      <point x="361" y="0" type="line"/>
      <point x="329" y="0" type="line"/>
    </contour>
    <component base="O"/>
  </outline>
</glyph>
<glyph name="Digamma" format="2">
  <advance width="528"/>
  <unicode hex="03DC"/>
  <anchor x="136" y="0" name="bottom"/>
  <anchor x="161" y="0" name="bottomright"/>
  <anchor x="329" y="682" name="top"/>
  <outline>
    <contour>
      <point x="425" y="323" type="curve"/>
      <point x="436" y="348" type="line"/>
      <point x="412" y="360"/>
      <point x="389" y="367"/>
      <point x="357" y="367" type="curve" smooth="yes"/>
      <point x="138" y="367" type="line"/>
      <point x="138" y="338" type="line"/>
      <point x="355" y="338" type="line" smooth="yes"/>
      <point x="383" y="338"/>
      <point x="403" y="332"/>
    </contour>
    <component base="Gamma"/>
  </outline>
</glyph>
<glyph name="digamma" format="2">
  <advance width="420"/>
  <unicode hex="03DD"/>
  <anchor x="210" y="-193" name="bottom"/>
  <anchor x="210" y="520" name="top"/>
  <outline>
    <contour>
      <point x="223" y="520" type="line" smooth="yes"/>
      <point x="156" y="520"/>
      <point x="110" y="476"/>
      <point x="110" y="401" type="curve" smooth="yes"/>
      <point x="110" y="-199" type="line"/>
      <point x="140" y="-193" type="line"/>
      <point x="140" y="400" type="line" smooth="yes"/>
      <point x="140" y="465"/>
      <point x="177" y="492"/>
      <point x="223" y="492" type="curve" smooth="yes"/>
      <point x="405" y="492" type="line"/>
      <point x="405" y="520" type="line"/>
    </contour>
    <contour>
      <point x="360" y="196" type="curve"/>
      <point x="371" y="221" type="line"/>
      <point x="347" y="233"/>
      <point x="324" y="240"/>
      <point x="292" y="240" type="curve" smooth="yes"/>
      <point x="133" y="240" type="line"/>
      <point x="133" y="211" type="line"/>
      <point x="290" y="211" type="line" smooth="yes"/>
      <point x="318" y="211"/>
      <point x="338" y="205"/>
    </contour>
  </outline>
</glyph>
<glyph name="Koppa" format="2">
  <advance width="442"/>
  <unicode hex="03DE"/>
  <anchor x="221" y="0" name="bottom"/>
  <anchor x="221" y="682" name="top"/>
  <outline>
    <contour>
      <point x="183" y="0" type="line"/>
      <point x="220" y="0" type="line"/>
      <point x="412" y="330" type="line"/>
      <point x="379" y="336" type="line"/>
    </contour>
    <contour>
      <point x="45" y="330" type="line"/>
      <point x="412" y="330" type="line"/>
      <point x="402" y="360" type="line"/>
      <point x="35" y="360" type="line"/>
    </contour>
    <contour>
      <point x="68" y="354" type="line"/>
      <point x="262" y="682" type="line"/>
      <point x="225" y="682" type="line"/>
      <point x="35" y="360" type="line"/>
    </contour>
  </outline>
</glyph>
<glyph name="Sampi" format="2">
  <advance width="540"/>
  <unicode hex="03E0"/>
  <anchor x="270" y="0" name="bottom"/>
  <anchor x="270" y="682" name="top"/>
  <outline>
    <contour>
      <point x="482" y="0" type="line"/>
      <point x="515" y="0" type="line"/>
      <point x="250" y="682" type="line"/>
      <point x="223" y="682" type="line"/>
      <point x="266" y="574" type="line"/>
    </contour>
    <contour>
      <point x="25" y="0" type="line"/>
      <point x="56" y="0" type="line"/>
      <point x="283" y="589" type="line"/>
      <point x="258" y="594" type="line"/>
    </contour>
    <contour>
      <point x="212" y="0" type="line"/>
      <point x="243" y="0" type="line"/>
      <point x="369" y="373" type="line"/>
      <point x="347" y="390" type="line"/>
    </contour>
  </outline>
</glyph>
<glyph name="kappaSymbol" format="2">
  <advance width="588"/>
  <unicode hex="03F0"/>
  <anchor x="294" y="0" name="bottom"/>
  <anchor x="294" y="520" name="top"/>
  <outline>
    <contour>
      <point x="152" y="-9" type="line"/>
      <point x="442" y="487" type="line"/>
      <point x="470" y="520" type="line"/>
      <point x="436" y="529" type="line"/>
      <point x="146" y="33" type="line"/>
      <point x="118" y="0" type="line"/>
    </contour>
    <contour>
      <point x="509" y="-6" type="curve"/>
      <point x="518" y="20" type="line"/>
      <point x="484" y="33"/>
      <point x="470" y="53"/>
      <point x="470" y="109" type="curve" smooth="yes"/>
      <point x="470" y="520" type="line"/>
      <point x="442" y="487" type="line"/>
      <point x="441" y="434"/>
      <point x="440" y="245"/>
      <point x="440" y="109" type="curve" smooth="yes"/>
      <point x="440" y="42"/>
      <point x="458" y="12"/>
    </contour>
    <contour>
      <point x="79" y="525" type="curve"/>
      <point x="70" y="499" type="line"/>
      <point x="104" y="486"/>
      <point x="118" y="466"/>
      <point x="118" y="410" type="curve" smooth="yes"/>
      <point x="118" y="0" type="line"/>
      <point x="146" y="33" type="line"/>
      <point x="147" y="86"/>
      <point x="148" y="274"/>
      <point x="148" y="410" type="curve" smooth="yes"/>
      <point x="148" y="477"/>
      <point x="130" y="507"/>
    </contour>
  </outline>
</glyph>
<glyph name="rhoStrokeSymbol" format="2">
  <advance width="560"/>
  <unicode hex="03FC"/>
  <anchor x="280" y="-193" name="bottom"/>
  <anchor x="295" y="520" name="top"/>
  <outline>
    <contour>
      <point x="30" y="-81" type="line"/>
      <point x="30" y="-108" type="line"/>
      <point x="105" y="-108" type="line"/>
      <point x="305" y="-108" type="line"/>
      <point x="305" y="-81" type="line"/>
    </contour>
    <component base="rho"/>
  </outline>
</glyph>
<glyph name="Tshe-cy" format="2">
  <advance width="687"/>
  <unicode hex="040B"/>
  <anchor x="395" y="0" name="bottom"/>
  <anchor x="642" y="0" name="bottomright"/>
  <anchor x="395" y="682" name="top"/>
  <outline>
    <contour>
      <point x="467" y="682" type="line"/>
      <point x="15" y="682" type="line"/>
      <point x="15" y="652" type="line"/>
      <point x="462" y="652" type="line"/>
    </contour>
    <component base="Shha-cy" xOffset="103"/>
  </outline>
</glyph>
<glyph name="Ge-cy" format="2">
  <advance width="508"/>
  <unicode hex="0413"/>
  <anchor x="136" y="0" name="bottom"/>
  <anchor x="161" y="0" name="bottomright"/>
  <anchor x="329" y="682" name="top"/>
  <outline>
    <contour>
      <point x="120" y="682" type="line"/>
      <point x="120" y="0" type="line"/>
      <point x="151" y="0" type="line"/>
      <point x="151" y="663" type="line"/>
    </contour>
    <contour>
      <point x="498" y="682" type="line"/>
      <point x="120" y="682" type="line"/>
      <point x="140" y="652" type="line"/>
      <point x="493" y="652" type="line"/>
    </contour>
  </outline>
</glyph>
<glyph name="De-cy" format="2">
  <advance width="592"/>
  <unicode hex="0414"/>
  <anchor x="503" y="0" name="_bottom"/>
  <anchor x="296" y="-193" name="bottom"/>
  <anchor x="296" y="682" name="top"/>
  <outline>
    <contour>
      <point x="472" y="682" type="line"/>
      <point x="178" y="682" type="line"/>
      <point x="141" y="383" type="line" smooth="yes"/>
      <point x="109" y="121"/>
      <point x="78" y="70"/>
      <point x="37" y="29" type="curve"/>
      <point x="37" y="0" type="line"/>
      <point x="472" y="0" type="line"/>
    </contour>
    <contour>
      <point x="441" y="653" type="line"/>
      <point x="441" y="29" type="line"/>
      <point x="68" y="29" type="line"/>
      <point x="110" y="71"/>
      <point x="141" y="133"/>
      <point x="174" y="384" type="curve" smooth="yes"/>
      <point x="207" y="653" type="line"/>
    </contour>
    <component base="descStraight-cy.case" xOffset="425"/>
    <component base="descStraight-cy.case" xScale="-1" xOffset="89"/>
  </outline>
</glyph>
<glyph name="Zhe-cy" format="2">
  <advance width="734"/>
  <unicode hex="0416"/>
  <anchor x="367" y="0" name="bottom"/>
  <anchor x="694" y="0" name="bottomright"/>
  <anchor x="367" y="682" name="top"/>
  <outline>
    <contour>
      <point x="704" y="682" type="line"/>
      <point x="671" y="682" type="line"/>
      <point x="485" y="374" type="line"/>
      <point x="382" y="374" type="line"/>
      <point x="382" y="682" type="line"/>
      <point x="352" y="682" type="line"/>
      <point x="352" y="374" type="line"/>
      <point x="249" y="374" type="line"/>
      <point x="65" y="682" type="line"/>
      <point x="30" y="682" type="line"/>
      <point x="222" y="361" type="line"/>
      <point x="15" y="0" type="line"/>
      <point x="49" y="0" type="line"/>
      <point x="248" y="346" type="line"/>
      <point x="352" y="346" type="line"/>
      <point x="352" y="0" type="line"/>
      <point x="382" y="0" type="line"/>
      <point x="382" y="346" type="line"/>
      <point x="485" y="346" type="line"/>
      <point x="684" y="0" type="line"/>
      <point x="719" y="0" type="line"/>
      <point x="511" y="361" type="line"/>
    </contour>
  </outline>
</glyph>
<glyph name="Ka-cy" format="2">
  <advance width="538"/>
  <unicode hex="041A"/>
  <anchor x="269" y="0" name="bottom"/>
  <anchor x="497" y="0" name="bottomright"/>
  <anchor x="309" y="682" name="top"/>
  <outline>
    <contour>
      <point x="508" y="682" type="line"/>
      <point x="474" y="682" type="line"/>
      <point x="272" y="374" type="line"/>
      <point x="151" y="374" type="line"/>
      <point x="151" y="682" type="line"/>
      <point x="120" y="682" type="line"/>
      <point x="120" y="0" type="line"/>
      <point x="151" y="0" type="line"/>
      <point x="151" y="346" type="line"/>
      <point x="271" y="346" type="line"/>
      <point x="487" y="0" type="line"/>
      <point x="523" y="0" type="line"/>
      <point x="298" y="361" type="line"/>
    </contour>
  </outline>
</glyph>
<glyph name="El-cy" format="2">
  <advance width="637"/>
  <unicode hex="041B"/>
  <anchor x="318.5" y="0" name="bottom"/>
  <anchor x="527" y="0" name="bottomright"/>
  <anchor x="318.5" y="682" name="top"/>
  <outline>
    <contour>
      <point x="517" y="682" type="line"/>
      <point x="181" y="682" type="line"/>
      <point x="197" y="653" type="line"/>
      <point x="486" y="653" type="line"/>
      <point x="486" y="0" type="line"/>
      <point x="517" y="0" type="line"/>
    </contour>
    <contour>
      <point x="181" y="682" type="line"/>
      <point x="131" y="290" type="line" smooth="yes"/>
      <point x="105" y="84"/>
      <point x="103" y="43"/>
      <point x="41" y="20" type="curve"/>
      <point x="50" y="-6" type="line"/>
      <point x="134" y="24"/>
      <point x="135" y="75"/>
      <point x="162" y="288" type="curve" smooth="yes"/>
      <point x="209" y="657" type="line"/>
    </contour>
  </outline>
</glyph>
<glyph name="Pe-cy" format="2">
  <advance width="657"/>
  <unicode hex="041F"/>
  <anchor x="328.5" y="0" name="bottom"/>
  <anchor x="547" y="0" name="bottomright"/>
  <anchor x="328.5" y="682" name="top"/>
  <outline>
    <contour>
      <point x="537" y="682" type="line"/>
      <point x="120" y="682" type="line"/>
      <point x="120" y="0" type="line"/>
      <point x="151" y="0" type="line"/>
      <point x="151" y="653" type="line"/>
      <point x="506" y="653" type="line"/>
      <point x="506" y="0" type="line"/>
      <point x="537" y="0" type="line"/>
    </contour>
  </outline>
</glyph>
<glyph name="U-cy" format="2">
  <advance width="501"/>
  <unicode hex="0423"/>
  <anchor x="250.5" y="0" name="bottom"/>
  <anchor x="261" y="682" name="top"/>
  <outline>
    <contour>
      <point x="491" y="682" type="line"/>
      <point x="458" y="682" type="line"/>
      <point x="269" y="218" type="line"/>
      <point x="49" y="682" type="line"/>
      <point x="15" y="682" type="line"/>
      <point x="249" y="194" type="line"/>
      <point x="257" y="194" type="line"/>
      <point x="202" y="59"/>
      <point x="181" y="40"/>
      <point x="98" y="15" type="curve"/>
      <point x="106" y="-10" type="line"/>
      <point x="209" y="20"/>
      <point x="227" y="49"/>
      <point x="287" y="193" type="curve" smooth="yes"/>
    </contour>
  </outline>
</glyph>
<glyph name="Sha-cy" format="2">
  <advance width="900"/>
  <unicode hex="0428"/>
  <anchor x="450" y="0" name="bottom"/>
  <anchor x="790" y="0" name="bottomright"/>
  <anchor x="450" y="682" name="top"/>
  <outline>
    <contour>
      <point x="780" y="682" type="line"/>
      <point x="749" y="682" type="line"/>
      <point x="749" y="29" type="line"/>
      <point x="465" y="29" type="line"/>
      <point x="465" y="682" type="line"/>
      <point x="435" y="682" type="line"/>
      <point x="435" y="29" type="line"/>
      <point x="151" y="29" type="line"/>
      <point x="151" y="682" type="line"/>
      <point x="120" y="682" type="line"/>
      <point x="120" y="0" type="line"/>
      <point x="780" y="0" type="line"/>
    </contour>
  </outline>
</glyph>
<glyph name="Hardsign-cy" format="2">
  <advance width="592"/>
  <unicode hex="042A"/>
  <anchor x="316.5" y="0.0" name="bottom"/>
  <anchor x="316.5" y="682.0" name="top"/>
  <outline>
    <contour>
      <point x="161" y="653" type="line"/>
      <point x="192" y="682" type="line"/>
      <point x="0" y="682" type="line"/>
      <point x="0" y="653" type="line"/>
    </contour>
    <component base="Softsign-cy" xOffset="41"/>
  </outline>
</glyph>
<glyph name="Yeru-cy" format="2">
  <advance width="779"/>
  <unicode hex="042B"/>
  <anchor x="389.5" y="0" name="bottom"/>
  <anchor x="395" y="682" name="top"/>
  <outline>
    <contour>
      <point x="659" y="682" type="line"/>
      <point x="628" y="682" type="line"/>
      <point x="628" y="0" type="line"/>
      <point x="659" y="0" type="line"/>
    </contour>
    <contour>
      <point x="120" y="682" type="line"/>
      <point x="120" y="0" type="line"/>
      <point x="266" y="0" type="line" smooth="yes"/>
      <point x="401" y="0"/>
      <point x="496" y="64"/>
      <point x="496" y="213" type="curve" smooth="yes"/>
      <point x="496" y="348"/>
      <point x="410" y="412"/>
      <point x="266" y="412" type="curve" smooth="yes"/>
      <point x="144" y="412" type="line"/>
      <point x="144" y="383" type="line"/>
      <point x="269" y="383" type="line" smooth="yes"/>
      <point x="391" y="383"/>
      <point x="464" y="331"/>
      <point x="464" y="214" type="curve" smooth="yes"/>
      <point x="464" y="83"/>
      <point x="389" y="29"/>
      <point x="274" y="29" type="curve" smooth="yes"/>
      <point x="151" y="29" type="line"/>
      <point x="151" y="682" type="line"/>
    </contour>
  </outline>
</glyph>
<glyph name="de-cy" format="2">
  <advance width="546"/>
  <unicode hex="0434"/>
  <anchor x="460" y="0" name="_bottom"/>
  <anchor x="273" y="-193" name="bottom"/>
  <anchor x="273" y="520" name="top"/>
  <outline>
    <contour>
      <point x="40" y="28" type="curve"/>
      <point x="67" y="25" type="line"/>
      <point x="118" y="53"/>
      <point x="150" y="92"/>
      <point x="165" y="317" type="curve" smooth="yes"/>
      <point x="177" y="492" type="line"/>
      <point x="399" y="492" type="line"/>
      <point x="399" y="28" type="line"/>
      <point x="40" y="28" type="line"/>
      <point x="40" y="0" type="line"/>
      <point x="431" y="0" type="line"/>
      <point x="431" y="520" type="line"/>
      <point x="147" y="520" type="line"/>
      <point x="133" y="314" type="line" smooth="yes"/>
      <point x="118" y="94"/>
      <point x="89" y="64"/>
    </contour>
    <component base="descStraight-cy" xOffset="382"/>
    <component base="descStraight-cy" xScale="-1" xOffset="104"/>
  </outline>
</glyph>
<glyph name="ii-cy" format="2">
  <advance width="586"/>
  <unicode hex="0438"/>
  <anchor x="293" y="0" name="bottom"/>
  <anchor x="481" y="0" name="bottomright"/>
  <anchor x="293" y="520" name="top"/>
  <outline>
    <contour>
      <point x="471" y="520" type="line"/>
      <point x="437" y="520" type="line"/>
      <point x="143" y="37" type="line"/>
      <point x="145" y="86"/>
      <point x="145" y="119"/>
      <point x="145" y="156" type="curve" smooth="yes"/>
      <point x="145" y="520" type="line"/>
      <point x="115" y="520" type="line"/>
      <point x="115" y="0" type="line"/>
      <point x="150" y="0" type="line"/>
      <point x="444" y="483" type="line"/>
      <point x="442" y="452"/>
      <point x="441" y="428"/>
      <point x="441" y="394" type="curve" smooth="yes"/>
      <point x="441" y="0" type="line"/>
      <point x="471" y="0" type="line"/>
    </contour>
  </outline>
</glyph>
<glyph name="en-cy" format="2">
  <advance width="584"/>
  <unicode hex="043D"/>
  <anchor x="292" y="0" name="bottom"/>
  <anchor x="479" y="0" name="bottomright"/>
  <anchor x="292" y="520" name="top"/>
  <outline>
    <contour>
      <point x="439" y="0" type="line"/>
      <point x="469" y="0" type="line"/>
      <point x="469" y="520" type="line"/>
      <point x="439" y="520" type="line"/>
      <point x="439" y="286" type="line"/>
      <point x="145" y="286" type="line"/>
      <point x="145" y="520" type="line"/>
      <point x="115" y="520" type="line"/>
      <point x="115" y="0" type="line"/>
      <point x="145" y="0" type="line"/>
      <point x="145" y="258" type="line"/>
      <point x="439" y="258" type="line"/>
    </contour>
  </outline>
</glyph>
<glyph name="pe-cy" format="2">
  <advance width="581"/>
  <unicode hex="043F"/>
  <anchor x="290.5" y="0" name="bottom"/>
  <anchor x="476" y="0" name="bottomright"/>
  <anchor x="290.5" y="520" name="top"/>
  <outline>
    <contour>
      <point x="436" y="0" type="line"/>
      <point x="466" y="0" type="line"/>
      <point x="466" y="520" type="line"/>
      <point x="115" y="520" type="line"/>
      <point x="115" y="0" type="line"/>
      <point x="145" y="0" type="line"/>
      <point x="145" y="492" type="line"/>
      <point x="436" y="492" type="line"/>
    </contour>
  </outline>
</glyph>
<glyph name="te-cy" format="2">
  <advance width="418"/>
  <unicode hex="0442"/>
  <anchor x="209" y="0" name="bottom"/>
  <anchor x="235" y="0" name="bottomright"/>
  <anchor x="209" y="520" name="top"/>
  <outline>
    <contour>
      <point x="408" y="520" type="line"/>
      <point x="10" y="520" type="line"/>
      <point x="10" y="491" type="line"/>
      <point x="195" y="491" type="line"/>
      <point x="195" y="0" type="line"/>
      <point x="225" y="0" type="line"/>
      <point x="225" y="491" type="line"/>
      <point x="404" y="491" type="line"/>
    </contour>
  </outline>
</glyph>
<glyph name="sha-cy" format="2">
  <advance width="796"/>
  <unicode hex="0448"/>
  <anchor x="398" y="0" name="bottom"/>
  <anchor x="691" y="0" name="bottomright"/>
  <anchor x="398" y="520" name="top"/>
  <outline>
    <contour>
      <point x="681" y="520" type="line"/>
      <point x="651" y="520" type="line"/>
      <point x="651" y="28" type="line"/>
      <point x="412" y="28" type="line"/>
      <point x="412" y="520" type="line"/>
      <point x="383" y="520" type="line"/>
      <point x="383" y="28" type="line"/>
      <point x="145" y="28" type="line"/>
      <point x="145" y="520" type="line"/>
      <point x="115" y="520" type="line"/>
      <point x="115" y="0" type="line"/>
      <point x="681" y="0" type="line"/>
    </contour>
  </outline>
</glyph>
<glyph name="hardsign-cy" format="2">
  <advance width="533"/>
  <unicode hex="044A"/>
  <anchor x="287.5" y="0.0" name="bottom"/>
  <anchor x="287.5" y="520.0" name="top"/>
  <outline>
    <contour>
      <point x="157" y="492" type="line"/>
      <point x="177" y="520" type="line"/>
      <point x="4" y="520" type="line"/>
      <point x="4" y="492" type="line"/>
    </contour>
    <component base="softsign-cy" xOffset="42"/>
  </outline>
</glyph>
<glyph name="Eiotified-cy" format="2">
  <advance width="743"/>
  <unicode hex="0464"/>
  <anchor x="371.5" y="0" name="bottom"/>
  <anchor x="371.5" y="682" name="top"/>
  <outline>
    <contour>
      <point x="151" y="682" type="line"/>
      <point x="120" y="682" type="line"/>
      <point x="120" y="0" type="line"/>
      <point x="151" y="0" type="line"/>
      <point x="151" y="341" type="line"/>
      <point x="279" y="341" type="line"/>
      <point x="279" y="370" type="line"/>
      <point x="151" y="370" type="line"/>
    </contour>
    <component base="E-cy" xOffset="191"/>
  </outline>
</glyph>
<glyph name="eiotified-cy" format="2">
  <advance width="679"/>
  <unicode hex="0465"/>
  <anchor x="339.5" y="0" name="bottom"/>
  <anchor x="339.5" y="520" name="top"/>
  <outline>
    <contour>
      <point x="145" y="520" type="line"/>
      <point x="115" y="520" type="line"/>
      <point x="115" y="0" type="line"/>
      <point x="145" y="0" type="line"/>
      <point x="145" y="254" type="line"/>
      <point x="303" y="254" type="line"/>
      <point x="304" y="282" type="line"/>
      <point x="145" y="282" type="line"/>
    </contour>
    <component base="e-cy" xOffset="206"/>
  </outline>
</glyph>
<glyph name="Yuslittleiotified-cy" format="2">
  <advance width="767"/>
  <unicode hex="0468"/>
  <anchor x="383.5" y="0" name="bottom"/>
  <anchor x="383.5" y="682" name="top"/>
  <outline>
    <contour>
      <point x="365" y="333" type="line"/>
      <point x="365" y="362" type="line"/>
      <point x="151" y="362" type="line"/>
      <point x="151" y="682" type="line"/>
      <point x="120" y="682" type="line"/>
      <point x="120" y="0" type="line"/>
      <point x="151" y="0" type="line"/>
      <point x="151" y="333" type="line"/>
    </contour>
    <component base="Yuslittle-cy" xOffset="201"/>
  </outline>
</glyph>
<glyph name="yuslittleiotified-cy" format="2">
  <advance width="658"/>
  <unicode hex="0469"/>
  <anchor x="329" y="0" name="bottom"/>
  <anchor x="329" y="520" name="top"/>
  <outline>
    <contour>
      <point x="435" y="520" type="line"/>
      <point x="399" y="520" type="line"/>
      <point x="196" y="0" type="line"/>
      <point x="226" y="0" type="line"/>
      <point x="417" y="494" type="line"/>
      <point x="606" y="0" type="line"/>
      <point x="638" y="0" type="line"/>
    </contour>
    <contour>
      <point x="404" y="257" type="line"/>
      <point x="404" y="0" type="line"/>
      <point x="432" y="0" type="line"/>
      <point x="432" y="257" type="line"/>
    </contour>
    <contour>
      <point x="530" y="275" type="line"/>
      <point x="145" y="275" type="line"/>
      <point x="145" y="520" type="line"/>
      <point x="115" y="520" type="line"/>
      <point x="115" y="0" type="line"/>
      <point x="145" y="0" type="line"/>
      <point x="145" y="247" type="line"/>
      <point x="530" y="247" type="line"/>
    </contour>
  </outline>
</glyph>
<glyph name="yusbig-cy" format="2">
  <advance width="633"/>
  <unicode hex="046B"/>
  <anchor x="316.5" y="0" name="bottom"/>
  <anchor x="316.5" y="520" name="top"/>
  <outline>
    <contour>
      <point x="35" y="0" type="line"/>
      <point x="66" y="0" type="line"/>
      <point x="198" y="264" type="line"/>
      <point x="303" y="264" type="line"/>
      <point x="303" y="0" type="line"/>
      <point x="331" y="0" type="line"/>
      <point x="331" y="264" type="line"/>
      <point x="434" y="264" type="line"/>
      <point x="566" y="0" type="line"/>
      <point x="598" y="0" type="line"/>
      <point x="452" y="290" type="line"/>
      <point x="181" y="290" type="line"/>
    </contour>
    <contour>
      <point x="301" y="268" type="line"/>
      <point x="333" y="268" type="line"/>
      <point x="507" y="497" type="line"/>
      <point x="507" y="520" type="line"/>
      <point x="490" y="520" type="line"/>
      <point x="318" y="290" type="line"/>
      <point x="143" y="520" type="line"/>
      <point x="126" y="520" type="line"/>
      <point x="126" y="497" type="line"/>
    </contour>
    <contour>
      <point x="137" y="495" type="line"/>
      <point x="501" y="495" type="line"/>
      <point x="501" y="520" type="line"/>
      <point x="137" y="520" type="line"/>
    </contour>
  </outline>
</glyph>
<glyph name="Gheupturn-cy" format="2">
  <advance width="508"/>
  <unicode hex="0490"/>
  <anchor x="136" y="0" name="bottom"/>
  <anchor x="161" y="0" name="bottomright"/>
  <anchor x="329" y="682" name="top"/>
  <outline>
    <contour>
      <point x="468" y="671" type="line"/>
      <point x="498" y="682" type="line"/>
      <point x="498" y="790" type="line"/>
      <point x="468" y="790" type="line"/>
    </contour>
    <component base="Ge-cy"/>
  </outline>
</glyph>
<glyph name="gheupturn-cy" format="2">
  <advance width="418"/>
  <unicode hex="0491"/>
  <anchor x="130" y="0" name="bottom"/>
  <anchor x="155" y="0" name="bottomright"/>
  <anchor x="262" y="520" name="top"/>
  <outline>
    <contour>
      <point x="379" y="510" type="line"/>
      <point x="408" y="520" type="line"/>
      <point x="408" y="629" type="line"/>
      <point x="379" y="629" type="line"/>
    </contour>
    <component base="ge-cy"/>
  </outline>
</glyph>
<glyph name="Ghestroke-cy" format="2">
  <advance width="511"/>
  <unicode hex="0492"/>
  <anchor x="139" y="0" name="bottom"/>
  <anchor x="164" y="0" name="bottomright"/>
  <anchor x="332" y="682" name="top"/>
  <outline>
    <contour>
      <point x="328" y="392" type="line"/>
      <point x="25" y="392" type="line"/>
      <point x="25" y="364" type="line"/>
      <point x="123" y="364" type="line"/>
      <point x="328" y="364" type="line"/>
    </contour>
    <component base="Ge-cy" xOffset="3"/>
  </outline>
</glyph>
<glyph name="ghestroke-cy" format="2">
  <advance width="420"/>
  <unicode hex="0493"/>
  <anchor x="132" y="0" name="bottom"/>
  <anchor x="157" y="0" name="bottomright"/>
  <anchor x="264" y="520" name="top"/>
  <outline>
    <contour>
      <point x="281" y="298" type="line"/>
      <point x="117" y="298" type="line"/>
      <point x="50" y="298" type="line"/>
      <point x="50" y="271" type="line"/>
      <point x="281" y="271" type="line"/>
    </contour>
    <component base="ge-cy" xOffset="2"/>
  </outline>
</glyph>
<glyph name="Kaverticalstroke-cy" format="2">
  <advance width="543"/>
  <unicode hex="049C"/>
  <anchor x="269" y="0" name="bottom"/>
  <anchor x="269" y="682" name="top"/>
  <outline>
    <contour>
      <point x="508" y="682" type="line"/>
      <point x="474" y="682" type="line"/>
      <point x="272" y="374" type="line"/>
      <point x="151" y="374" type="line"/>
      <point x="151" y="682" type="line"/>
      <point x="120" y="682" type="line"/>
      <point x="120" y="0" type="line"/>
      <point x="151" y="0" type="line"/>
      <point x="151" y="346" type="line"/>
      <point x="271" y="346" type="line"/>
      <point x="487" y="0" type="line"/>
      <point x="523" y="0" type="line"/>
      <point x="298" y="361" type="line"/>
    </contour>
    <contour>
      <point x="239" y="561" type="line"/>
      <point x="211" y="561" type="line"/>
      <point x="211" y="159" type="line"/>
      <point x="239" y="159" type="line"/>
    </contour>
  </outline>
</glyph>
<glyph name="Kastroke-cy" format="2">
  <advance width="538"/>
  <unicode hex="049E"/>
  <anchor x="269" y="0" name="bottom"/>
  <anchor x="497" y="0" name="bottomright"/>
  <anchor x="309" y="682" name="top"/>
  <outline>
    <contour>
      <point x="25" y="557" type="line"/>
      <point x="286" y="557" type="line"/>
      <point x="286" y="586" type="line"/>
      <point x="120" y="586" type="line"/>
      <point x="25" y="586" type="line"/>
    </contour>
    <component base="Ka-cy"/>
  </outline>
</glyph>
<glyph name="Kabashkir-cy" format="2">
  <advance width="579"/>
  <unicode hex="04A0"/>
  <anchor x="310" y="0" name="bottom"/>
  <anchor x="538" y="0" name="bottomright"/>
  <anchor x="350" y="682" name="top"/>
  <outline>
    <contour>
      <point x="182" y="682" type="line"/>
      <point x="0" y="682" type="line"/>
      <point x="0" y="654" type="line"/>
      <point x="171" y="654" type="line"/>
    </contour>
    <component base="Ka-cy" xOffset="41"/>
  </outline>
</glyph>
<glyph name="kabashkir-cy" format="2">
  <advance width="524"/>
  <unicode hex="04A1"/>
  <anchor x="283" y="0" name="bottom"/>
  <anchor x="487" y="0" name="bottomright"/>
  <anchor x="319" y="520" name="top"/>
  <outline>
    <contour>
      <point x="157" y="492" type="line"/>
      <point x="187" y="520" type="line"/>
      <point x="4" y="520" type="line"/>
      <point x="4" y="492" type="line"/>
    </contour>
    <component base="ka-cy" xOffset="42"/>
  </outline>
</glyph>
<glyph name="Enghe-cy" format="2">
  <advance width="705"/>
  <unicode hex="04A4"/>
  <anchor x="331" y="0" name="bottom"/>
  <anchor x="552" y="0" name="bottomright"/>
  <anchor x="329" y="341" name="center"/>
  <anchor x="329" y="682" name="top"/>
  <anchor x="90" y="682" name="topleft"/>
  <outline>
    <contour>
      <point x="521" y="682" type="line"/>
      <point x="532" y="654" type="line"/>
      <point x="700" y="654" type="line"/>
      <point x="705" y="682" type="line"/>
    </contour>
    <component base="H"/>
  </outline>
</glyph>
<glyph name="enghe-cy" format="2">
  <advance width="628"/>
  <unicode hex="04A5"/>
  <anchor x="292" y="0" name="bottom"/>
  <anchor x="479" y="0" name="bottomright"/>
  <anchor x="292" y="520" name="top"/>
  <outline>
    <contour>
      <point x="469" y="492" type="line"/>
      <point x="620" y="492" type="line"/>
      <point x="624" y="520" type="line"/>
      <point x="439" y="520" type="line"/>
    </contour>
    <component base="en-cy"/>
  </outline>
</glyph>
<glyph name="Pemiddlehook-cy" format="2">
  <advance width="974"/>
  <unicode hex="04A6"/>
  <anchor x="487" y="-193" name="bottom"/>
  <anchor x="547" y="0" name="bottomright"/>
  <anchor x="487" y="682" name="top"/>
  <outline>
    <contour>
      <point x="734" y="424" type="curve" smooth="yes"/>
      <point x="646" y="424"/>
      <point x="586" y="387"/>
      <point x="535" y="327" type="curve"/>
      <point x="535" y="287" type="line"/>
      <point x="592" y="360"/>
      <point x="652" y="395"/>
      <point x="733" y="395" type="curve" smooth="yes"/>
      <point x="843" y="395"/>
      <point x="888" y="332"/>
      <point x="888" y="241" type="curve" smooth="yes"/>
      <point x="888" y="0" type="line"/>
      <point x="919" y="0" type="line"/>
      <point x="919" y="243" type="line" smooth="yes"/>
      <point x="919" y="354"/>
      <point x="858" y="424"/>
    </contour>
    <component base="Pe-cy"/>
    <component base="hookHELPER.case" xOffset="685"/>
  </outline>
</glyph>
<glyph name="ustrait-cy" format="2">
  <advance width="452"/>
  <unicode hex="04AF"/>
  <anchor x="226" y="-193" name="bottom"/>
  <anchor x="226" y="520" name="top"/>
  <outline>
    <contour>
      <point x="432" y="520" type="line"/>
      <point x="399" y="520" type="line"/>
      <point x="230" y="53" type="line"/>
      <point x="54" y="520" type="line"/>
      <point x="20" y="520" type="line"/>
      <point x="216" y="19" type="line"/>
      <point x="216" y="-199" type="line"/>
      <point x="245" y="-193" type="line"/>
      <point x="245" y="19" type="line"/>
    </contour>
  </outline>
</glyph>
<glyph name="Ustraitstroke-cy" format="2">
  <advance width="500"/>
  <unicode hex="04B0"/>
  <anchor x="252" y="0" name="bottom"/>
  <anchor x="250" y="682" name="top"/>
  <anchor x="15" y="682" name="topleft"/>
  <outline>
    <contour>
      <point x="389" y="288" type="line"/>
      <point x="236" y="288" type="line"/>
      <point x="114" y="288" type="line"/>
      <point x="114" y="259" type="line"/>
      <point x="267" y="259" type="line"/>
      <point x="389" y="259" type="line"/>
    </contour>
    <component base="Y"/>
  </outline>
</glyph>
<glyph name="ustraitstroke-cy" format="2">
  <advance width="452"/>
  <unicode hex="04B1"/>
  <anchor x="226" y="-193" name="bottom"/>
  <anchor x="226" y="520" name="top"/>
  <outline>
    <contour>
      <point x="216" y="5" type="line"/>
      <point x="245" y="5" type="line"/>
      <point x="351" y="5" type="line"/>
      <point x="351" y="32" type="line"/>
      <point x="110" y="32" type="line"/>
      <point x="110" y="5" type="line"/>
    </contour>
    <component base="ustrait-cy"/>
  </outline>
</glyph>
<glyph name="Tetse-cy" format="2">
  <advance width="765"/>
  <unicode hex="04B4"/>
  <anchor x="382.5" y="-193" name="bottom"/>
  <anchor x="647" y="0" name="bottomright"/>
  <anchor x="382.5" y="682" name="top"/>
  <outline>
    <contour>
      <point x="467" y="682" type="line"/>
      <point x="15" y="682" type="line"/>
      <point x="15" y="654" type="line"/>
      <point x="223" y="654" type="line"/>
      <point x="254" y="654" type="line"/>
      <point x="462" y="654" type="line"/>
    </contour>
    <component base="Tse-cy" xOffset="103"/>
  </outline>
</glyph>
<glyph name="tetse-cy" format="2">
  <advance width="659"/>
  <unicode hex="04B5"/>
  <anchor x="329.5" y="-193" name="bottom"/>
  <anchor x="549" y="0" name="bottomright"/>
  <anchor x="329.5" y="520" name="top"/>
  <outline>
    <contour>
      <point x="408" y="520" type="line"/>
      <point x="10" y="520" type="line"/>
      <point x="10" y="492" type="line"/>
      <point x="195" y="492" type="line"/>
      <point x="225" y="492" type="line"/>
      <point x="404" y="492" type="line"/>
    </contour>
    <component base="tse-cy" xOffset="80"/>
  </outline>
</glyph>
<glyph name="Cheverticalstroke-cy" format="2">
  <advance width="579"/>
  <unicode hex="04B8"/>
  <anchor x="289.5" y="0.0" name="bottom"/>
  <anchor x="408" y="0" name="bottomleft"/>
  <anchor x="469" y="0" name="bottomright"/>
  <anchor x="255" y="682" name="top"/>
  <outline>
    <contour>
      <point x="270" y="517" type="line"/>
      <point x="240" y="517" type="line"/>
      <point x="240" y="115" type="line"/>
      <point x="270" y="115" type="line"/>
    </contour>
    <component base="Che-cy"/>
  </outline>
</glyph>
<glyph name="cheverticalstroke-cy" format="2">
  <advance width="531"/>
  <unicode hex="04B9"/>
  <anchor x="265.5" y="0.0" name="bottom"/>
  <anchor x="366" y="0" name="bottomleft"/>
  <anchor x="426" y="0" name="bottomright"/>
  <anchor x="241" y="520" name="top"/>
  <outline>
    <contour>
      <point x="247" y="375" type="line"/>
      <point x="219" y="375" type="line"/>
      <point x="219" y="96" type="line"/>
      <point x="247" y="96" type="line"/>
    </contour>
    <component base="che-cy"/>
  </outline>
</glyph>
<glyph name="Kahook-cy" format="2">
  <advance width="563"/>
  <unicode hex="04C3"/>
  <anchor x="281.5" y="-193" name="bottom"/>
  <anchor x="281.5" y="682" name="top"/>
  <outline>
    <contour>
      <point x="120" y="0" type="line"/>
      <point x="151" y="0" type="line"/>
      <point x="151" y="336" type="line"/>
      <point x="284" y="336" type="line"/>
      <point x="298" y="351" type="line"/>
      <point x="508" y="682" type="line"/>
      <point x="474" y="682" type="line"/>
      <point x="272" y="364" type="line"/>
      <point x="151" y="364" type="line"/>
      <point x="151" y="682" type="line"/>
      <point x="120" y="682" type="line"/>
    </contour>
    <contour>
      <point x="471" y="0" type="line"/>
      <point x="502" y="0" type="line"/>
      <point x="502" y="162" type="line" smooth="yes"/>
      <point x="502" y="314"/>
      <point x="438" y="364"/>
      <point x="281" y="364" type="curve"/>
      <point x="284" y="336" type="line"/>
      <point x="426" y="336"/>
      <point x="471" y="292"/>
      <point x="471" y="160" type="curve" smooth="yes"/>
    </contour>
    <component base="hookHELPER.case" xOffset="268"/>
  </outline>
</glyph>
<glyph name="kahook-cy" format="2">
  <advance width="498"/>
  <unicode hex="04C4"/>
  <anchor x="249" y="-193" name="bottom"/>
  <anchor x="249" y="520" name="top"/>
  <outline>
    <contour>
      <point x="427" y="520" type="line"/>
      <point x="393" y="520" type="line"/>
      <point x="238" y="285" type="line"/>
      <point x="145" y="285" type="line"/>
      <point x="145" y="520" type="line"/>
      <point x="115" y="520" type="line"/>
      <point x="115" y="0" type="line"/>
      <point x="145" y="0" type="line"/>
      <point x="145" y="259" type="line"/>
      <point x="256" y="259" type="line"/>
      <point x="263" y="274" type="line"/>
    </contour>
    <contour>
      <point x="257" y="286" type="curve"/>
      <point x="256" y="259" type="line"/>
      <point x="377" y="259"/>
      <point x="398" y="205"/>
      <point x="398" y="125" type="curve" smooth="yes"/>
      <point x="398" y="0" type="line"/>
      <point x="428" y="0" type="line"/>
      <point x="428" y="126" type="line" smooth="yes"/>
      <point x="428" y="228"/>
      <point x="388" y="286"/>
    </contour>
    <component base="hookHELPER" xOffset="194"/>
  </outline>
</glyph>
<glyph name="Gestrokehook-cy" format="2">
  <advance width="511"/>
  <unicode hex="04FA"/>
  <anchor x="139" y="0" name="bottom"/>
  <anchor x="164" y="0" name="bottomright"/>
  <anchor x="332" y="682" name="top"/>
  <outline>
    <contour>
      <point x="133" y="29" type="line"/>
      <point x="133" y="0" type="line"/>
      <point x="215" y="0" type="line"/>
      <point x="215" y="29" type="line"/>
    </contour>
    <component base="Ghestroke-cy"/>
    <component base="hookHELPER.case" xOffset="-19"/>
  </outline>
</glyph>
<glyph name="gestrokehook-cy" format="2">
  <advance width="420"/>
  <unicode hex="04FB"/>
  <anchor x="210" y="-193" name="bottom"/>
  <anchor x="157" y="0" name="bottomright"/>
  <anchor x="210" y="520" name="top"/>
  <outline>
    <contour>
      <point x="146" y="28" type="line"/>
      <point x="146" y="0" type="line"/>
      <point x="208" y="0" type="line"/>
      <point x="208" y="28" type="line"/>
    </contour>
    <component base="ghestroke-cy"/>
    <component base="hookHELPER" xOffset="-26"/>
  </outline>
</glyph>
<glyph name="Hahook-cy" format="2">
  <advance width="506"/>
  <unicode hex="04FC"/>
  <anchor x="244.5" y="0.0" name="bottom"/>
  <anchor x="453" y="0" name="bottomright"/>
  <anchor x="244.5" y="682.0" name="top"/>
  <outline>
    <contour>
      <point x="454" y="29" type="line"/>
      <point x="454" y="0" type="line"/>
      <point x="506" y="0" type="line"/>
      <point x="506" y="29" type="line"/>
    </contour>
    <component base="hookHELPER.case" xOffset="272"/>
    <component base="X"/>
  </outline>
</glyph>
<glyph name="Hastroke-cy" format="2">
  <advance width="489"/>
  <unicode hex="04FE"/>
  <anchor x="244.5" y="0" name="bottom"/>
  <anchor x="244.5" y="682" name="top"/>
  <outline>
    <contour>
      <point x="72" y="682" type="line"/>
      <point x="37" y="682" type="line"/>
      <point x="225" y="369" type="line"/>
      <point x="243" y="350" type="line"/>
      <point x="443" y="0" type="line"/>
      <point x="478" y="0" type="line"/>
      <point x="261" y="370" type="line"/>
      <point x="243" y="388" type="line"/>
    </contour>
    <contour>
      <point x="446" y="682" type="line"/>
      <point x="412" y="682" type="line"/>
      <point x="243" y="388" type="line"/>
      <point x="225" y="369" type="line"/>
      <point x="15" y="0" type="line"/>
      <point x="49" y="0" type="line"/>
      <point x="243" y="350" type="line"/>
      <point x="261" y="370" type="line"/>
    </contour>
    <component base="hyphen" xScale="1.5" xOffset="-55" yOffset="58"/>
  </outline>
</glyph>
<glyph name="lha-cy" format="2">
  <advance width="661"/>
  <unicode hex="0515"/>
  <anchor x="330.5" y="0" name="bottom"/>
  <anchor x="636" y="0" name="bottomright"/>
  <anchor x="330.5" y="520" name="top"/>
  <outline>
    <contour>
      <point x="141" y="520" type="line"/>
      <point x="160" y="493" type="line"/>
      <point x="281" y="493" type="line"/>
      <point x="281" y="520" type="line"/>
    </contour>
    <contour>
      <point x="170" y="493" type="line"/>
      <point x="141" y="520" type="line"/>
      <point x="136" y="286" type="line" smooth="yes"/>
      <point x="132" y="80"/>
      <point x="115" y="41"/>
      <point x="52" y="19" type="curve"/>
      <point x="61" y="-6" type="line"/>
      <point x="146" y="23"/>
      <point x="162" y="67"/>
      <point x="166" y="284" type="curve" smooth="yes"/>
    </contour>
    <component base="x" xOffset="224"/>
  </outline>
</glyph>
<glyph name="rha-cy" format="2">
  <advance width="746"/>
  <unicode hex="0517"/>
  <anchor x="373" y="-193" name="bottom"/>
  <anchor x="373" y="520" name="top"/>
  <outline>
    <contour>
      <point x="708" y="520" type="line"/>
      <point x="674" y="520" type="line"/>
      <point x="493" y="279" type="line"/>
      <point x="493" y="255" type="line"/>
      <point x="686" y="0" type="line"/>
      <point x="721" y="0" type="line"/>
      <point x="519" y="269" type="line"/>
    </contour>
    <component base="p"/>
  </outline>
</glyph>
<glyph name="Aleutka-cy" format="2">
  <advance width="538"/>
  <unicode hex="051E"/>
  <anchor x="269" y="0" name="bottom"/>
  <anchor x="497" y="0" name="bottomright"/>
  <anchor x="309" y="682" name="top"/>
  <outline>
    <contour>
      <point x="252" y="607" type="line"/>
      <point x="511" y="426" type="line"/>
      <point x="526" y="446" type="line"/>
      <point x="267" y="627" type="line"/>
    </contour>
    <component base="Ka-cy"/>
  </outline>
</glyph>
<glyph name="aleutka-cy" format="2">
  <advance width="482"/>
  <unicode hex="051F"/>
  <anchor x="241" y="0" name="bottom"/>
  <anchor x="445" y="0" name="bottomright"/>
  <anchor x="241" y="520" name="top"/>
  <outline>
    <contour>
      <point x="202" y="457" type="line"/>
      <point x="430" y="298" type="line"/>
      <point x="444" y="317" type="line"/>
      <point x="216" y="476" type="line"/>
    </contour>
    <component base="ka-cy"/>
  </outline>
</glyph>
<glyph name="Elmiddlehook-cy" format="2">
  <advance width="954"/>
  <unicode hex="0520"/>
  <anchor x="477" y="-193" name="bottom"/>
  <anchor x="527" y="0" name="bottomright"/>
  <anchor x="477" y="682" name="top"/>
  <outline>
    <contour>
      <point x="714" y="424" type="curve" smooth="yes"/>
      <point x="626" y="424"/>
      <point x="566" y="387"/>
      <point x="515" y="327" type="curve"/>
      <point x="515" y="287" type="line"/>
      <point x="572" y="360"/>
      <point x="632" y="395"/>
      <point x="713" y="395" type="curve" smooth="yes"/>
      <point x="823" y="395"/>
      <point x="868" y="332"/>
      <point x="868" y="241" type="curve" smooth="yes"/>
      <point x="868" y="0" type="line"/>
      <point x="899" y="0" type="line"/>
      <point x="899" y="243" type="line" smooth="yes"/>
      <point x="899" y="354"/>
      <point x="838" y="424"/>
    </contour>
    <component base="El-cy"/>
    <component base="hookHELPER.case" xOffset="665"/>
  </outline>
</glyph>
<glyph name="Dzzhe-cy" format="2">
  <advance width="834"/>
  <unicode hex="052A"/>
  <anchor x="11" y="0" name="_bottom"/>
  <anchor x="417" y="-193" name="bottom"/>
  <anchor x="417" y="682" name="top"/>
  <outline>
    <contour>
      <point x="178" y="682" type="line"/>
      <point x="141" y="383" type="line" smooth="yes"/>
      <point x="109" y="121"/>
      <point x="78" y="70"/>
      <point x="37" y="29" type="curve"/>
      <point x="37" y="0" type="line"/>
      <point x="390" y="0" type="line"/>
      <point x="390" y="682" type="line"/>
    </contour>
    <contour>
      <point x="68" y="29" type="line"/>
      <point x="110" y="71"/>
      <point x="141" y="133"/>
      <point x="174" y="384" type="curve" smooth="yes"/>
      <point x="207" y="653" type="line"/>
      <point x="359" y="653" type="line"/>
      <point x="359" y="29" type="line"/>
    </contour>
    <contour>
      <point x="369" y="346" type="line"/>
      <point x="545" y="346" type="line"/>
      <point x="545" y="374" type="line"/>
      <point x="369" y="374" type="line"/>
    </contour>
    <contour>
      <point x="489" y="0" type="line"/>
      <point x="520" y="0" type="line"/>
      <point x="520" y="346" type="line"/>
      <point x="597" y="346" type="line"/>
      <point x="783" y="0" type="line"/>
      <point x="819" y="0" type="line"/>
      <point x="624" y="361" type="line"/>
      <point x="804" y="682" type="line"/>
      <point x="770" y="682" type="line"/>
      <point x="598" y="374" type="line"/>
      <point x="520" y="374" type="line"/>
      <point x="520" y="682" type="line"/>
      <point x="489" y="682" type="line"/>
    </contour>
    <contour>
      <point x="405" y="29" type="line"/>
      <point x="405" y="0" type="line"/>
      <point x="509" y="0" type="line"/>
      <point x="509" y="29" type="line"/>
    </contour>
    <component base="descStraight-cy.case" xScale="-1" xOffset="89"/>
    <component base="descStraight-cy.case" xOffset="345"/>
  </outline>
</glyph>
<glyph name="dzzhe-cy" format="2">
  <advance width="753"/>
  <unicode hex="052B"/>
  <anchor x="371" y="0" name="_bottom"/>
  <anchor x="376.5" y="-193" name="bottom"/>
  <anchor x="376.5" y="520" name="top"/>
  <outline>
    <contour>
      <point x="42" y="0" type="line"/>
      <point x="345" y="0" type="line"/>
      <point x="345" y="520" type="line"/>
      <point x="149" y="520" type="line"/>
      <point x="135" y="314" type="line" smooth="yes"/>
      <point x="120" y="94"/>
      <point x="91" y="64"/>
      <point x="42" y="28" type="curve"/>
      <point x="69" y="25" type="line"/>
      <point x="120" y="53"/>
      <point x="152" y="92"/>
      <point x="167" y="317" type="curve" smooth="yes"/>
      <point x="179" y="492" type="line"/>
      <point x="313" y="492" type="line"/>
      <point x="313" y="28" type="line"/>
      <point x="42" y="28" type="line"/>
    </contour>
    <contour>
      <point x="325" y="264" type="line"/>
      <point x="450" y="264" type="line"/>
      <point x="450" y="290" type="line"/>
      <point x="325" y="290" type="line"/>
    </contour>
    <contour>
      <point x="436" y="0" type="line"/>
      <point x="466" y="0" type="line"/>
      <point x="466" y="264" type="line"/>
      <point x="504" y="264" type="line"/>
      <point x="693" y="0" type="line"/>
      <point x="728" y="0" type="line"/>
      <point x="529" y="279" type="line"/>
      <point x="698" y="520" type="line"/>
      <point x="664" y="520" type="line"/>
      <point x="504" y="290" type="line"/>
      <point x="466" y="290" type="line"/>
      <point x="466" y="520" type="line"/>
      <point x="436" y="520" type="line"/>
    </contour>
    <contour>
      <point x="355" y="0" type="line"/>
      <point x="460" y="0" type="line"/>
      <point x="460" y="28" type="line"/>
      <point x="355" y="28" type="line"/>
    </contour>
    <component base="descStraight-cy" xOffset="293"/>
    <component base="descStraight-cy" xScale="-1" xOffset="104"/>
  </outline>
</glyph>
<glyph name="dche-cy" format="2">
  <advance width="606"/>
  <unicode hex="052D"/>
  <anchor x="81" y="0" name="_bottom"/>
  <anchor x="303" y="-193" name="bottom"/>
  <anchor x="303" y="520" name="top"/>
  <outline>
    <contour>
      <point x="95" y="28" type="curve"/>
      <point x="123" y="25" type="line"/>
      <point x="172" y="55"/>
      <point x="224" y="98"/>
      <point x="239" y="317" type="curve" smooth="yes"/>
      <point x="251" y="492" type="line"/>
      <point x="459" y="492" type="line"/>
      <point x="459" y="28" type="line"/>
      <point x="95" y="28" type="line"/>
      <point x="95" y="0" type="line"/>
      <point x="491" y="0" type="line"/>
      <point x="491" y="520" type="line"/>
      <point x="221" y="520" type="line"/>
      <point x="207" y="314" type="line" smooth="yes"/>
      <point x="192" y="94"/>
      <point x="138" y="64"/>
    </contour>
    <contour>
      <point x="462" y="285" type="line"/>
      <point x="462" y="313" type="line"/>
      <point x="237" y="313" type="line" smooth="yes"/>
      <point x="134" y="313"/>
      <point x="112" y="340"/>
      <point x="112" y="426" type="curve" smooth="yes"/>
      <point x="112" y="520" type="line"/>
      <point x="82" y="520" type="line"/>
      <point x="82" y="422" type="line" smooth="yes"/>
      <point x="82" y="318"/>
      <point x="128" y="285"/>
      <point x="232" y="285" type="curve" smooth="yes"/>
    </contour>
    <component base="descStraight-cy" xScale="-1" xOffset="159"/>
    <component base="descStraight-cy" xOffset="442"/>
  </outline>
</glyph>
<glyph name="uni1D6C" format="2">
  <advance width="638"/>
  <unicode hex="1D6C"/>
  <anchor x="371" y="0" name="bottom"/>
  <anchor x="367" y="734" name="top"/>
  <outline>
    <contour>
      <point x="287" y="588" type="curve" smooth="yes"/>
      <point x="327" y="588"/>
      <point x="348" y="611"/>
      <point x="373" y="647" type="curve"/>
      <point x="353" y="659" type="line"/>
      <point x="332" y="634"/>
      <point x="319" y="618"/>
      <point x="287" y="618" type="curve" smooth="yes"/>
      <point x="239" y="618"/>
      <point x="192" y="673"/>
      <point x="134" y="673" type="curve"/>
      <point x="92" y="673"/>
      <point x="70" y="650"/>
      <point x="45" y="614" type="curve"/>
      <point x="65" y="602" type="line"/>
      <point x="86" y="627"/>
      <point x="100" y="643"/>
      <point x="134" y="643" type="curve"/>
      <point x="181" y="643"/>
      <point x="233" y="588"/>
    </contour>
    <component base="b" xOffset="73"/>
  </outline>
</glyph>
<glyph name="uni1D70" format="2">
  <advance width="566"/>
  <unicode hex="1D70"/>
  <anchor x="278" y="0" name="bottom"/>
  <anchor x="286" y="520" name="top"/>
  <anchor x="94" y="520" name="topleft"/>
  <outline>
    <contour>
      <point x="40" y="238" type="line"/>
      <point x="61" y="263"/>
      <point x="74" y="279"/>
      <point x="106" y="279" type="curve"/>
      <point x="106" y="309" type="line"/>
      <point x="66" y="309"/>
      <point x="45" y="286"/>
      <point x="20" y="250" type="curve"/>
    </contour>
    <contour>
      <point x="432" y="227" type="curve"/>
      <point x="432" y="255" type="line"/>
      <point x="332" y="272"/>
      <point x="232" y="289"/>
      <point x="132" y="306" type="curve"/>
      <point x="132" y="278" type="line"/>
      <point x="232" y="261"/>
      <point x="332" y="244"/>
    </contour>
    <contour>
      <point x="460" y="225" type="line"/>
      <point x="500" y="225"/>
      <point x="521" y="248"/>
      <point x="546" y="284" type="curve"/>
      <point x="526" y="296" type="line"/>
      <point x="505" y="271"/>
      <point x="492" y="255"/>
      <point x="460" y="255" type="curve"/>
    </contour>
    <component base="n" xOffset="-11"/>
  </outline>
</glyph>
<glyph name="gravemacron" format="2">
  <unicode hex="1DC5"/>
  <outline>
    <contour>
      <point x="169" y="620" type="line"/>
      <point x="186" y="641" type="line"/>
      <point x="50" y="746" type="line"/>
      <point x="30" y="722" type="line"/>
    </contour>
    <contour>
      <point x="169" y="620" type="line"/>
      <point x="341" y="620" type="line"/>
      <point x="341" y="649" type="line"/>
      <point x="169" y="649" type="line"/>
    </contour>
  </outline>
</glyph>
<glyph name="acutemacron" format="2">
  <unicode hex="1DC7"/>
  <anchor x="186" y="520" name="_top"/>
  <anchor x="188" y="725" name="top"/>
  <outline>
    <contour>
      <point x="44" y="604" type="line"/>
      <point x="184" y="696" type="line"/>
      <point x="169" y="725" type="line"/>
      <point x="30" y="623" type="line"/>
    </contour>
    <contour>
      <point x="169" y="696" type="line"/>
      <point x="341" y="696" type="line"/>
      <point x="341" y="725" type="line"/>
      <point x="169" y="725" type="line"/>
    </contour>
  </outline>
</glyph>
<glyph name="psiliperispomeni" format="2">
  <advance width="333"/>
  <unicode hex="1FCF"/>
  <anchor x="167" y="520" name="_top"/>
  <anchor x="288" y="801" name="_topleft"/>
  <anchor x="169" y="808" name="top"/>
  <outline>
    <contour>
      <point x="134" y="573" type="line"/>
      <point x="157" y="573" type="line"/>
      <point x="180" y="623" type="line" smooth="yes"/>
      <point x="194" y="654"/>
      <point x="199" y="664"/>
      <point x="199" y="680" type="curve" smooth="yes"/>
      <point x="199" y="697"/>
      <point x="188" y="711"/>
      <point x="166" y="711" type="curve" smooth="yes"/>
      <point x="147" y="711"/>
      <point x="134" y="697"/>
      <point x="134" y="680" type="curve" smooth="yes"/>
      <point x="134" y="664"/>
      <point x="141" y="655"/>
      <point x="157" y="650" type="curve"/>
    </contour>
    <component base="perispomeni" yOffset="63"/>
  </outline>
</glyph>
<glyph name="dasiavaria" format="2">
  <advance width="254"/>
  <unicode hex="1FDD"/>
  <anchor x="140" y="520" name="_top"/>
  <outline>
    <contour>
      <point x="170" y="765" type="line"/>
      <point x="133" y="751" type="line"/>
      <point x="196" y="590" type="line"/>
      <point x="220" y="598" type="line"/>
    </contour>
    <component base="dasia"/>
  </outline>
</glyph>
<glyph name="dasiaoxia" format="2">
  <advance width="254"/>
  <unicode hex="1FDE"/>
  <anchor x="120" y="520" name="_top"/>
  <outline>
    <contour>
      <point x="183" y="765" type="line"/>
      <point x="133" y="598" type="line"/>
      <point x="157" y="590" type="line"/>
      <point x="220" y="751" type="line"/>
    </contour>
    <component base="dasia"/>
  </outline>
</glyph>
<glyph name="daggerdbl" format="2">
  <advance width="508"/>
  <unicode hex="2021"/>
  <outline>
    <contour>
      <point x="450" y="213" type="line"/>
      <point x="58" y="213" type="line"/>
      <point x="58" y="186" type="line"/>
      <point x="450" y="186" type="line"/>
    </contour>
    <component base="dagger" xOffset="2"/>
  </outline>
</glyph>
<glyph name="fraction" format="2">
  <advance width="100"/>
  <unicode hex="2044"/>
  <outline>
    <contour>
      <point x="242" y="745" type="line"/>
      <point x="-167" y="-53" type="line"/>
      <point x="-142" y="-65" type="line"/>
      <point x="267" y="733" type="line"/>
    </contour>
  </outline>
</glyph>
<glyph name="drachma" format="2">
  <advance width="1118"/>
  <unicode hex="20AF"/>
  <anchor x="838" y="-193" name="bottom"/>
  <anchor x="853" y="520" name="top"/>
  <outline>
    <contour>
      <point x="97" y="0" type="line"/>
      <point x="274" y="0" type="line" smooth="yes"/>
      <point x="408" y="0"/>
      <point x="569" y="61"/>
      <point x="569" y="338" type="curve" smooth="yes"/>
      <point x="569" y="607"/>
      <point x="417" y="662"/>
      <point x="271" y="662" type="curve" smooth="yes"/>
      <point x="162" y="662" type="line"/>
      <point x="162" y="634" type="line"/>
      <point x="268" y="634" type="line" smooth="yes"/>
      <point x="397" y="634"/>
      <point x="537" y="594"/>
      <point x="537" y="338" type="curve" smooth="yes"/>
      <point x="537" y="87"/>
      <point x="402" y="29"/>
      <point x="275" y="29" type="curve" smooth="yes"/>
      <point x="116" y="29" type="line"/>
    </contour>
    <contour>
      <point x="97" y="0" type="line"/>
      <point x="140" y="29" type="line"/>
      <point x="188" y="53"/>
      <point x="211" y="77"/>
      <point x="211" y="144" type="curve" smooth="yes"/>
      <point x="211" y="584" type="line"/>
      <point x="181" y="585" type="line"/>
      <point x="181" y="142" type="line" smooth="yes"/>
      <point x="181" y="81"/>
      <point x="156" y="58"/>
      <point x="97" y="28" type="curve"/>
    </contour>
    <component base="rho" xOffset="558"/>
    <component base="hookaboveHELPER2.case" yOffset="-20"/>
  </outline>
</glyph>
<glyph name="rupeeIndian" format="2">
  <advance width="517"/>
  <unicode hex="20B9"/>
  <outline>
    <contour>
      <point x="70" y="290" type="line"/>
      <point x="212" y="290" type="line"/>
      <point x="322" y="306"/>
      <point x="398" y="355"/>
      <point x="398" y="478" type="curve" smooth="yes"/>
      <point x="398" y="560"/>
      <point x="366" y="614"/>
      <point x="295" y="634" type="curve"/>
      <point x="487" y="634" type="line"/>
      <point x="487" y="662" type="line"/>
      <point x="70" y="662" type="line"/>
      <point x="70" y="634" type="line"/>
      <point x="166" y="633" type="line" smooth="yes"/>
      <point x="313" y="631"/>
      <point x="366" y="579"/>
      <point x="366" y="478" type="curve" smooth="yes"/>
      <point x="366" y="367"/>
      <point x="296" y="319"/>
      <point x="176" y="319" type="curve" smooth="yes"/>
      <point x="70" y="319" type="line"/>
    </contour>
    <contour>
      <point x="394" y="0" type="line"/>
      <point x="433" y="0" type="line"/>
      <point x="239" y="302" type="line"/>
      <point x="205" y="297" type="line"/>
    </contour>
    <contour>
      <point x="70" y="492" type="line"/>
      <point x="487" y="492" type="line"/>
      <point x="487" y="521" type="line"/>
      <point x="70" y="521" type="line"/>
    </contour>
  </outline>
</glyph>
<glyph name="liraTurkish" format="2">
  <advance width="496"/>
  <unicode hex="20BA"/>
  <outline>
    <contour>
      <point x="130" y="0" type="line"/>
      <point x="130" y="662" type="line"/>
      <point x="160" y="662" type="line"/>
      <point x="160" y="29" type="line"/>
      <point x="248" y="29" type="line" smooth="yes"/>
      <point x="368" y="29"/>
      <point x="421" y="65"/>
      <point x="461" y="153" type="curve"/>
      <point x="486" y="143" type="line"/>
      <point x="448" y="50"/>
      <point x="388" y="0"/>
      <point x="248" y="0" type="curve"/>
    </contour>
    <contour>
      <point x="72" y="198" type="line"/>
      <point x="60" y="223" type="line"/>
      <point x="329" y="349" type="line"/>
      <point x="341" y="323" type="line"/>
    </contour>
    <contour>
      <point x="72" y="325" type="line"/>
      <point x="60" y="351" type="line"/>
      <point x="329" y="477" type="line"/>
      <point x="341" y="451" type="line"/>
    </contour>
  </outline>
</glyph>
<glyph name="numero" format="2">
  <advance width="1084"/>
  <unicode hex="2116"/>
  <anchor x="332" y="0" name="bottom"/>
  <anchor x="339" y="682" name="top"/>
  <outline>
    <contour>
      <point x="832" y="682" type="curve" smooth="yes"/>
      <point x="729" y="682"/>
      <point x="661" y="607"/>
      <point x="661" y="479" type="curve" smooth="yes"/>
      <point x="661" y="352"/>
      <point x="726" y="276"/>
      <point x="831" y="276" type="curve" smooth="yes"/>
      <point x="935" y="276"/>
      <point x="1003" y="351"/>
      <point x="1003" y="481" type="curve" smooth="yes"/>
      <point x="1003" y="613"/>
      <point x="937" y="682"/>
    </contour>
    <contour>
      <point x="833" y="654" type="curve" smooth="yes"/>
      <point x="921" y="654"/>
      <point x="972" y="595"/>
      <point x="972" y="481" type="curve" smooth="yes"/>
      <point x="972" y="364"/>
      <point x="918" y="304"/>
      <point x="832" y="304" type="curve" smooth="yes"/>
      <point x="746" y="304"/>
      <point x="693" y="366"/>
      <point x="693" y="479" type="curve" smooth="yes"/>
      <point x="693" y="596"/>
      <point x="748" y="654"/>
    </contour>
    <component base="N"/>
    <component base="minus" xOffset="587" yOffset="-316"/>
  </outline>
</glyph>
<glyph name="estimated" format="2">
  <advance width="946"/>
  <unicode hex="212E"/>
  <outline>
    <contour>
      <point x="473" y="713" type="curve" smooth="yes"/>
      <point x="252" y="713"/>
      <point x="71" y="556"/>
      <point x="71" y="345" type="curve" smooth="yes"/>
      <point x="71" y="144"/>
      <point x="244" y="-13"/>
      <point x="470" y="-13" type="curve" smooth="yes"/>
      <point x="611" y="-13"/>
      <point x="706" y="29"/>
      <point x="786" y="116" type="curve"/>
      <point x="772" y="116" type="line"/>
      <point x="707" y="48"/>
      <point x="623" y="-3"/>
      <point x="470" y="-3" type="curve" smooth="yes"/>
      <point x="356" y="-3"/>
      <point x="262" y="40"/>
      <point x="219" y="79" type="curve"/>
      <point x="219" y="350" type="line"/>
      <point x="875" y="350" type="line"/>
      <point x="870" y="559"/>
      <point x="687" y="713"/>
    </contour>
    <contour>
      <point x="473" y="703" type="curve" smooth="yes"/>
      <point x="590" y="703"/>
      <point x="673" y="660"/>
      <point x="728" y="615" type="curve"/>
      <point x="728" y="361" type="line"/>
      <point x="219" y="361" type="line"/>
      <point x="219" y="617" type="line"/>
      <point x="271" y="661"/>
      <point x="356" y="703"/>
    </contour>
  </outline>
</glyph>
<glyph name="notequal" format="2">
  <advance width="488"/>
  <unicode hex="2260"/>
  <outline>
    <contour>
      <point x="357" y="543" type="line"/>
      <point x="108" y="124" type="line"/>
      <point x="131" y="111" type="line"/>
      <point x="380" y="530" type="line"/>
    </contour>
    <component base="equal"/>
  </outline>
</glyph>
<glyph name="deleteLeftKey" format="2">
  <advance width="1460"/>
  <unicode hex="232B"/>
  <outline>
    <contour>
      <point x="480" y="-12" type="line"/>
      <point x="1310" y="-12" type="line"/>
      <point x="1340" y="-12"/>
      <point x="1360" y="8"/>
      <point x="1360" y="38" type="curve" smooth="yes"/>
      <point x="1360" y="663" type="line" smooth="yes"/>
      <point x="1360" y="693"/>
      <point x="1340" y="713"/>
      <point x="1310" y="713" type="curve" smooth="yes"/>
      <point x="480" y="713" type="line"/>
      <point x="100" y="352" type="line"/>
    </contour>
    <contour>
      <point x="669" y="201" type="line"/>
      <point x="823" y="355" type="line"/>
      <point x="669" y="508" type="line"/>
      <point x="736" y="577" type="line"/>
      <point x="890" y="422" type="line"/>
      <point x="1044" y="577" type="line"/>
      <point x="1111" y="508" type="line"/>
      <point x="957" y="355" type="line"/>
      <point x="1111" y="201" type="line"/>
      <point x="1044" y="134" type="line"/>
      <point x="890" y="288" type="line"/>
      <point x="736" y="134" type="line"/>
    </contour>
  </outline>
</glyph>
<glyph name="whiteVerticalRect" format="2">
  <advance width="589"/>
  <unicode hex="25AF"/>
  <outline>
    <contour>
      <point x="493" y="689" type="line"/>
      <point x="96" y="689" type="line"/>
      <point x="96" y="0" type="line"/>
      <point x="493" y="0" type="line"/>
    </contour>
    <contour>
      <point x="401" y="597" type="line"/>
      <point x="401" y="92" type="line"/>
      <point x="188" y="92" type="line"/>
      <point x="188" y="597" type="line"/>
    </contour>
  </outline>
</glyph>
<glyph name="tdiagonalstroke" format="2">
  <advance width="325"/>
  <unicode hex="2C66"/>
  <anchor x="162.5" y="0" name="bottom"/>
  <anchor x="125" y="650" name="top"/>
  <outline>
    <contour>
      <point x="226" y="-10" type="curve" smooth="yes"/>
      <point x="267" y="-10"/>
      <point x="301" y="2"/>
      <point x="330" y="20" type="curve"/>
      <point x="316" y="43" type="line"/>
      <point x="290" y="28"/>
      <point x="262" y="18"/>
      <point x="228" y="18" type="curve" smooth="yes"/>
      <point x="169" y="18"/>
      <point x="140" y="53"/>
      <point x="140" y="120" type="curve" smooth="yes"/>
      <point x="140" y="653" type="line"/>
      <point x="110" y="650" type="line"/>
      <point x="110" y="118" type="line" smooth="yes"/>
      <point x="110" y="32"/>
      <point x="155" y="-10"/>
    </contour>
    <contour>
      <point x="25" y="493" type="line"/>
      <point x="278" y="493" type="line"/>
      <point x="283" y="520" type="line"/>
      <point x="25" y="520" type="line"/>
    </contour>
    <contour>
      <point x="58" y="-70" type="line"/>
      <point x="261" y="672" type="line"/>
      <point x="240" y="678" type="line"/>
      <point x="36" y="-64" type="line"/>
    </contour>
  </outline>
</glyph>
<glyph name="vrighthook" format="2">
  <advance width="471"/>
  <unicode hex="2C71"/>
  <anchor x="235.5" y="0" name="bottom"/>
  <anchor x="235.5" y="520" name="top"/>
  <outline>
    <contour>
      <point x="419" y="485" type="line" smooth="yes"/>
      <point x="433" y="525"/>
      <point x="445" y="541"/>
      <point x="474" y="541" type="curve" smooth="yes"/>
      <point x="486" y="541"/>
      <point x="499" y="538"/>
      <point x="511" y="533" type="curve"/>
      <point x="520" y="557" type="line"/>
      <point x="507" y="563"/>
      <point x="491" y="568"/>
      <point x="473" y="568" type="curve" smooth="yes"/>
      <point x="430" y="568"/>
      <point x="408" y="544"/>
      <point x="389" y="488" type="curve" smooth="yes"/>
      <point x="230" y="26" type="line"/>
      <point x="54" y="520" type="line"/>
      <point x="20" y="520" type="line"/>
      <point x="211" y="0" type="line"/>
      <point x="251" y="0" type="line"/>
    </contour>
  </outline>
</glyph>
<glyph name="Saltillo" format="2">
  <advance width="193"/>
  <unicode hex="A78B"/>
  <outline>
    <contour>
      <point x="84" y="359" type="line"/>
      <point x="109" y="359" type="line"/>
      <point x="113" y="682" type="line"/>
      <point x="80" y="682" type="line"/>
    </contour>
  </outline>
</glyph>
<glyph name="uniA7AD" format="2">
  <advance width="488"/>
  <unicode hex="A7AD"/>
  <anchor x="309" y="0" name="bottom"/>
  <anchor x="380" y="354" name="center"/>
  <anchor x="164" y="682" name="top"/>
  <anchor x="209" y="682" name="topright"/>
  <outline>
    <contour>
      <point x="148" y="276" type="curve"/>
      <point x="177" y="277" type="line"/>
      <point x="219" y="278"/>
      <point x="247" y="281"/>
      <point x="298" y="289" type="curve"/>
      <point x="295" y="314" type="line"/>
      <point x="246" y="307"/>
      <point x="220" y="304"/>
      <point x="177" y="303" type="curve"/>
      <point x="148" y="303" type="line"/>
      <point x="89" y="303"/>
      <point x="56" y="320"/>
      <point x="56" y="365" type="curve" smooth="yes"/>
      <point x="56" y="403"/>
      <point x="83" y="421"/>
      <point x="120" y="421" type="curve" smooth="yes"/>
      <point x="132" y="421"/>
      <point x="141" y="420"/>
      <point x="149" y="419" type="curve"/>
      <point x="149" y="446" type="line"/>
      <point x="141" y="447"/>
      <point x="133" y="448"/>
      <point x="120" y="448" type="curve" smooth="yes"/>
      <point x="67" y="448"/>
      <point x="25" y="416"/>
      <point x="25" y="364" type="curve" smooth="yes"/>
      <point x="25" y="305"/>
      <point x="70" y="276"/>
    </contour>
    <component base="L" xOffset="28"/>
  </outline>
</glyph>
<glyph name="Hturned.sc.ss02" format="2">
  <advance width="511"/>
  <anchor x="255.5" y="0" name="bottom"/>
  <anchor x="255.5" y="560" name="top"/>
  <outline>
    <contour>
      <point x="361" y="0" type="line"/>
      <point x="391" y="0" type="line"/>
      <point x="391" y="560" type="line"/>
      <point x="361" y="560" type="line"/>
      <point x="361" y="257" type="line"/>
      <point x="89" y="257" type="line"/>
      <point x="89" y="560" type="line"/>
      <point x="60" y="560" type="line"/>
      <point x="60" y="229" type="line"/>
      <point x="361" y="229" type="line"/>
    </contour>
  </outline>
</glyph>
<glyph name="Hturned.ss02" format="2">
  <advance width="573"/>
  <anchor x="286.5" y="0" name="bottom"/>
  <anchor x="286.5" y="682" name="top"/>
  <outline>
    <contour>
      <point x="422" y="0" type="line"/>
      <point x="453" y="0" type="line"/>
      <point x="453" y="682" type="line"/>
      <point x="422" y="682" type="line"/>
      <point x="422" y="294" type="line"/>
      <point x="91" y="294" type="line"/>
      <point x="91" y="682" type="line"/>
      <point x="60" y="682" type="line"/>
      <point x="60" y="265" type="line"/>
      <point x="422" y="265" type="line"/>
    </contour>
  </outline>
</glyph>
<glyph name="Iotaafrican.sc" format="2">
  <advance width="325"/>
  <anchor x="162.5" y="0" name="bottom"/>
  <anchor x="125" y="560" name="top"/>
  <outline>
    <contour>
      <point x="140" y="560" type="line"/>
      <point x="110" y="560" type="line"/>
      <point x="110" y="191" type="line"/>
      <point x="140" y="191" type="line"/>
    </contour>
    <component base="hookHELPER" xScale="-1" xOffset="344" yOffset="191"/>
  </outline>
</glyph>
<glyph name="Rsmall.sc" format="2">
  <advance width="521"/>
  <anchor x="260.5" y="-193" name="bottom"/>
  <anchor x="260.5" y="560" name="top"/>
  <outline>
    <contour>
      <point x="144" y="154" type="line"/>
      <point x="289" y="154" type="line"/>
      <point x="385" y="166"/>
      <point x="452" y="207"/>
      <point x="452" y="305" type="curve" smooth="yes"/>
      <point x="452" y="400"/>
      <point x="391" y="453"/>
      <point x="254" y="453" type="curve" smooth="yes"/>
      <point x="141" y="453" type="line"/>
      <point x="141" y="427" type="line"/>
      <point x="251" y="427" type="line" smooth="yes"/>
      <point x="375" y="427"/>
      <point x="420" y="384"/>
      <point x="420" y="305" type="curve" smooth="yes"/>
      <point x="420" y="218"/>
      <point x="360" y="180"/>
      <point x="261" y="180" type="curve" smooth="yes"/>
      <point x="144" y="180" type="line"/>
    </contour>
    <contour>
      <point x="120" y="0" type="line"/>
      <point x="150" y="0" type="line"/>
      <point x="150" y="560" type="line"/>
      <point x="120" y="560" type="line"/>
    </contour>
    <contour>
      <point x="444" y="-107" type="line"/>
      <point x="481" y="-107" type="line"/>
      <point x="315" y="164" type="line"/>
      <point x="282" y="160" type="line"/>
    </contour>
  </outline>
</glyph>
<glyph name="TseHelper-cy" format="2">
  <advance width="654"/>
  <anchor x="327" y="0" name="bottom"/>
  <anchor x="544" y="0" name="bottomright"/>
  <outline>
    <contour>
      <point x="534" y="0" type="line"/>
      <point x="534" y="682" type="line"/>
      <point x="503" y="682" type="line"/>
      <point x="503" y="29" type="line"/>
      <point x="151" y="29" type="line"/>
      <point x="151" y="682" type="line"/>
      <point x="120" y="682" type="line"/>
      <point x="120" y="0" type="line"/>
    </contour>
  </outline>
</glyph>
<glyph name="acute.case.loclPLK" format="2">
  <advance width="188"/>
  <anchor x="60" y="682" name="_top"/>
  <outline>
    <contour>
      <point x="129" y="894" type="line"/>
      <point x="30" y="742" type="line"/>
      <point x="48" y="730" type="line"/>
      <point x="158" y="875" type="line"/>
    </contour>
  </outline>
</glyph>
<glyph name="acute.loclPLK" format="2">
  <advance width="190"/>
  <anchor x="60" y="520" name="_top"/>
  <outline>
    <contour>
      <point x="131" y="751" type="line"/>
      <point x="30" y="590" type="line"/>
      <point x="48" y="578" type="line"/>
      <point x="160" y="732" type="line"/>
    </contour>
  </outline>
</glyph>
<glyph name="acute.sc.loclPLK" format="2">
  <advance width="190"/>
  <anchor x="60" y="560" name="_top"/>
  <outline>
    <contour>
      <point x="131" y="791" type="line"/>
      <point x="30" y="630" type="line"/>
      <point x="48" y="618" type="line"/>
      <point x="160" y="772" type="line"/>
    </contour>
  </outline>
</glyph>
<glyph name="acutedbl" format="2">
  <advance width="196"/>
  <anchor x="49" y="520" name="_top"/>
  <anchor x="29" y="520" name="_topright"/>
  <outline>
    <contour>
      <point x="130" y="783" type="line"/>
      <point x="30" y="661" type="line"/>
      <point x="47" y="646" type="line"/>
      <point x="154" y="761" type="line"/>
    </contour>
  </outline>
</glyph>
<glyph name="caron.alt" format="2">
  <advance width="180"/>
  <anchor x="23" y="682" name="_topright"/>
  <outline>
    <contour>
      <point x="82" y="685" type="line"/>
      <point x="64" y="537" type="line"/>
      <point x="85" y="534" type="line"/>
      <point x="115" y="681" type="line"/>
    </contour>
  </outline>
</glyph>
<glyph name="caroncomb.case" format="2">
  <anchor x="163" y="682" name="_top"/>
  <anchor x="165" y="870" name="top"/>
  <outline>
    <contour>
      <point x="280" y="870" type="line"/>
      <point x="163" y="791" type="line"/>
      <point x="45" y="870" type="line"/>
      <point x="30" y="852" type="line"/>
      <point x="155" y="758" type="line"/>
      <point x="171" y="758" type="line"/>
      <point x="295" y="852" type="line"/>
    </contour>
  </outline>
</glyph>
<glyph name="cheverticalstroke-cy.sc" format="2">
  <advance width="516"/>
  <anchor x="263.5" y="0.0" name="bottom"/>
  <anchor x="358" y="0" name="bottomleft"/>
  <anchor x="408" y="0" name="bottomright"/>
  <anchor x="229" y="560" name="top"/>
  <outline>
    <contour>
      <point x="233" y="417" type="line"/>
      <point x="208" y="417" type="line"/>
      <point x="208" y="100" type="line"/>
      <point x="233" y="100" type="line"/>
    </contour>
    <component base="che-cy.sc"/>
  </outline>
</glyph>
<glyph name="circumflexcomb.case" format="2">
  <anchor x="163" y="682" name="_top"/>
  <anchor x="162" y="877" name="top"/>
  <anchor x="77" y="730" name="topleft"/>
  <anchor x="247" y="730" name="topright"/>
  <outline>
    <contour>
      <point x="45" y="765" type="line"/>
      <point x="163" y="844" type="line"/>
      <point x="280" y="765" type="line"/>
      <point x="295" y="783" type="line"/>
      <point x="171" y="877" type="line"/>
      <point x="155" y="877" type="line"/>
      <point x="30" y="783" type="line"/>
    </contour>
  </outline>
</glyph>
<glyph name="cstroke.sc" format="2">
  <advance width="484"/>
  <anchor x="306" y="0" name="bottom"/>
  <anchor x="311" y="560" name="top"/>
  <outline>
    <contour>
      <point x="356" y="607" type="line"/>
      <point x="174" y="-51" type="line"/>
      <point x="194" y="-56" type="line"/>
      <point x="375" y="602" type="line"/>
    </contour>
    <component base="c.sc"/>
  </outline>
</glyph>
<glyph name="daggerdbl.tf" format="2">
  <advance width="560"/>
  <outline>
    <contour>
      <point x="484" y="238" type="line"/>
      <point x="77" y="238" type="line"/>
      <point x="77" y="210" type="line"/>
      <point x="484" y="210" type="line"/>
    </contour>
    <component base="dagger.tf"/>
  </outline>
</glyph>
<glyph name="dasia.case" format="2">
  <advance width="59"/>
  <anchor x="122" y="682" name="_topleft"/>
  <anchor x="72" y="687" name="top"/>
  <outline>
    <contour>
      <point x="63" y="687" type="curve" smooth="yes"/>
      <point x="41" y="687"/>
      <point x="30" y="673"/>
      <point x="30" y="656" type="curve" smooth="yes"/>
      <point x="30" y="640"/>
      <point x="35" y="630"/>
      <point x="49" y="599" type="curve" smooth="yes"/>
      <point x="88" y="513" type="line"/>
      <point x="109" y="513" type="line"/>
      <point x="75" y="626" type="line"/>
      <point x="88" y="631"/>
      <point x="95" y="640"/>
      <point x="95" y="656" type="curve" smooth="yes"/>
      <point x="95" y="673"/>
      <point x="82" y="687"/>
    </contour>
  </outline>
</glyph>
<glyph name="dasiaoxia.case" format="2">
  <advance width="164"/>
  <anchor x="227" y="682" name="_topleft"/>
  <anchor x="131" y="686" name="top"/>
  <outline>
    <contour>
      <point x="187" y="684" type="line"/>
      <point x="137" y="517" type="line"/>
      <point x="161" y="509" type="line"/>
      <point x="224" y="670" type="line"/>
    </contour>
    <contour>
      <point x="63" y="686" type="curve" smooth="yes"/>
      <point x="41" y="686"/>
      <point x="30" y="672"/>
      <point x="30" y="655" type="curve" smooth="yes"/>
      <point x="30" y="639"/>
      <point x="35" y="629"/>
      <point x="49" y="598" type="curve" smooth="yes"/>
      <point x="88" y="512" type="line"/>
      <point x="109" y="512" type="line"/>
      <point x="75" y="625" type="line"/>
      <point x="88" y="630"/>
      <point x="95" y="639"/>
      <point x="95" y="655" type="curve" smooth="yes"/>
      <point x="95" y="672"/>
      <point x="82" y="686"/>
    </contour>
  </outline>
</glyph>
<glyph name="dasiaperispomeni.case" format="2">
  <advance width="162"/>
  <anchor x="207" y="682" name="_topleft"/>
  <anchor x="88" y="689" name="top"/>
  <outline>
    <contour>
      <point x="118" y="454" type="line"/>
      <point x="95" y="531" type="line"/>
      <point x="111" y="536"/>
      <point x="118" y="545"/>
      <point x="118" y="561" type="curve" smooth="yes"/>
      <point x="118" y="578"/>
      <point x="105" y="592"/>
      <point x="86" y="592" type="curve" smooth="yes"/>
      <point x="64" y="592"/>
      <point x="53" y="578"/>
      <point x="53" y="561" type="curve" smooth="yes"/>
      <point x="53" y="545"/>
      <point x="58" y="535"/>
      <point x="72" y="504" type="curve" smooth="yes"/>
      <point x="95" y="454" type="line"/>
    </contour>
    <component base="perispomeni" xOffset="-81" yOffset="-56"/>
  </outline>
</glyph>
<glyph name="de-cy.sc" format="2">
  <advance width="535"/>
  <anchor x="446" y="0" name="_bottom"/>
  <anchor x="267.5" y="-193" name="bottom"/>
  <anchor x="267.5" y="560" name="top"/>
  <outline>
    <contour>
      <point x="35" y="26" type="curve"/>
      <point x="65" y="25" type="line"/>
      <point x="101" y="61"/>
      <point x="127" y="100"/>
      <point x="156" y="310" type="curve" smooth="yes"/>
      <point x="186" y="532" type="line"/>
      <point x="385" y="532" type="line"/>
      <point x="385" y="28" type="line"/>
      <point x="37" y="28" type="line"/>
      <point x="37" y="0" type="line"/>
      <point x="415" y="0" type="line"/>
      <point x="415" y="560" type="line"/>
      <point x="158" y="560" type="line"/>
      <point x="126" y="319" type="line" smooth="yes"/>
      <point x="97" y="98"/>
      <point x="69" y="60"/>
    </contour>
    <component base="descStraight-cy" xOffset="368"/>
    <component base="descStraight-cy" xScale="-1" xOffset="89"/>
  </outline>
</glyph>
<glyph name="delta.sc" format="2">
  <advance width="500"/>
  <anchor x="250" y="0" name="bottom"/>
  <anchor x="250" y="560" name="top"/>
  <outline>
    <contour>
      <point x="251" y="535" type="line"/>
      <point x="435" y="27" type="line"/>
      <point x="65" y="27" type="line"/>
    </contour>
    <contour>
      <point x="269" y="560" type="line"/>
      <point x="233" y="560" type="line"/>
      <point x="25" y="0" type="line"/>
      <point x="475" y="0" type="line"/>
    </contour>
  </outline>
</glyph>
<glyph name="descStraight-cy.case" format="2">
  <advance width="179"/>
  <anchor x="78" y="0" name="_bottom"/>
  <anchor x="1" y="0" name="_bottomleft"/>
  <anchor x="41" y="0" name="_bottomright"/>
  <outline>
    <contour>
      <point x="94" y="29" type="line"/>
      <point x="16" y="29" type="line"/>
      <point x="31" y="0" type="line"/>
      <point x="61" y="0" type="line"/>
      <point x="72" y="-141" type="line"/>
      <point x="94" y="-141" type="line"/>
    </contour>
  </outline>
</glyph>
<glyph name="descStraight-cy" format="2">
  <advance width="179"/>
  <anchor x="78" y="0" name="_bottom"/>
  <anchor x="54" y="0" name="_bottomleft"/>
  <anchor x="44" y="0" name="_bottomright"/>
  <outline>
    <contour>
      <point x="94" y="28" type="line"/>
      <point x="19" y="28" type="line"/>
      <point x="34" y="0" type="line"/>
      <point x="61" y="0" type="line"/>
      <point x="72" y="-141" type="line"/>
      <point x="94" y="-141" type="line"/>
    </contour>
  </outline>
</glyph>
<glyph name="descTail-cy.case" format="2">
  <advance width="179"/>
  <anchor x="78" y="0" name="_bottom"/>
  <anchor x="1" y="0" name="_bottomleft"/>
  <anchor x="41" y="0" name="_bottomright"/>
  <outline>
    <contour>
      <point x="97" y="29" type="line"/>
      <point x="16" y="29" type="line"/>
      <point x="31" y="0" type="line"/>
      <point x="61" y="0" type="line"/>
      <point x="32" y="-141" type="line"/>
      <point x="54" y="-141" type="line"/>
    </contour>
  </outline>
</glyph>
<glyph name="dieresisacutecomb" format="2">
  <advance width="283"/>
  <anchor x="142" y="520" name="_top"/>
  <outline>
    <contour>
      <point x="55" y="690" type="curve" smooth="yes"/>
      <point x="40" y="690"/>
      <point x="30" y="679"/>
      <point x="30" y="665" type="curve" smooth="yes"/>
      <point x="30" y="651"/>
      <point x="40" y="640"/>
      <point x="55" y="640" type="curve" smooth="yes"/>
      <point x="71" y="640"/>
      <point x="81" y="651"/>
      <point x="81" y="665" type="curve" smooth="yes"/>
      <point x="81" y="679"/>
      <point x="71" y="690"/>
    </contour>
    <contour>
      <point x="228" y="690" type="curve" smooth="yes"/>
      <point x="212" y="690"/>
      <point x="202" y="679"/>
      <point x="202" y="665" type="curve" smooth="yes"/>
      <point x="202" y="651"/>
      <point x="212" y="640"/>
      <point x="228" y="640" type="curve" smooth="yes"/>
      <point x="243" y="640"/>
      <point x="253" y="651"/>
      <point x="253" y="665" type="curve" smooth="yes"/>
      <point x="253" y="679"/>
      <point x="243" y="690"/>
    </contour>
    <component base="acutedbl" xOffset="87" yOffset="50"/>
  </outline>
</glyph>
<glyph name="dieresiscaroncomb.case" format="2">
  <advance width="325"/>
  <anchor x="165" y="912" name="top"/>
  <anchor x="166" y="682" name="_top"/>
  <outline>
    <contour>
      <point x="252" y="792" type="curve" smooth="yes"/>
      <point x="236" y="792"/>
      <point x="226" y="781"/>
      <point x="226" y="767" type="curve" smooth="yes"/>
      <point x="226" y="753"/>
      <point x="236" y="742"/>
      <point x="252" y="742" type="curve" smooth="yes"/>
      <point x="267" y="742"/>
      <point x="277" y="753"/>
      <point x="277" y="767" type="curve" smooth="yes"/>
      <point x="277" y="781"/>
      <point x="267" y="792"/>
    </contour>
    <contour>
      <point x="79" y="792" type="curve" smooth="yes"/>
      <point x="64" y="792"/>
      <point x="54" y="781"/>
      <point x="54" y="767" type="curve" smooth="yes"/>
      <point x="54" y="753"/>
      <point x="64" y="742"/>
      <point x="79" y="742" type="curve" smooth="yes"/>
      <point x="95" y="742"/>
      <point x="105" y="753"/>
      <point x="105" y="767" type="curve" smooth="yes"/>
      <point x="105" y="781"/>
      <point x="95" y="792"/>
    </contour>
    <component base="caroncomb.case" yOffset="42"/>
  </outline>
</glyph>
<glyph name="dieresiscaroncomb" format="2">
  <advance width="325"/>
  <anchor x="165" y="810" name="top"/>
  <anchor x="166" y="520" name="_top"/>
  <outline>
    <contour>
      <point x="252" y="690" type="curve" smooth="yes"/>
      <point x="236" y="690"/>
      <point x="226" y="679"/>
      <point x="226" y="665" type="curve" smooth="yes"/>
      <point x="226" y="651"/>
      <point x="236" y="640"/>
      <point x="252" y="640" type="curve" smooth="yes"/>
      <point x="267" y="640"/>
      <point x="277" y="651"/>
      <point x="277" y="665" type="curve" smooth="yes"/>
      <point x="277" y="679"/>
      <point x="267" y="690"/>
    </contour>
    <contour>
      <point x="79" y="690" type="curve" smooth="yes"/>
      <point x="64" y="690"/>
      <point x="54" y="679"/>
      <point x="54" y="665" type="curve" smooth="yes"/>
      <point x="54" y="651"/>
      <point x="64" y="640"/>
      <point x="79" y="640" type="curve" smooth="yes"/>
      <point x="95" y="640"/>
      <point x="105" y="651"/>
      <point x="105" y="665" type="curve" smooth="yes"/>
      <point x="105" y="679"/>
      <point x="95" y="690"/>
    </contour>
    <component base="caroncomb.case" yOffset="-60"/>
  </outline>
</glyph>
<glyph name="dieresisgravecomb.case" format="2">
  <advance width="283"/>
  <anchor x="142" y="682" name="_top"/>
  <outline>
    <contour>
      <point x="228" y="792" type="curve" smooth="yes"/>
      <point x="212" y="792"/>
      <point x="202" y="781"/>
      <point x="202" y="767" type="curve" smooth="yes"/>
      <point x="202" y="753"/>
      <point x="212" y="742"/>
      <point x="228" y="742" type="curve" smooth="yes"/>
      <point x="243" y="742"/>
      <point x="253" y="753"/>
      <point x="253" y="767" type="curve" smooth="yes"/>
      <point x="253" y="781"/>
      <point x="243" y="792"/>
    </contour>
    <contour>
      <point x="55" y="792" type="curve" smooth="yes"/>
      <point x="40" y="792"/>
      <point x="30" y="781"/>
      <point x="30" y="767" type="curve" smooth="yes"/>
      <point x="30" y="753"/>
      <point x="40" y="742"/>
      <point x="55" y="742" type="curve" smooth="yes"/>
      <point x="71" y="742"/>
      <point x="81" y="753"/>
      <point x="81" y="767" type="curve" smooth="yes"/>
      <point x="81" y="781"/>
      <point x="71" y="792"/>
    </contour>
    <component base="gravedbl" xOffset="7" yOffset="152"/>
  </outline>
</glyph>
<glyph name="digamma.sc" format="2">
  <advance width="437"/>
  <anchor x="135" y="0" name="bottom"/>
  <anchor x="158" y="0" name="bottomright"/>
  <anchor x="267" y="560" name="top"/>
  <outline>
    <contour>
      <point x="361" y="259" type="curve"/>
      <point x="372" y="284" type="line"/>
      <point x="348" y="296"/>
      <point x="325" y="303"/>
      <point x="293" y="303" type="curve" smooth="yes"/>
      <point x="134" y="303" type="line"/>
      <point x="134" y="274" type="line"/>
      <point x="291" y="274" type="line" smooth="yes"/>
      <point x="319" y="274"/>
      <point x="339" y="268"/>
    </contour>
    <component base="gamma.sc"/>
  </outline>
</glyph>
<glyph name="e-cy.sc" format="2">
  <advance width="494"/>
  <anchor x="247" y="0" name="bottom"/>
  <anchor x="247" y="560" name="top"/>
  <outline>
    <contour>
      <point x="310" y="568" type="curve" smooth="yes"/>
      <point x="182" y="568"/>
      <point x="75" y="473"/>
      <point x="75" y="280" type="curve" smooth="yes"/>
      <point x="75" y="92"/>
      <point x="176" y="-8"/>
      <point x="307" y="-8" type="curve" smooth="yes"/>
      <point x="375" y="-8"/>
      <point x="422" y="14"/>
      <point x="459" y="46" type="curve"/>
      <point x="441" y="68" type="line"/>
      <point x="406" y="40"/>
      <point x="373" y="21"/>
      <point x="308" y="21" type="curve" smooth="yes"/>
      <point x="197" y="21"/>
      <point x="106" y="105"/>
      <point x="106" y="280" type="curve"/>
      <point x="106" y="291" type="line"/>
      <point x="109" y="468"/>
      <point x="202" y="540"/>
      <point x="311" y="540" type="curve" smooth="yes"/>
      <point x="364" y="540"/>
      <point x="394" y="528"/>
      <point x="436" y="498" type="curve"/>
      <point x="453" y="519" type="line"/>
      <point x="414" y="549"/>
      <point x="375" y="568"/>
    </contour>
    <contour>
      <point x="351" y="305" type="line"/>
      <point x="100" y="305" type="line"/>
      <point x="100" y="277" type="line"/>
      <point x="351" y="277" type="line"/>
    </contour>
  </outline>
</glyph>
<glyph name="e.sc" format="2">
  <advance width="450"/>
  <anchor x="265" y="0" name="bottom"/>
  <anchor x="390" y="0" name="ogonek"/>
  <anchor x="263" y="560" name="top"/>
  <outline>
    <contour>
      <point x="405" y="560" type="line"/>
      <point x="120" y="560" type="line"/>
      <point x="120" y="0" type="line"/>
      <point x="410" y="0" type="line"/>
      <point x="410" y="28" type="line"/>
      <point x="150" y="28" type="line"/>
      <point x="150" y="281" type="line"/>
      <point x="367" y="281" type="line"/>
      <point x="367" y="308" type="line"/>
      <point x="150" y="308" type="line"/>
      <point x="150" y="532" type="line"/>
      <point x="401" y="532" type="line"/>
    </contour>
  </outline>
</glyph>
<glyph name="eiotified-cy.sc" format="2">
  <advance width="678"/>
  <anchor x="339" y="0" name="bottom"/>
  <anchor x="339" y="560" name="top"/>
  <outline>
    <contour>
      <point x="150" y="560" type="line"/>
      <point x="120" y="560" type="line"/>
      <point x="120" y="0" type="line"/>
      <point x="150" y="0" type="line"/>
      <point x="150" y="277" type="line"/>
      <point x="270" y="277" type="line"/>
      <point x="270" y="305" type="line"/>
      <point x="150" y="305" type="line"/>
    </contour>
    <component base="e-cy.sc" xOffset="184"/>
  </outline>
</glyph>
<glyph name="el-cy.sc" format="2">
  <advance width="571"/>
  <anchor x="285.5" y="0" name="bottom"/>
  <anchor x="461" y="0" name="bottomright"/>
  <anchor x="285.5" y="560" name="top"/>
  <outline>
    <contour>
      <point x="153" y="560" type="line"/>
      <point x="168" y="532" type="line"/>
      <point x="421" y="532" type="line"/>
      <point x="421" y="0" type="line"/>
      <point x="451" y="0" type="line"/>
      <point x="451" y="560" type="line"/>
    </contour>
    <contour>
      <point x="181" y="535" type="line"/>
      <point x="153" y="560" type="line"/>
      <point x="125" y="287" type="line" smooth="yes"/>
      <point x="103" y="71"/>
      <point x="94" y="41"/>
      <point x="41" y="19" type="curve"/>
      <point x="50" y="-6" type="line"/>
      <point x="124" y="24"/>
      <point x="131" y="58"/>
      <point x="155" y="285" type="curve" smooth="yes"/>
    </contour>
  </outline>
</glyph>
<glyph name="enmiddlehook-cy.sc" format="2">
  <advance width="870"/>
  <anchor x="435" y="-193" name="bottom"/>
  <anchor x="496" y="0" name="bottomright"/>
  <anchor x="302" y="280" name="center"/>
  <anchor x="435" y="560" name="top"/>
  <outline>
    <contour>
      <point x="658" y="360" type="curve" smooth="yes"/>
      <point x="580" y="360"/>
      <point x="525" y="327"/>
      <point x="482" y="280" type="curve"/>
      <point x="482" y="245" type="line"/>
      <point x="531" y="304"/>
      <point x="586" y="332"/>
      <point x="657" y="332" type="curve" smooth="yes"/>
      <point x="745" y="332"/>
      <point x="785" y="282"/>
      <point x="785" y="207" type="curve" smooth="yes"/>
      <point x="785" y="0" type="line"/>
      <point x="815" y="0" type="line"/>
      <point x="815" y="209" type="line" smooth="yes"/>
      <point x="815" y="302"/>
      <point x="759" y="360"/>
    </contour>
    <component base="h.sc"/>
    <component base="hookHELPER" xOffset="581"/>
  </outline>
</glyph>
<glyph name="eth.sc" format="2">
  <advance width="567"/>
  <anchor x="288" y="0" name="bottom"/>
  <anchor x="291" y="280" name="center"/>
  <anchor x="274" y="560" name="top"/>
  <outline>
    <contour>
      <point x="65" y="278" type="line"/>
      <point x="292" y="278" type="line"/>
      <point x="292" y="305" type="line"/>
      <point x="119" y="305" type="line"/>
      <point x="65" y="305" type="line"/>
    </contour>
    <component base="d.sc" xOffset="-1"/>
  </outline>
</glyph>
<glyph name="f.sc" format="2">
  <advance width="431"/>
  <anchor x="135" y="0" name="bottom"/>
  <anchor x="261" y="560" name="top"/>
  <outline>
    <contour>
      <point x="401" y="560" type="line"/>
      <point x="120" y="560" type="line"/>
      <point x="120" y="0" type="line"/>
      <point x="150" y="0" type="line"/>
      <point x="150" y="269" type="line"/>
      <point x="364" y="269" type="line"/>
      <point x="364" y="296" type="line"/>
      <point x="150" y="296" type="line"/>
      <point x="150" y="532" type="line"/>
      <point x="398" y="532" type="line"/>
    </contour>
  </outline>
</glyph>
<glyph name="gestrokehook-cy.sc" format="2">
  <advance width="399"/>
  <anchor x="117" y="0" name="bottom"/>
  <anchor x="140" y="0" name="bottomright"/>
  <anchor x="249" y="560" name="top"/>
  <outline>
    <contour>
      <point x="131" y="28" type="line"/>
      <point x="131" y="0" type="line"/>
      <point x="193" y="0" type="line"/>
      <point x="193" y="28" type="line"/>
    </contour>
    <component base="ghestroke-cy.sc"/>
    <component base="hookHELPER" xOffset="-41"/>
  </outline>
</glyph>
<glyph name="ghestroke-cy.sc" format="2">
  <advance width="399"/>
  <anchor x="117" y="0" name="bottom"/>
  <anchor x="140" y="0" name="bottomright"/>
  <anchor x="249" y="560" name="top"/>
  <outline>
    <contour>
      <point x="305" y="327" type="line"/>
      <point x="104" y="327" type="line"/>
      <point x="25" y="327" type="line"/>
      <point x="25" y="300" type="line"/>
      <point x="305" y="300" type="line"/>
    </contour>
    <component base="ge-cy.sc" xOffset="-18"/>
  </outline>
</glyph>
<glyph name="gheupturn-cy.sc" format="2">
  <advance width="417"/>
  <anchor x="135" y="0" name="bottom"/>
  <anchor x="158" y="0" name="bottomright"/>
  <anchor x="267" y="560" name="top"/>
  <outline>
    <contour>
      <point x="379" y="550" type="line"/>
      <point x="407" y="560" type="line"/>
      <point x="407" y="667" type="line"/>
      <point x="379" y="667" type="line"/>
    </contour>
    <component base="ge-cy.sc"/>
  </outline>
</glyph>
<glyph name="gravecomb.case" format="2">
  <anchor x="127" y="682" name="_top"/>
  <anchor x="129" y="869" name="top"/>
  <outline>
    <contour>
      <point x="46" y="869" type="line"/>
      <point x="30" y="837" type="line"/>
      <point x="214" y="761" type="line"/>
      <point x="223" y="782" type="line"/>
    </contour>
  </outline>
</glyph>
<glyph name="gravedbl" format="2">
  <advance width="196"/>
  <anchor x="138" y="520" name="_top"/>
  <anchor x="158" y="520" name="_topleft"/>
  <outline>
    <contour>
      <point x="66" y="783" type="line"/>
      <point x="42" y="761" type="line"/>
      <point x="149" y="646" type="line"/>
      <point x="166" y="661" type="line"/>
    </contour>
  </outline>
</glyph>
<glyph name="h.sc" format="2">
  <advance width="608"/>
  <anchor x="304" y="0" name="bottom"/>
  <anchor x="496" y="0" name="bottomright"/>
  <anchor x="302" y="280" name="center"/>
  <anchor x="302" y="560" name="top"/>
  <outline>
    <contour>
      <point x="488" y="560" type="line"/>
      <point x="458" y="560" type="line"/>
      <point x="458" y="309" type="line"/>
      <point x="150" y="309" type="line"/>
      <point x="150" y="560" type="line"/>
      <point x="120" y="560" type="line"/>
      <point x="120" y="0" type="line"/>
      <point x="150" y="0" type="line"/>
      <point x="150" y="281" type="line"/>
      <point x="458" y="281" type="line"/>
      <point x="458" y="0" type="line"/>
      <point x="488" y="0" type="line"/>
    </contour>
  </outline>
</glyph>
<glyph name="hahook-cy.sc" format="2">
  <advance width="450"/>
  <anchor x="225" y="-193" name="bottom"/>
  <anchor x="394" y="0" name="bottomright"/>
  <anchor x="215.5" y="560.0" name="top"/>
  <outline>
    <contour>
      <point x="386" y="28" type="line"/>
      <point x="386" y="0" type="line"/>
      <point x="450" y="0" type="line"/>
      <point x="450" y="28" type="line"/>
    </contour>
    <component base="hookHELPER" xOffset="216"/>
    <component base="x.sc"/>
  </outline>
</glyph>
<glyph name="hardsign-cy.sc" format="2">
  <advance width="525"/>
  <anchor x="274" y="0" name="bottom"/>
  <anchor x="274" y="560" name="top"/>
  <outline>
    <contour>
      <point x="143" y="532" type="line"/>
      <point x="173" y="560" type="line"/>
      <point x="0" y="560" type="line"/>
      <point x="0" y="532" type="line"/>
    </contour>
    <component base="softsign-cy.sc" xOffset="23"/>
  </outline>
</glyph>
<glyph name="hbar.sc" format="2">
  <advance width="608"/>
  <anchor x="304" y="0" name="bottom"/>
  <anchor x="496" y="0" name="bottomright"/>
  <anchor x="302" y="280" name="center"/>
  <anchor x="302" y="560" name="top"/>
  <outline>
    <contour>
      <point x="546" y="451" type="line"/>
      <point x="488" y="451" type="line"/>
      <point x="62" y="451" type="line"/>
      <point x="62" y="427" type="line"/>
      <point x="120" y="427" type="line"/>
      <point x="546" y="427" type="line"/>
    </contour>
    <component base="h.sc"/>
  </outline>
</glyph>
<glyph name="heta.sc" format="2">
  <advance width="460"/>
  <anchor x="230" y="0" name="bottom"/>
  <anchor x="230" y="560" name="top"/>
  <outline>
    <contour>
      <point x="430" y="282" type="line"/>
      <point x="430" y="309" type="line"/>
      <point x="150" y="309" type="line"/>
      <point x="150" y="560" type="line"/>
      <point x="120" y="560" type="line"/>
      <point x="120" y="0" type="line"/>
      <point x="150" y="0" type="line"/>
      <point x="150" y="282" type="line"/>
    </contour>
  </outline>
</glyph>
<glyph name="horncomb.case" format="2">
  <anchor x="40" y="682" name="_topright"/>
  <anchor x="92" y="682" name="topright"/>
  <outline>
    <contour>
      <point x="30" y="604" type="line"/>
      <point x="82" y="604"/>
      <point x="114" y="633"/>
      <point x="114" y="686" type="curve" smooth="yes"/>
      <point x="114" y="722"/>
      <point x="105" y="749"/>
      <point x="96" y="767" type="curve"/>
      <point x="73" y="758" type="line"/>
      <point x="81" y="738"/>
      <point x="87" y="715"/>
      <point x="87" y="686" type="curve" smooth="yes"/>
      <point x="87" y="647"/>
      <point x="69" y="628"/>
      <point x="20" y="623" type="curve"/>
    </contour>
  </outline>
</glyph>
<glyph name="i.sc" format="2">
  <advance width="270"/>
  <anchor x="135" y="0" name="bottom"/>
  <anchor x="160" y="0" name="ogonek"/>
  <anchor x="135" y="560" name="top"/>
  <outline>
    <contour>
      <point x="150" y="560" type="line"/>
      <point x="120" y="560" type="line"/>
      <point x="120" y="0" type="line"/>
      <point x="150" y="0" type="line"/>
    </contour>
  </outline>
</glyph>
<glyph name="ii-cy.sc" format="2">
  <advance width="610"/>
  <anchor x="305" y="0" name="bottom"/>
  <anchor x="500" y="0" name="bottomright"/>
  <anchor x="305" y="560" name="top"/>
  <outline>
    <contour>
      <point x="490" y="560" type="line"/>
      <point x="454" y="560" type="line"/>
      <point x="146" y="31" type="line"/>
      <point x="148" y="91"/>
      <point x="150" y="196"/>
      <point x="150" y="279" type="curve" smooth="yes"/>
      <point x="150" y="560" type="line"/>
      <point x="120" y="560" type="line"/>
      <point x="120" y="0" type="line"/>
      <point x="156" y="0" type="line"/>
      <point x="464" y="529" type="line"/>
      <point x="460" y="460"/>
      <point x="460" y="375"/>
      <point x="460" y="281" type="curve" smooth="yes"/>
      <point x="460" y="0" type="line"/>
      <point x="490" y="0" type="line"/>
    </contour>
  </outline>
</glyph>
<glyph name="j.sc" format="2">
  <advance width="262"/>
  <anchor x="131" y="-193" name="bottom"/>
  <anchor x="133" y="560" name="top"/>
  <outline>
    <contour>
      <point x="148" y="560" type="line"/>
      <point x="118" y="560" type="line"/>
      <point x="118" y="75" type="line" smooth="yes"/>
      <point x="118" y="-2"/>
      <point x="98" y="-28"/>
      <point x="20" y="-65" type="curve"/>
      <point x="29" y="-87" type="line"/>
      <point x="127" y="-45"/>
      <point x="148" y="-14"/>
      <point x="148" y="73" type="curve" smooth="yes"/>
    </contour>
  </outline>
</glyph>
<glyph name="ka-cy.sc" format="2">
  <advance width="489"/>
  <anchor x="244.5" y="0" name="bottom"/>
  <anchor x="448" y="0" name="bottomright"/>
  <anchor x="290" y="560" name="top"/>
  <outline>
    <contour>
      <point x="462" y="560" type="line"/>
      <point x="428" y="560" type="line"/>
      <point x="254" y="309" type="line"/>
      <point x="151" y="309" type="line"/>
      <point x="151" y="560" type="line"/>
      <point x="120" y="560" type="line"/>
      <point x="120" y="0" type="line"/>
      <point x="151" y="0" type="line"/>
      <point x="151" y="281" type="line"/>
      <point x="253" y="281" type="line"/>
      <point x="438" y="0" type="line"/>
      <point x="474" y="0" type="line"/>
      <point x="280" y="296" type="line"/>
    </contour>
  </outline>
</glyph>
<glyph name="kabashkir-cy.sc" format="2">
  <advance width="512"/>
  <anchor x="267.5" y="0.0" name="bottom"/>
  <anchor x="471" y="0" name="bottomright"/>
  <anchor x="313" y="560" name="top"/>
  <outline>
    <contour>
      <point x="143" y="532" type="line"/>
      <point x="173" y="560" type="line"/>
      <point x="0" y="560" type="line"/>
      <point x="0" y="532" type="line"/>
    </contour>
    <component base="ka-cy.sc" xOffset="23"/>
  </outline>
</glyph>
<glyph name="kaiSymbol.sc" format="2">
  <advance width="497"/>
  <anchor x="248.5" y="-193" name="bottom"/>
  <anchor x="269" y="560" name="top"/>
  <outline>
    <contour>
      <point x="428" y="28" type="line"/>
      <point x="428" y="0" type="line"/>
      <point x="487" y="0" type="line"/>
      <point x="487" y="28" type="line"/>
    </contour>
    <component base="k.sc"/>
    <component base="hookHELPER" xOffset="253"/>
  </outline>
</glyph>
<glyph name="kastroke-cy.sc" format="2">
  <advance width="448"/>
  <anchor x="203.5" y="0.0" name="bottom"/>
  <anchor x="407" y="0" name="bottomright"/>
  <anchor x="249" y="560" name="top"/>
  <outline>
    <contour>
      <point x="25" y="445" type="line"/>
      <point x="222" y="445" type="line"/>
      <point x="222" y="471" type="line"/>
      <point x="79" y="471" type="line"/>
      <point x="25" y="471" type="line"/>
    </contour>
    <component base="ka-cy.sc" xOffset="-41"/>
  </outline>
</glyph>
<glyph name="koppa.sc" format="2">
  <advance width="391"/>
  <anchor x="195.5" y="0" name="bottom"/>
  <anchor x="195.5" y="560" name="top"/>
  <outline>
    <contour>
      <point x="161" y="0" type="line"/>
      <point x="195" y="0" type="line"/>
      <point x="361" y="269" type="line"/>
      <point x="330" y="277" type="line"/>
    </contour>
    <contour>
      <point x="44" y="269" type="line"/>
      <point x="361" y="269" type="line"/>
      <point x="352" y="297" type="line"/>
      <point x="35" y="297" type="line"/>
    </contour>
    <contour>
      <point x="65" y="289" type="line"/>
      <point x="233" y="560" type="line"/>
      <point x="199" y="560" type="line"/>
      <point x="35" y="297" type="line"/>
    </contour>
  </outline>
</glyph>
<glyph name="koppaArchaic.sc" format="2">
  <advance width="620"/>
  <anchor x="310" y="-193" name="bottom"/>
  <anchor x="379" y="0" name="ogonek"/>
  <anchor x="309" y="560" name="top"/>
  <anchor x="107" y="560" name="topleft"/>
  <anchor x="492" y="560" name="topright"/>
  <outline>
    <contour>
      <point x="295" y="-193" type="line"/>
      <point x="325" y="-193" type="line"/>
      <point x="325" y="-2" type="line"/>
      <point x="295" y="-2" type="line"/>
    </contour>
    <component base="o.sc"/>
  </outline>
</glyph>
<glyph name="l.sc" format="2">
  <advance width="420"/>
  <anchor x="261" y="0" name="bottom"/>
  <anchor x="334" y="316" name="center"/>
  <anchor x="135" y="560" name="top"/>
  <anchor x="180" y="560" name="topright"/>
  <outline>
    <contour>
      <point x="150" y="560" type="line"/>
      <point x="120" y="560" type="line"/>
      <point x="120" y="0" type="line"/>
      <point x="394" y="0" type="line"/>
      <point x="400" y="29" type="line"/>
      <point x="150" y="29" type="line"/>
    </contour>
  </outline>
</glyph>
<glyph name="liraTurkish.tosf" format="2">
  <advance width="560"/>
  <outline>
    <contour>
      <point x="160" y="0" type="line"/>
      <point x="160" y="662" type="line"/>
      <point x="190" y="662" type="line"/>
      <point x="190" y="29" type="line"/>
      <point x="268" y="29" type="line" smooth="yes"/>
      <point x="388" y="29"/>
      <point x="441" y="65"/>
      <point x="481" y="153" type="curve"/>
      <point x="506" y="143" type="line"/>
      <point x="468" y="50"/>
      <point x="408" y="0"/>
      <point x="268" y="0" type="curve"/>
    </contour>
    <contour>
      <point x="102" y="208" type="line"/>
      <point x="90" y="233" type="line"/>
      <point x="359" y="359" type="line"/>
      <point x="371" y="333" type="line"/>
    </contour>
    <contour>
      <point x="102" y="335" type="line"/>
      <point x="90" y="361" type="line"/>
      <point x="359" y="487" type="line"/>
      <point x="371" y="461" type="line"/>
    </contour>
  </outline>
</glyph>
<glyph name="lozenge.tosf" format="2">
  <advance width="560"/>
  <outline>
    <contour>
      <point x="296" y="662" type="line"/>
      <point x="264" y="662" type="line"/>
      <point x="80" y="333" type="line"/>
      <point x="264" y="0" type="line"/>
      <point x="296" y="0" type="line"/>
      <point x="480" y="333" type="line"/>
    </contour>
    <contour>
      <point x="280" y="635" type="line"/>
      <point x="447" y="333" type="line"/>
      <point x="280" y="26" type="line"/>
      <point x="113" y="333" type="line"/>
    </contour>
  </outline>
</glyph>
<glyph name="lslash.sc" format="2">
  <advance width="418"/>
  <anchor x="259" y="0" name="bottom"/>
  <anchor x="332" y="316" name="center"/>
  <anchor x="133" y="560" name="top"/>
  <anchor x="178" y="560" name="topright"/>
  <outline>
    <contour>
      <point x="326" y="384" type="line"/>
      <point x="118" y="253" type="line"/>
      <point x="42" y="206" type="line"/>
      <point x="55" y="185" type="line"/>
      <point x="339" y="363" type="line"/>
    </contour>
    <component base="l.sc" xOffset="-2"/>
  </outline>
</glyph>
<glyph name="nhookleft.sc" format="2">
  <advance width="610"/>
  <anchor x="305" y="0" name="bottom"/>
  <anchor x="305" y="560" name="top"/>
  <outline>
    <contour>
      <point x="46" y="-199" type="curve" smooth="yes"/>
      <point x="106" y="-199"/>
      <point x="149" y="-161"/>
      <point x="149" y="-82" type="curve" smooth="yes"/>
      <point x="149" y="1" type="line"/>
      <point x="120" y="1" type="line"/>
      <point x="120" y="-81" type="line" smooth="yes"/>
      <point x="120" y="-150"/>
      <point x="86" y="-172"/>
      <point x="46" y="-172" type="curve" smooth="yes"/>
      <point x="11" y="-172"/>
      <point x="-11" y="-161"/>
      <point x="-30" y="-148" type="curve"/>
      <point x="-45" y="-168" type="line"/>
      <point x="-25" y="-183"/>
      <point x="5" y="-199"/>
    </contour>
    <component base="n.sc"/>
  </outline>
</glyph>
<glyph name="p.sc" format="2">
  <advance width="512"/>
  <anchor x="135" y="0" name="bottom"/>
  <anchor x="256" y="560" name="top"/>
  <outline>
    <contour>
      <point x="247" y="560" type="curve" smooth="yes"/>
      <point x="120" y="560" type="line"/>
      <point x="120" y="0" type="line"/>
      <point x="150" y="0" type="line"/>
      <point x="150" y="532" type="line"/>
      <point x="247" y="532" type="line" smooth="yes"/>
      <point x="361" y="532"/>
      <point x="426" y="498"/>
      <point x="426" y="395" type="curve" smooth="yes"/>
      <point x="426" y="286"/>
      <point x="350" y="254"/>
      <point x="245" y="254" type="curve" smooth="yes"/>
      <point x="143" y="254" type="line"/>
      <point x="143" y="226" type="line"/>
      <point x="242" y="226" type="line" smooth="yes"/>
      <point x="368" y="226"/>
      <point x="457" y="271"/>
      <point x="457" y="396" type="curve" smooth="yes"/>
      <point x="457" y="511"/>
      <point x="380" y="560"/>
    </contour>
  </outline>
</glyph>
<glyph name="pe-cy.sc" format="2">
  <advance width="603"/>
  <anchor x="301.5" y="0" name="bottom"/>
  <anchor x="493" y="0" name="bottomright"/>
  <anchor x="301.5" y="560" name="top"/>
  <outline>
    <contour>
      <point x="483" y="560" type="line"/>
      <point x="120" y="560" type="line"/>
      <point x="120" y="0" type="line"/>
      <point x="150" y="0" type="line"/>
      <point x="150" y="532" type="line"/>
      <point x="453" y="532" type="line"/>
      <point x="453" y="0" type="line"/>
      <point x="483" y="0" type="line"/>
    </contour>
  </outline>
</glyph>
<glyph name="pemiddlehook-cy.sc" format="2">
  <advance width="865"/>
  <anchor x="432.5" y="-193" name="bottom"/>
  <anchor x="493" y="0" name="bottomright"/>
  <anchor x="432.5" y="560" name="top"/>
  <outline>
    <contour>
      <point x="653" y="360" type="curve" smooth="yes"/>
      <point x="575" y="360"/>
      <point x="520" y="327"/>
      <point x="477" y="280" type="curve"/>
      <point x="477" y="245" type="line"/>
      <point x="526" y="304"/>
      <point x="581" y="332"/>
      <point x="652" y="332" type="curve" smooth="yes"/>
      <point x="740" y="332"/>
      <point x="780" y="282"/>
      <point x="780" y="207" type="curve" smooth="yes"/>
      <point x="780" y="0" type="line"/>
      <point x="810" y="0" type="line"/>
      <point x="810" y="209" type="line" smooth="yes"/>
      <point x="810" y="302"/>
      <point x="754" y="360"/>
    </contour>
    <component base="pe-cy.sc"/>
    <component base="hookHELPER" xOffset="576"/>
  </outline>
</glyph>
<glyph name="product.tosf" format="2">
  <advance width="560"/>
  <outline>
    <contour>
      <point x="497" y="634" type="line"/>
      <point x="497" y="662" type="line"/>
      <point x="63" y="662" type="line"/>
      <point x="63" y="634" type="line"/>
      <point x="141" y="634" type="line"/>
      <point x="141" y="-199" type="line"/>
      <point x="171" y="-195" type="line"/>
      <point x="171" y="634" type="line"/>
      <point x="389" y="634" type="line"/>
      <point x="389" y="-199" type="line"/>
      <point x="419" y="-195" type="line"/>
      <point x="419" y="634" type="line"/>
    </contour>
  </outline>
</glyph>
<glyph name="psili.case" format="2">
  <advance width="69"/>
  <anchor x="116" y="682" name="_topleft"/>
  <anchor x="75" y="687" name="top"/>
  <outline>
    <contour>
      <point x="76" y="687" type="curve" smooth="yes"/>
      <point x="57" y="687"/>
      <point x="44" y="673"/>
      <point x="44" y="656" type="curve" smooth="yes"/>
      <point x="44" y="640"/>
      <point x="51" y="631"/>
      <point x="64" y="626" type="curve"/>
      <point x="30" y="513" type="line"/>
      <point x="51" y="513" type="line"/>
      <point x="90" y="599" type="line" smooth="yes"/>
      <point x="104" y="630"/>
      <point x="109" y="640"/>
      <point x="109" y="656" type="curve" smooth="yes"/>
      <point x="109" y="673"/>
      <point x="98" y="687"/>
    </contour>
  </outline>
</glyph>
<glyph name="psilioxia.case" format="2">
  <advance width="164"/>
  <anchor x="227" y="682" name="_topleft"/>
  <anchor x="140" y="686" name="top"/>
  <outline>
    <contour>
      <point x="161" y="510" type="line"/>
      <point x="224" y="671" type="line"/>
      <point x="187" y="685" type="line"/>
      <point x="137" y="518" type="line"/>
    </contour>
    <contour>
      <point x="30" y="512" type="line"/>
      <point x="51" y="512" type="line"/>
      <point x="90" y="598" type="line" smooth="yes"/>
      <point x="104" y="629"/>
      <point x="109" y="639"/>
      <point x="109" y="655" type="curve" smooth="yes"/>
      <point x="109" y="672"/>
      <point x="98" y="686"/>
      <point x="76" y="686" type="curve" smooth="yes"/>
      <point x="57" y="686"/>
      <point x="44" y="672"/>
      <point x="44" y="655" type="curve" smooth="yes"/>
      <point x="44" y="639"/>
      <point x="51" y="630"/>
      <point x="64" y="625" type="curve"/>
    </contour>
  </outline>
</glyph>
<glyph name="psiliperispomeni.case" format="2">
  <advance width="162"/>
  <anchor x="207" y="682" name="_topleft"/>
  <anchor x="88" y="689" name="top"/>
  <outline>
    <contour>
      <point x="53" y="454" type="line"/>
      <point x="76" y="454" type="line"/>
      <point x="99" y="504" type="line" smooth="yes"/>
      <point x="113" y="535"/>
      <point x="118" y="545"/>
      <point x="118" y="561" type="curve" smooth="yes"/>
      <point x="118" y="578"/>
      <point x="107" y="592"/>
      <point x="85" y="592" type="curve" smooth="yes"/>
      <point x="66" y="592"/>
      <point x="53" y="578"/>
      <point x="53" y="561" type="curve" smooth="yes"/>
      <point x="53" y="545"/>
      <point x="60" y="536"/>
      <point x="76" y="531" type="curve"/>
    </contour>
    <component base="perispomeni" xOffset="-81" yOffset="-56"/>
  </outline>
</glyph>
<glyph name="psilivaria.case" format="2">
  <advance width="162"/>
  <anchor x="227" y="682" name="_topleft"/>
  <anchor x="135" y="686" name="top"/>
  <outline>
    <contour>
      <point x="199" y="511" type="line"/>
      <point x="222" y="519" type="line"/>
      <point x="174" y="683" type="line"/>
      <point x="137" y="670" type="line"/>
    </contour>
    <contour>
      <point x="30" y="512" type="line"/>
      <point x="51" y="512" type="line"/>
      <point x="90" y="598" type="line" smooth="yes"/>
      <point x="104" y="629"/>
      <point x="109" y="639"/>
      <point x="109" y="655" type="curve" smooth="yes"/>
      <point x="109" y="672"/>
      <point x="98" y="686"/>
      <point x="76" y="686" type="curve" smooth="yes"/>
      <point x="57" y="686"/>
      <point x="44" y="672"/>
      <point x="44" y="655" type="curve" smooth="yes"/>
      <point x="44" y="639"/>
      <point x="51" y="630"/>
      <point x="64" y="625" type="curve"/>
    </contour>
  </outline>
</glyph>
<glyph name="q.sc" format="2">
  <advance width="620"/>
  <anchor x="300.5" y="0" name="bottom"/>
  <anchor x="300.5" y="560" name="top"/>
  <outline>
    <contour>
      <point x="309" y="568" type="curve" smooth="yes"/>
      <point x="172" y="568"/>
      <point x="75" y="465"/>
      <point x="75" y="278" type="curve" smooth="yes"/>
      <point x="75" y="93"/>
      <point x="171" y="-6"/>
      <point x="309" y="-6" type="curve" smooth="yes"/>
      <point x="323" y="-6"/>
      <point x="336" y="-6"/>
      <point x="349" y="-4" type="curve"/>
      <point x="389" y="12" type="line"/>
      <point x="474" y="36"/>
      <point x="545" y="112"/>
      <point x="545" y="279" type="curve" smooth="yes"/>
      <point x="545" y="469"/>
      <point x="450" y="568"/>
    </contour>
    <contour>
      <point x="389" y="12" type="curve"/>
      <point x="309" y="-6" type="line"/>
      <point x="411" y="-6"/>
      <point x="479" y="-18"/>
      <point x="545" y="-71" type="curve"/>
      <point x="565" y="-45" type="line"/>
      <point x="515" y="-4"/>
      <point x="447" y="10"/>
    </contour>
    <contour>
      <point x="309" y="540" type="curve"/>
      <point x="432" y="540"/>
      <point x="514" y="455"/>
      <point x="514" y="279" type="curve" smooth="yes"/>
      <point x="514" y="107"/>
      <point x="436" y="20"/>
      <point x="309" y="20" type="curve" smooth="yes"/>
      <point x="190" y="20"/>
      <point x="106" y="107"/>
      <point x="106" y="278" type="curve" smooth="yes"/>
      <point x="106" y="454"/>
      <point x="190" y="540"/>
    </contour>
  </outline>
</glyph>
<glyph name="rstroke.sc" format="2">
  <advance width="524"/>
  <anchor x="280" y="0" name="bottom"/>
  <anchor x="278" y="560" name="top"/>
  <outline>
    <contour>
      <point x="227" y="260" type="line"/>
      <point x="200" y="287" type="line"/>
      <point x="119" y="287" type="line"/>
      <point x="46" y="287" type="line"/>
      <point x="46" y="260" type="line"/>
    </contour>
    <component base="r.sc" xOffset="-1"/>
  </outline>
</glyph>
<glyph name="ruble.tosf" format="2">
  <advance width="560"/>
  <outline>
    <contour>
      <point x="181" y="0" type="line"/>
      <point x="181" y="634" type="line"/>
      <point x="255" y="634" type="line" smooth="yes"/>
      <point x="390" y="634"/>
      <point x="465" y="590"/>
      <point x="465" y="472" type="curve" smooth="yes"/>
      <point x="465" y="348"/>
      <point x="376" y="307"/>
      <point x="253" y="307" type="curve" smooth="yes"/>
      <point x="174" y="307" type="line"/>
      <point x="174" y="279" type="line"/>
      <point x="250" y="279" type="line" smooth="yes"/>
      <point x="394" y="279"/>
      <point x="496" y="333"/>
      <point x="496" y="473" type="curve" smooth="yes"/>
      <point x="496" y="603"/>
      <point x="408" y="662"/>
      <point x="255" y="662" type="curve" smooth="yes"/>
      <point x="151" y="662" type="line"/>
      <point x="151" y="0" type="line"/>
    </contour>
    <contour>
      <point x="337" y="166" type="line"/>
      <point x="70" y="166" type="line"/>
      <point x="70" y="138" type="line"/>
      <point x="337" y="138" type="line"/>
    </contour>
    <contour>
      <point x="237" y="307" type="line"/>
      <point x="70" y="307" type="line"/>
      <point x="70" y="279" type="line"/>
      <point x="237" y="279" type="line"/>
    </contour>
  </outline>
</glyph>
<glyph name="rupeeIndian.tf" format="2">
  <advance width="560"/>
  <outline>
    <contour>
      <point x="414" y="0" type="line"/>
      <point x="453" y="0" type="line"/>
      <point x="259" y="322" type="line"/>
      <point x="225" y="317" type="line"/>
    </contour>
    <contour>
      <point x="110" y="512" type="line"/>
      <point x="507" y="512" type="line"/>
      <point x="507" y="541" type="line"/>
      <point x="110" y="541" type="line"/>
    </contour>
    <contour>
      <point x="507" y="682" type="line"/>
      <point x="110" y="682" type="line"/>
      <point x="110" y="654" type="line"/>
      <point x="186" y="654" type="line" smooth="yes"/>
      <point x="333" y="654"/>
      <point x="386" y="599"/>
      <point x="386" y="498" type="curve" smooth="yes"/>
      <point x="386" y="387"/>
      <point x="316" y="339"/>
      <point x="196" y="339" type="curve" smooth="yes"/>
      <point x="110" y="339" type="line"/>
      <point x="110" y="310" type="line"/>
      <point x="232" y="310" type="line"/>
      <point x="342" y="326"/>
      <point x="418" y="375"/>
      <point x="418" y="498" type="curve" smooth="yes"/>
      <point x="418" y="580"/>
      <point x="386" y="634"/>
      <point x="315" y="654" type="curve"/>
      <point x="507" y="654" type="line"/>
    </contour>
  </outline>
</glyph>
<glyph name="rupeeIndian.tosf" format="2">
  <advance width="560"/>
  <outline>
    <contour>
      <point x="414" y="0" type="line"/>
      <point x="453" y="0" type="line"/>
      <point x="259" y="302" type="line"/>
      <point x="225" y="297" type="line"/>
    </contour>
    <contour>
      <point x="110" y="492" type="line"/>
      <point x="507" y="492" type="line"/>
      <point x="507" y="521" type="line"/>
      <point x="110" y="521" type="line"/>
    </contour>
    <contour>
      <point x="507" y="662" type="line"/>
      <point x="110" y="662" type="line"/>
      <point x="110" y="634" type="line"/>
      <point x="186" y="633" type="line" smooth="yes"/>
      <point x="333" y="631"/>
      <point x="386" y="579"/>
      <point x="386" y="478" type="curve" smooth="yes"/>
      <point x="386" y="367"/>
      <point x="316" y="319"/>
      <point x="196" y="319" type="curve" smooth="yes"/>
      <point x="110" y="319" type="line"/>
      <point x="110" y="290" type="line"/>
      <point x="232" y="290" type="line"/>
      <point x="342" y="306"/>
      <point x="418" y="355"/>
      <point x="418" y="478" type="curve" smooth="yes"/>
      <point x="418" y="560"/>
      <point x="386" y="614"/>
      <point x="315" y="634" type="curve"/>
      <point x="507" y="634" type="line"/>
    </contour>
  </outline>
</glyph>
<glyph name="sha-cy.sc" format="2">
  <advance width="815"/>
  <anchor x="408" y="0" name="bottom"/>
  <anchor x="705" y="0" name="bottomright"/>
  <anchor x="407.5" y="560" name="top"/>
  <outline>
    <contour>
      <point x="695" y="560" type="line"/>
      <point x="665" y="560" type="line"/>
      <point x="665" y="28" type="line"/>
      <point x="422" y="28" type="line"/>
      <point x="422" y="560" type="line"/>
      <point x="393" y="560" type="line"/>
      <point x="393" y="28" type="line"/>
      <point x="150" y="28" type="line"/>
      <point x="150" y="560" type="line"/>
      <point x="120" y="560" type="line"/>
      <point x="120" y="0" type="line"/>
      <point x="695" y="0" type="line"/>
    </contour>
  </outline>
</glyph>
<glyph name="sterling.tf" format="2">
  <advance width="560"/>
  <outline>
    <contour>
      <point x="328" y="692" type="curve" smooth="yes"/>
      <point x="215" y="692"/>
      <point x="162" y="616"/>
      <point x="162" y="523" type="curve" smooth="yes"/>
      <point x="162" y="142" type="line"/>
      <point x="162" y="81"/>
      <point x="137" y="58"/>
      <point x="78" y="28" type="curve"/>
      <point x="78" y="0" type="line"/>
      <point x="466" y="0" type="line"/>
      <point x="470" y="29" type="line"/>
      <point x="121" y="29" type="line"/>
      <point x="169" y="53"/>
      <point x="192" y="77"/>
      <point x="192" y="144" type="curve"/>
      <point x="192" y="522" type="line" smooth="yes"/>
      <point x="192" y="603"/>
      <point x="235" y="664"/>
      <point x="328" y="664" type="curve" smooth="yes"/>
      <point x="390" y="664"/>
      <point x="427" y="643"/>
      <point x="461" y="604" type="curve"/>
      <point x="482" y="623" type="line"/>
      <point x="442" y="669"/>
      <point x="396" y="692"/>
    </contour>
    <contour>
      <point x="425" y="377" type="line"/>
      <point x="97" y="377" type="line"/>
      <point x="97" y="349" type="line"/>
      <point x="425" y="349" type="line"/>
    </contour>
  </outline>
</glyph>
<glyph name="tbar.sc" format="2">
  <advance width="418"/>
  <anchor x="209" y="0" name="bottom"/>
  <anchor x="234" y="0" name="bottomright"/>
  <anchor x="209" y="283" name="center"/>
  <anchor x="209" y="560" name="top"/>
  <outline>
    <contour>
      <point x="352" y="303" type="line"/>
      <point x="352" y="327" type="line"/>
      <point x="224" y="327" type="line"/>
      <point x="66" y="327" type="line"/>
      <point x="66" y="303" type="line"/>
      <point x="194" y="303" type="line"/>
    </contour>
    <component base="t.sc"/>
  </outline>
</glyph>
<glyph name="thorn.sc" format="2">
  <advance width="512"/>
  <anchor x="135" y="0" name="bottom"/>
  <anchor x="256" y="560" name="top"/>
  <outline>
    <contour>
      <point x="247" y="457" type="curve" smooth="yes"/>
      <point x="140" y="457" type="line"/>
      <point x="140" y="429" type="line"/>
      <point x="247" y="429" type="line" smooth="yes"/>
      <point x="361" y="429"/>
      <point x="426" y="395"/>
      <point x="426" y="292" type="curve" smooth="yes"/>
      <point x="426" y="183"/>
      <point x="350" y="151"/>
      <point x="245" y="151" type="curve" smooth="yes"/>
      <point x="143" y="151" type="line"/>
      <point x="143" y="123" type="line"/>
      <point x="242" y="123" type="line" smooth="yes"/>
      <point x="368" y="123"/>
      <point x="457" y="168"/>
      <point x="457" y="293" type="curve" smooth="yes"/>
      <point x="457" y="408"/>
      <point x="380" y="457"/>
    </contour>
    <contour>
      <point x="150" y="560" type="line"/>
      <point x="120" y="560" type="line"/>
      <point x="120" y="0" type="line"/>
      <point x="150" y="0" type="line"/>
    </contour>
  </outline>
</glyph>
<glyph name="tonos.case" format="2">
  <advance width="40"/>
  <anchor x="110" y="682" name="_topleft"/>
  <outline>
    <contour>
      <point x="62" y="690" type="line"/>
      <point x="30" y="555" type="line"/>
      <point x="52" y="551" type="line"/>
      <point x="100" y="682" type="line"/>
    </contour>
  </outline>
</glyph>
<glyph name="tsehelper-cy" format="2">
  <advance width="574"/>
  <anchor x="287" y="0" name="bottom"/>
  <anchor x="469" y="0" name="bottomright"/>
  <outline>
    <contour>
      <point x="429" y="520" type="line"/>
      <point x="429" y="28" type="line"/>
      <point x="145" y="28" type="line"/>
      <point x="145" y="520" type="line"/>
      <point x="115" y="520" type="line"/>
      <point x="115" y="0" type="line"/>
      <point x="459" y="0" type="line"/>
      <point x="459" y="520" type="line"/>
    </contour>
  </outline>
</glyph>
<glyph name="tsehelper-cy.sc" format="2">
  <advance width="614"/>
  <anchor x="305" y="0" name="bottom"/>
  <anchor x="504" y="0" name="bottomright"/>
  <outline>
    <contour>
      <point x="464" y="560" type="line"/>
      <point x="464" y="28" type="line"/>
      <point x="150" y="28" type="line"/>
      <point x="150" y="560" type="line"/>
      <point x="120" y="560" type="line"/>
      <point x="120" y="0" type="line"/>
      <point x="494" y="0" type="line"/>
      <point x="494" y="560" type="line"/>
    </contour>
  </outline>
</glyph>
<glyph name="tshe-cy.sc" format="2">
  <advance width="591"/>
  <anchor x="325" y="0" name="bottom"/>
  <anchor x="546" y="0" name="bottomright"/>
  <anchor x="325" y="560" name="top"/>
  <outline>
    <contour>
      <point x="377" y="560" type="line"/>
      <point x="15" y="560" type="line"/>
      <point x="15" y="531" type="line"/>
      <point x="372" y="531" type="line"/>
    </contour>
    <component base="shha-cy.sc" xOffset="59"/>
  </outline>
</glyph>
<glyph name="two.osf" format="2">
  <advance width="471"/>
  <outline>
    <contour>
      <point x="216" y="567" type="curve" smooth="yes"/>
      <point x="139" y="567"/>
      <point x="83" y="538"/>
      <point x="30" y="467" type="curve"/>
      <point x="53" y="451" type="line"/>
      <point x="95" y="507"/>
      <point x="143" y="539"/>
      <point x="216" y="539" type="curve" smooth="yes"/>
      <point x="309" y="539"/>
      <point x="356" y="480"/>
      <point x="356" y="399" type="curve" smooth="yes"/>
      <point x="356" y="303"/>
      <point x="299" y="211"/>
      <point x="42" y="29" type="curve"/>
      <point x="42" y="0" type="line"/>
      <point x="400" y="0" type="line"/>
      <point x="406" y="30" type="line"/>
      <point x="85" y="30" type="line"/>
      <point x="318" y="194"/>
      <point x="387" y="291"/>
      <point x="387" y="402" type="curve" smooth="yes"/>
      <point x="387" y="494"/>
      <point x="329" y="567"/>
    </contour>
  </outline>
</glyph>
<glyph name="two.tosf" format="2">
  <advance width="560"/>
  <outline>
    <contour>
      <point x="269" y="567" type="curve" smooth="yes"/>
      <point x="190" y="567"/>
      <point x="131" y="539"/>
      <point x="77" y="467" type="curve"/>
      <point x="100" y="451" type="line"/>
      <point x="143" y="508"/>
      <point x="193" y="539"/>
      <point x="269" y="539" type="curve" smooth="yes"/>
      <point x="363" y="539"/>
      <point x="413" y="481"/>
      <point x="413" y="399" type="curve" smooth="yes"/>
      <point x="413" y="303"/>
      <point x="356" y="211"/>
      <point x="89" y="29" type="curve"/>
      <point x="89" y="0" type="line"/>
      <point x="457" y="0" type="line"/>
      <point x="463" y="30" type="line"/>
      <point x="132" y="30" type="line"/>
      <point x="375" y="194"/>
      <point x="444" y="291"/>
      <point x="444" y="402" type="curve" smooth="yes"/>
      <point x="444" y="494"/>
      <point x="383" y="567"/>
    </contour>
  </outline>
</glyph>
<glyph name="ubar.sc" format="2">
  <advance width="599"/>
  <anchor x="300" y="0" name="bottom"/>
  <anchor x="376" y="0" name="ogonek"/>
  <anchor x="300" y="560" name="top"/>
  <anchor x="494" y="560" name="topright"/>
  <outline>
    <contour>
      <point x="542" y="437" type="line"/>
      <point x="484" y="437" type="line"/>
      <point x="57" y="437" type="line"/>
      <point x="57" y="413" type="line"/>
      <point x="115" y="413" type="line"/>
      <point x="542" y="413" type="line"/>
    </contour>
    <component base="u.sc" xOffset="5"/>
  </outline>
</glyph>
<glyph name="uniA7AE.sc" format="2">
  <advance width="339"/>
  <anchor x="169.5" y="0" name="bottom"/>
  <anchor x="169.5" y="560" name="top"/>
  <outline>
    <contour>
      <point x="154" y="0" type="line"/>
      <point x="184" y="0" type="line"/>
      <point x="184" y="560" type="line"/>
      <point x="154" y="560" type="line"/>
    </contour>
    <contour>
      <point x="35" y="0" type="line"/>
      <point x="304" y="0" type="line"/>
      <point x="304" y="28" type="line"/>
      <point x="35" y="28" type="line"/>
    </contour>
    <contour>
      <point x="35" y="533" type="line"/>
      <point x="304" y="533" type="line"/>
      <point x="304" y="560" type="line"/>
      <point x="35" y="560" type="line"/>
    </contour>
  </outline>
</glyph>
<glyph name="ustraitstroke-cy.sc" format="2">
  <advance width="441"/>
  <anchor x="222" y="0" name="bottom"/>
  <anchor x="221" y="560" name="top"/>
  <outline>
    <contour>
      <point x="351" y="243" type="line"/>
      <point x="93" y="243" type="line"/>
      <point x="93" y="216" type="line"/>
      <point x="351" y="216" type="line"/>
    </contour>
    <component base="y.sc"/>
  </outline>
</glyph>
<glyph name="v.sc" format="2">
  <advance width="476"/>
  <anchor x="238" y="0" name="bottom"/>
  <anchor x="238" y="560" name="top"/>
  <outline>
    <contour>
      <point x="451" y="560" type="line"/>
      <point x="420" y="560" type="line"/>
      <point x="238" y="29" type="line"/>
      <point x="57" y="560" type="line"/>
      <point x="25" y="560" type="line"/>
      <point x="219" y="0" type="line"/>
      <point x="256" y="0" type="line"/>
    </contour>
  </outline>
</glyph>
<glyph name="varia.case" format="2">
  <advance width="40"/>
  <anchor x="100" y="682" name="_topleft"/>
  <outline>
    <contour>
      <point x="58" y="690" type="line"/>
      <point x="20" y="682" type="line"/>
      <point x="68" y="551" type="line"/>
      <point x="90" y="555" type="line"/>
    </contour>
  </outline>
</glyph>
<glyph name="vturned.sc" format="2">
  <advance width="476"/>
  <anchor x="238" y="0" name="bottom"/>
  <anchor x="239" y="560" name="top"/>
  <outline>
    <contour>
      <point x="25" y="0" type="line"/>
      <point x="57" y="0" type="line"/>
      <point x="238" y="531" type="line"/>
      <point x="419" y="0" type="line"/>
      <point x="451" y="0" type="line"/>
      <point x="257" y="560" type="line"/>
      <point x="220" y="560" type="line"/>
    </contour>
  </outline>
</glyph>
<glyph name="w.sc" format="2">
  <advance width="702"/>
  <anchor x="351" y="0" name="bottom"/>
  <anchor x="352" y="560" name="top"/>
  <outline>
    <contour>
      <point x="667" y="560" type="line"/>
      <point x="636" y="560" type="line"/>
      <point x="513" y="33" type="line"/>
      <point x="370" y="560" type="line"/>
      <point x="333" y="560" type="line"/>
      <point x="192" y="34" type="line"/>
      <point x="67" y="560" type="line"/>
      <point x="35" y="560" type="line"/>
      <point x="172" y="0" type="line"/>
      <point x="207" y="0" type="line"/>
      <point x="351" y="530" type="line"/>
      <point x="495" y="0" type="line"/>
      <point x="530" y="0" type="line"/>
    </contour>
  </outline>
</glyph>
<glyph name="x.sc" format="2">
  <advance width="431"/>
  <anchor x="215.5" y="0" name="bottom"/>
  <anchor x="394" y="0" name="bottomright"/>
  <anchor x="215.5" y="560" name="top"/>
  <outline>
    <contour>
      <point x="67" y="560" type="line"/>
      <point x="33" y="560" type="line"/>
      <point x="196" y="302" type="line"/>
      <point x="214" y="282" type="line"/>
      <point x="386" y="0" type="line"/>
      <point x="420" y="0" type="line"/>
      <point x="231" y="303" type="line"/>
      <point x="213" y="322" type="line"/>
    </contour>
    <contour>
      <point x="392" y="560" type="line"/>
      <point x="359" y="560" type="line"/>
      <point x="213" y="322" type="line"/>
      <point x="196" y="302" type="line"/>
      <point x="15" y="0" type="line"/>
      <point x="48" y="0" type="line"/>
      <point x="214" y="282" type="line"/>
      <point x="231" y="303" type="line"/>
    </contour>
  </outline>
</glyph>
<glyph name="yen.tosf" format="2">
  <advance width="560"/>
  <outline>
    <contour>
      <point x="506" y="662" type="line"/>
      <point x="471" y="662" type="line"/>
      <point x="282" y="333" type="line"/>
      <point x="90" y="662" type="line"/>
      <point x="54" y="662" type="line"/>
      <point x="266" y="310" type="line"/>
      <point x="266" y="0" type="line"/>
      <point x="297" y="0" type="line"/>
      <point x="297" y="309" type="line"/>
    </contour>
    <contour>
      <point x="430" y="191" type="line"/>
      <point x="133" y="191" type="line"/>
      <point x="133" y="162" type="line"/>
      <point x="430" y="162" type="line"/>
    </contour>
    <contour>
      <point x="430" y="332" type="line"/>
      <point x="133" y="332" type="line"/>
      <point x="133" y="304" type="line"/>
      <point x="430" y="304" type="line"/>
    </contour>
  </outline>
</glyph>
<glyph name="yuslittleiotified-cy.sc" format="2">
  <advance width="689"/>
  <anchor x="344.5" y="0" name="bottom"/>
  <anchor x="344.5" y="560" name="top"/>
  <outline>
    <contour>
      <point x="336" y="270" type="line"/>
      <point x="336" y="297" type="line"/>
      <point x="150" y="297" type="line"/>
      <point x="150" y="560" type="line"/>
      <point x="120" y="560" type="line"/>
      <point x="120" y="0" type="line"/>
      <point x="150" y="0" type="line"/>
      <point x="150" y="270" type="line"/>
    </contour>
    <component base="yuslittle-cy.sc" xOffset="193"/>
  </outline>
</glyph>
<glyph name="zstroke.sc" format="2">
  <advance width="455"/>
  <anchor x="227.5" y="0" name="bottom"/>
  <anchor x="227.5" y="560" name="top"/>
  <outline>
    <contour>
      <point x="405" y="560" type="line"/>
      <point x="73" y="560" type="line"/>
      <point x="73" y="532" type="line"/>
      <point x="371" y="532" type="line"/>
      <point x="40" y="27" type="line"/>
      <point x="40" y="0" type="line"/>
      <point x="392" y="0" type="line"/>
      <point x="396" y="29" type="line"/>
      <point x="76" y="29" type="line"/>
      <point x="405" y="534" type="line"/>
    </contour>
    <component base="hyphen" xScale="1.1" xOffset="8" yOffset="-31"/>
  </outline>
</glyph>
